<?xml version="1.0" encoding="iso-8859-1"?>
<!-- Generator: Adobe Illustrator 16.0.0, SVG Export Plug-In . SVG Version: 6.00 Build 0)  -->
<!DOCTYPE svg PUBLIC "-//W3C//DTD SVG 1.1//EN" "http://www.w3.org/Graphics/SVG/1.1/DTD/svg11.dtd">
<svg xmlns="http://www.w3.org/2000/svg" xmlns:xlink="http://www.w3.org/1999/xlink" version="1.1" id="Capa_1" x="0px" y="0px" width="512px" height="512px" viewBox="0 0 575.268 575.268" style="enable-background:new 0 0 575.268 575.268;" xml:space="preserve">
<g>
	<g>
		<path d="M318.914,410.236l-45.239,7.222c-1.396,0.22-2.436,1.432-2.436,2.852v64.064c0,0.894,0.416,1.75,1.126,2.301    c0.514,0.392,1.138,0.6,1.775,0.6c0.245,0,0.489-0.024,0.734-0.098l45.239-11.885c1.272-0.331,2.154-1.481,2.154-2.804v-59.4    c0-0.845-0.368-1.652-1.017-2.203S319.747,410.102,318.914,410.236z" fill="#00BFF3"/>
		<path d="M375.646,401.166l-36.499,5.826c-1.396,0.232-2.437,1.433-2.437,2.853v57.332c0,0.894,0.417,1.75,1.127,2.289    c0.514,0.392,1.138,0.6,1.762,0.6c0.245,0,0.49-0.024,0.734-0.098l36.5-9.597c1.273-0.33,2.154-1.481,2.154-2.803V404.03    c0-0.845-0.367-1.652-1.016-2.203C377.336,401.276,376.479,401.044,375.646,401.166z" fill="#00BFF3"/>
		<path d="M390.849,455.549c0.515,0.392,1.126,0.6,1.763,0.6c0.245,0,0.502-0.037,0.734-0.098l30.062-7.907    c1.273-0.331,2.154-1.481,2.154-2.803v-48.765c0-0.845-0.367-1.652-1.016-2.203c-0.649-0.551-1.493-0.783-2.326-0.648    l-30.062,4.798c-1.407,0.22-2.436,1.432-2.436,2.852v51.861C389.711,454.153,390.139,454.998,390.849,455.549z" fill="#00BFF3"/>
		<path d="M319.355,321.08l-45.24,0.232c-1.591,0-2.876,1.297-2.876,2.889v64.064c0,0.819,0.342,1.603,0.967,2.153    c0.526,0.49,1.224,0.747,1.934,0.747c0.098,0,0.208,0,0.306-0.012l45.239-4.884c1.469-0.159,2.583-1.396,2.583-2.877V323.98    c0-0.771-0.307-1.505-0.845-2.044C320.86,321.374,320.126,321.129,319.355,321.08z" fill="#00BFF3"/>
		<path d="M376.088,320.786l-36.5,0.184c-1.592,0.012-2.877,1.31-2.877,2.889v57.332c0,0.82,0.343,1.604,0.955,2.154    c0.539,0.478,1.224,0.746,1.934,0.746c0.099,0,0.208,0,0.307-0.024l36.487-3.94c1.469-0.159,2.582-1.396,2.582-2.877v-53.574    c0-0.771-0.306-1.506-0.856-2.044C377.593,321.08,376.858,320.749,376.088,320.786z" fill="#00BFF3"/>
		<path d="M392.611,378.351c0.098,0,0.208-0.012,0.306-0.024l30.062-3.256c1.469-0.159,2.583-1.396,2.583-2.876V323.43    c0-0.771-0.306-1.505-0.856-2.044c-0.539-0.538-1.298-0.832-2.045-0.845L392.6,320.7c-1.592,0-2.877,1.298-2.877,2.889v51.861    c0,0.82,0.355,1.604,0.967,2.154C391.204,378.094,391.901,378.351,392.611,378.351z" fill="#00BFF3"/>
		<path d="M319.796,231.997l-45.239-6.756c-0.833-0.123-1.677,0.123-2.313,0.673c-0.636,0.551-1.003,1.346-1.003,2.191v64.064    c0,1.555,1.211,2.827,2.754,2.889l45.239,2.093c0.037,0,0.086,0,0.135,0c0.734,0,1.457-0.281,1.995-0.795    c0.575-0.551,0.894-1.311,0.894-2.094v-59.413C322.256,233.417,321.216,232.205,319.796,231.997z" fill="#00BFF3"/>
		<path d="M336.711,237.872v57.32c0,1.542,1.212,2.815,2.754,2.889l36.488,1.689c0.049,0,0.098,0,0.135,0    c0.746,0,1.456-0.282,1.994-0.796c0.576-0.551,0.894-1.298,0.894-2.093v-53.562c0-1.432-1.052-2.644-2.472-2.864l-36.487-5.447    c-0.833-0.123-1.678,0.123-2.313,0.673C337.078,236.232,336.711,237.04,336.711,237.872z" fill="#00BFF3"/>
		<path d="M392.477,300.554l30.062,1.395c0.049,0.013,0.098,0.013,0.135,0.013c0.747,0,1.457-0.281,1.995-0.796    c0.575-0.538,0.894-1.31,0.894-2.093v-48.764c0-1.432-1.053-2.644-2.473-2.864l-30.062-4.492    c-0.832-0.123-1.677,0.122-2.313,0.673c-0.636,0.551-1.003,1.347-1.003,2.191v51.861    C389.711,299.207,390.922,300.479,392.477,300.554z" fill="#00BFF3"/>
		<path d="M557.142,226.514l-102.009-25.753L347.348,4.48c-0.049-0.085-0.11-0.171-0.171-0.257    c-0.073-0.135-0.159-0.257-0.245-0.392c-0.184-0.257-0.367-0.514-0.575-0.759c-0.049-0.061-0.098-0.146-0.159-0.208    c-0.037-0.024-0.049-0.049-0.086-0.073c-0.294-0.318-0.611-0.625-0.954-0.894c-0.062-0.049-0.147-0.098-0.221-0.159    c-0.27-0.208-0.563-0.404-0.856-0.575c-0.123-0.074-0.258-0.135-0.38-0.208c-0.27-0.135-0.538-0.257-0.832-0.367    c-0.122-0.049-0.245-0.098-0.367-0.147c-0.367-0.123-0.734-0.22-1.114-0.294c-0.049,0-0.086-0.024-0.135-0.024    c-0.379-0.061-0.759-0.11-1.15-0.123c-0.036,0-0.086,0-0.135,0c-0.109,0-0.22,0-0.33,0c-0.33,0-0.673,0.024-1.004,0.062    c-0.11,0.012-0.232,0.024-0.343,0.049c-0.354,0.061-0.71,0.135-1.04,0.245c-0.086,0.025-0.159,0.049-0.245,0.074    c-0.429,0.146-0.856,0.318-1.261,0.526c-0.012,0-0.012,0-0.024,0.012L95.877,126.109c-1.175,0.612-2.203,1.493-2.986,2.558    L13.245,237.371c-2.191,2.986-2.24,7.038-0.134,10.073c1.64,2.375,4.333,3.733,7.124,3.733c0.783,0,1.567-0.11,2.35-0.318    l11.261-3.17V475.12c0,3.256,1.824,6.242,4.725,7.724l178.912,91.47c0.024,0.012,0.049,0.024,0.073,0.036    c0.086,0.037,0.184,0.073,0.27,0.11c0.281,0.135,0.563,0.245,0.857,0.343c0.122,0.037,0.257,0.073,0.379,0.11    c0.281,0.073,0.551,0.135,0.832,0.195c0.123,0.024,0.233,0.049,0.355,0.062c0.392,0.049,0.784,0.098,1.188,0.098l0,0    c0.343,0,0.698-0.024,1.041-0.073c0.085-0.012,0.159-0.024,0.245-0.024c0.343-0.049,0.673-0.122,1.016-0.221    c0.049-0.012,0.098-0.024,0.146-0.036c0.184-0.049,0.355-0.098,0.526-0.172l227.896-82.975l105.681-38.482    c3.427-1.249,5.716-4.505,5.716-8.152V234.922C563.702,230.957,560.997,227.48,557.142,226.514z M56.586,254.421    c0-1.371,0.967-2.546,2.301-2.828l18.972-3.966c0.844-0.171,1.738,0.037,2.411,0.588s1.065,1.371,1.065,2.252v48.654    c0,1.53-1.188,2.791-2.705,2.889l-18.96,1.236c-0.061,0-0.122,0-0.196,0c-0.734,0-1.444-0.281-1.983-0.783    c-0.575-0.551-0.918-1.31-0.918-2.105v-45.937H56.586z M81.336,445.059c0,0.942-0.465,1.824-1.236,2.375    c-0.489,0.343-1.077,0.514-1.652,0.514c-0.343,0-0.673-0.062-1.003-0.184l-18.972-6.977c-1.138-0.416-1.897-1.506-1.897-2.718    v-45.912c0-0.869,0.404-1.701,1.089-2.252c0.686-0.551,1.579-0.759,2.436-0.562l18.959,4.247c1.322,0.294,2.265,1.469,2.265,2.815    v48.653H81.336z M81.471,372.096c0,0.845-0.367,1.641-1.004,2.191c-0.526,0.453-1.199,0.697-1.885,0.697    c-0.147,0-0.282-0.012-0.429-0.024l-19.094-2.889c-1.42-0.22-2.46-1.432-2.46-2.863v-46.182c0-0.771,0.306-1.506,0.856-2.045    c0.539-0.538,1.297-0.881,2.057-0.844l19.094,0.122c1.591,0.013,2.876,1.298,2.876,2.889v48.947H81.471z M126.979,517.066    c0,1.017-0.526,1.946-1.383,2.473c-0.465,0.281-0.979,0.429-1.505,0.429c-0.453,0-0.906-0.098-1.322-0.318L98.753,507.36    c-0.967-0.502-1.579-1.493-1.579-2.583V401.239c0-0.869,0.404-1.701,1.077-2.252c0.686-0.551,1.579-0.759,2.436-0.562l24.015,5.36    c1.322,0.294,2.265,1.469,2.265,2.815v110.466H126.979z M126.979,378.987c0,0.845-0.367,1.641-1.016,2.191    c-0.526,0.452-1.199,0.697-1.885,0.697c-0.147,0-0.282-0.013-0.429-0.037l-24.259-3.672c-1.42-0.208-2.46-1.42-2.46-2.852v-51.983    c0-0.759,0.306-1.506,0.845-2.044c0.551-0.539,1.236-0.845,2.056-0.832l24.26,0.158c1.591,0.013,2.876,1.311,2.876,2.889v55.484    H126.979z M126.979,296.146c0,1.519-1.188,2.791-2.705,2.889l-24.272,1.567c-0.061,0-0.123,0.012-0.196,0.012    c-0.734,0-1.444-0.281-1.983-0.783c-0.563-0.551-0.894-1.31-0.894-2.105v-51.738c0-1.371,0.955-2.546,2.301-2.827l24.26-5.08    c0.856-0.171,1.738,0.037,2.411,0.587c0.673,0.539,1.065,1.371,1.065,2.24v55.239H126.979z M186.881,483.859    c0,0.955-0.465,1.836-1.236,2.375c-0.501,0.343-1.064,0.514-1.652,0.514c-0.343,0-0.673-0.061-0.991-0.171l-32.13-11.812    c-1.139-0.417-1.885-1.506-1.885-2.718v-58.96c0-0.881,0.392-1.714,1.077-2.265s1.579-0.759,2.436-0.562l32.13,7.197    c1.322,0.293,2.252,1.469,2.252,2.827V483.859z M186.881,388.058c0,0.844-0.367,1.652-1.003,2.19    c-0.526,0.453-1.2,0.697-1.885,0.697c-0.147,0-0.281,0-0.44-0.024l-32.13-4.858c-1.42-0.221-2.46-1.433-2.46-2.853v-59.241    c0-0.771,0.306-1.506,0.845-2.044c0.551-0.551,1.236-0.845,2.056-0.845l32.13,0.232c1.591,0.012,2.876,1.298,2.876,2.889v63.856    H186.881z M186.881,292.255c0,1.518-1.187,2.79-2.705,2.889l-32.13,2.08c-0.061,0-0.123,0-0.196,0    c-0.734,0-1.444-0.281-1.971-0.783c-0.587-0.551-0.918-1.31-0.918-2.105v-59.241c0-1.371,0.955-2.546,2.301-2.827l32.13-6.72    c0.845-0.184,1.738,0.037,2.411,0.587c0.673,0.539,1.065,1.371,1.065,2.24v63.881H186.881z M440.666,477.544l-210.541,76.659    V188.558L339.024,25.361l101.642,185.118V477.544z M507.386,423.859c0,1.31-0.881,2.46-2.154,2.79l-31.334,8.226    c-0.245,0.062-0.49,0.098-0.734,0.098c-0.625,0-1.261-0.208-1.763-0.6c-0.71-0.538-1.126-1.396-1.126-2.289v-65.349    c0-1.481,1.113-2.718,2.57-2.877l31.334-3.391c0.82-0.085,1.628,0.184,2.24,0.723c0.612,0.551,0.967,1.334,0.967,2.154V423.859    L507.386,423.859z M507.386,323.014c0,1.591-1.285,2.889-2.876,2.889l-31.322,0.159h-0.013c-0.759,0-1.493-0.306-2.044-0.845    c-0.538-0.551-0.845-1.272-0.845-2.044v-65.349c0-0.833,0.367-1.64,1.004-2.191c0.637-0.551,1.481-0.796,2.313-0.673l31.334,4.676    c1.42,0.208,2.461,1.432,2.461,2.864v60.515H507.386z M550.422,412.562c0,1.31-0.894,2.46-2.154,2.803l-24.603,6.463    c-0.232,0.062-0.489,0.098-0.734,0.098c-0.637,0-1.261-0.208-1.763-0.6c-0.71-0.551-1.126-1.396-1.126-2.289v-57.185    c0-1.481,1.114-2.718,2.583-2.877l24.602-2.692c0.809-0.098,1.629,0.171,2.253,0.722c0.611,0.551,0.967,1.335,0.967,2.154v53.403    H550.422z M550.422,322.793c0,1.592-1.285,2.889-2.877,2.889l-24.602,0.123h-0.013c-0.759,0-1.493-0.294-2.044-0.845    c-0.539-0.551-0.856-1.273-0.856-2.044v-57.65c0-0.845,0.366-1.64,1.003-2.191c0.637-0.551,1.493-0.795,2.313-0.673l24.603,3.672    c1.42,0.208,2.473,1.432,2.473,2.864V322.793z" fill="#00BFF3"/>
	</g>
</g>
<g>
</g>
<g>
</g>
<g>
</g>
<g>
</g>
<g>
</g>
<g>
</g>
<g>
</g>
<g>
</g>
<g>
</g>
<g>
</g>
<g>
</g>
<g>
</g>
<g>
</g>
<g>
</g>
<g>
</g>
</svg>
