<?xml version="1.0" encoding="utf-8"?>
<!-- Generator: Avocode 2.6.0 - http://avocode.com -->
<svg height="93" width="86" xmlns:xlink="http://www.w3.org/1999/xlink" xmlns="http://www.w3.org/2000/svg" viewBox="0 0 86 93">
    <path stroke-linejoin="miter" stroke-linecap="butt" stroke-width="1" stroke="#87d37c" fill="#87d37c" opacity="0.9" fill-rule="evenodd" d="M 83.78 39.53 C 83.78 39.53 83.78 39.53 83.78 39.53 C 83.78 39.53 83.78 89.02 83.78 89.02 C 83.78 89.02 82.79 89.02 82.79 89.02 C 82.79 89.02 82.79 39.62 82.79 39.62 C 82.79 39.62 0.01 1.38 0.01 1.38 C 0.01 1.38 0.42 0.48 0.42 0.48 C 0.42 0.48 83.99 39.08 83.99 39.08 C 83.99 39.08 83.78 39.53 83.78 39.53 Z" />
    <path fill="#87d37c" fill-rule="evenodd" d="M 83.5 88.03 C 84.88 88.03 86 89.14 86 90.52 C 86 91.89 84.88 93 83.5 93 C 82.12 93 81 91.89 81 90.52 C 81 89.14 82.12 88.03 83.5 88.03 Z" />
</svg>
