<?xml version="1.0" encoding="iso-8859-1"?>
<!-- Generator: Adobe Illustrator 16.0.0, SVG Export Plug-In . SVG Version: 6.00 Build 0)  -->
<!DOCTYPE svg PUBLIC "-//W3C//DTD SVG 1.1//EN" "http://www.w3.org/Graphics/SVG/1.1/DTD/svg11.dtd">
<svg xmlns="http://www.w3.org/2000/svg" xmlns:xlink="http://www.w3.org/1999/xlink" version="1.1" id="Capa_1" x="0px" y="0px" width="512px" height="512px" viewBox="0 0 235.888 235.888" style="enable-background:new 0 0 235.888 235.888;" xml:space="preserve">
<g>
	<g>
		<path d="M192.235,136.117c-7.1,0-13.792,1.741-19.729,4.762L143.01,91.791c11.216-7.907,18.578-20.938,18.578-35.673    c0-24.067-19.577-43.647-43.647-43.647c-24.067,0-43.647,19.58-43.647,43.647s19.58,43.647,43.647,43.647    c7.106,0,13.792-1.738,19.729-4.765l29.502,49.094c-10.412,7.344-17.463,19.107-18.426,32.559H87.139    c-1.611-22.609-20.478-40.529-43.492-40.529C19.58,136.123,0,155.699,0,179.77c0,24.071,19.58,43.647,43.647,43.647    c23.014,0,41.875-17.92,43.492-40.529h61.606c1.614,22.609,20.484,40.529,43.495,40.529c24.07,0,43.647-19.576,43.647-43.647    C235.888,155.699,216.299,136.117,192.235,136.117z M80.529,56.118c0-20.633,16.779-37.412,37.412-37.412    c20.637,0,37.412,16.778,37.412,37.412s-16.775,37.412-37.412,37.412C97.308,93.529,80.529,76.751,80.529,56.118z M43.647,217.176    c-20.633,0-37.412-16.781-37.412-37.412c0-20.63,16.779-37.411,37.412-37.411c20.633,0,37.412,16.781,37.412,37.411    C81.059,200.395,64.28,217.176,43.647,217.176z M192.235,217.176c-20.63,0-37.412-16.781-37.412-37.412    c0-20.63,16.782-37.411,37.412-37.411s37.412,16.781,37.412,37.411C229.647,200.395,212.865,217.176,192.235,217.176z" fill="#00BFF3"/>
		<path d="M117.941,39.114c3.13,0,5.675-3.635,5.675-6.765c0-3.136-2.545-5.681-5.675-5.681c-3.136,0-5.681,2.545-5.681,5.681    C112.26,35.479,114.805,39.114,117.941,39.114z" fill="#00BFF3"/>
		<path d="M129.054,43.068c-0.037-0.17-0.086-0.332-0.159-0.48c-0.055-0.119-0.146-0.207-0.219-0.305    c-0.098-0.134-0.195-0.262-0.316-0.375c-0.11-0.088-0.226-0.137-0.335-0.207c-0.116-0.067-0.213-0.155-0.335-0.204    c-0.207-0.076-4.723-1.693-8.875-1.909l-0.576,1.142h-0.012l1.517,11.771l-1.803,3.147l-1.796-3.136l1.516-11.771h-0.018    l-0.575-1.142c-4.153,0.21-8.665,1.827-8.866,1.909c-0.131,0.049-0.231,0.137-0.344,0.204c-0.11,0.07-0.229,0.119-0.329,0.201    c-0.131,0.112-0.231,0.249-0.332,0.386c-0.073,0.091-0.149,0.18-0.21,0.287c-0.076,0.149-0.119,0.316-0.158,0.487    c-0.024,0.097-0.085,0.186-0.098,0.292l-1.796,16.16c-0.137,1.236,0.755,2.338,1.982,2.476c0.082,0.009,0.162,0.015,0.25,0.015    c1.129,0,2.095-0.849,2.226-1.998l1.635-14.72c0.192-0.058,0.399-0.119,0.624-0.183v15.32l-1.79,22.216    c-0.125,1.479,0.983,2.783,2.469,2.901c0.073,0.006,0.149,0.006,0.226,0.006c1.388,0,2.566-1.068,2.679-2.475l1.617-20.079    c0.329,0.149,0.697,0.231,1.084,0.231s0.755-0.083,1.084-0.231l1.616,20.079c0.113,1.416,1.297,2.475,2.68,2.475    c0.076,0,0.152,0,0.226-0.006c1.477-0.119,2.591-1.422,2.469-2.901l-1.79-22.216v-15.32c0.225,0.064,0.432,0.125,0.621,0.183    l1.638,14.72c0.128,1.148,1.096,1.998,2.223,1.998c0.091,0,0.17-0.006,0.256-0.015c1.229-0.137,2.119-1.245,1.979-2.476    l-1.796-16.16C129.133,43.254,129.078,43.166,129.054,43.068z" fill="#00BFF3"/>
		<path d="M214.795,180.568c0.109-2.984-0.384-6.022-1.511-8.915l4.652-2.886l-4.549-7.259l-4.627,2.893    c-2.119-2.277-4.616-4.044-7.344-5.268l1.218-5.31l-8.349-1.918l-1.229,5.31c-2.978-0.109-6.017,0.384-8.909,1.504l-2.898-4.64    l-7.239,4.543l2.892,4.64c-2.283,2.095-4.067,4.609-5.272,7.35l-5.31-1.23l-1.937,8.343l5.31,1.229    c-0.098,2.989,0.39,6.017,1.51,8.915l-4.634,2.886l4.549,7.271l4.64-2.893c2.095,2.283,4.616,4.043,7.338,5.262l-1.218,5.303    l8.336,1.937l1.229-5.315c2.984,0.121,6.017-0.378,8.915-1.498l2.886,4.64l7.271-4.542l-2.904-4.628    c2.277-2.106,4.062-4.622,5.255-7.362l5.316,1.236l1.93-8.354L214.795,180.568z M200.394,192.807    c-7.197,4.506-16.684,2.309-21.196-4.896c-4.5-7.197-2.302-16.69,4.89-21.19c7.222-4.506,16.703-2.313,21.196,4.896    C209.784,178.814,207.591,188.313,200.394,192.807z" fill="#00BFF3"/>
		<rect x="18.551" y="179.764" width="12.532" height="19.412" fill="#00BFF3"/>
		<rect x="37.381" y="171.057" width="12.538" height="28.119" fill="#00BFF3"/>
		<rect x="56.212" y="160.346" width="12.531" height="38.83" fill="#00BFF3"/>
	</g>
</g>
<g>
</g>
<g>
</g>
<g>
</g>
<g>
</g>
<g>
</g>
<g>
</g>
<g>
</g>
<g>
</g>
<g>
</g>
<g>
</g>
<g>
</g>
<g>
</g>
<g>
</g>
<g>
</g>
<g>
</g>
</svg>
