<?xml version="1.0" encoding="utf-8"?>
<!DOCTYPE svg PUBLIC "-//W3C//DTD SVG 1.1//EN" "http://www.w3.org/Graphics/SVG/1.1/DTD/svg11.dtd">
<svg xmlns="http://www.w3.org/2000/svg" xmlns:xlink="http://www.w3.org/1999/xlink" version="1.1" viewBox="0 0 512 512" enable-background="new 0 0 512 512" width="512px" height="512px">
  <g>
    <g>
      <path d="m256,265.3c30.1,0 54-23.9 54-54 0-30.1-23.9-54-54-54s-54,23.9-54,54c0,30.2 23.9,54 54,54zm0-88.2c18.7,0 33.2,15.6 33.2,33.2s-15.6,33.2-33.2,33.2-33.2-15.6-33.2-33.2 14.5-33.2 33.2-33.2z" fill="#00BFF3"/>
      <path d="m448,396.1c-25.5,0-46.2,17.6-50.9,41.5h-130.7v-19c82.1-5.2 147.6-71.1 152.3-153.3h29.3c6.2,0 10.4-4.2 10.4-10.4v-140c23.9-4.7 41.5-25.4 41.5-50.9 0-29.1-22.8-51.9-51.9-51.9-29.1,0-51.9,22.8-51.9,51.9 0,25.5 17.6,46.2 41.5,50.9v129.7h-19.1c-5.6-81.2-70.8-146.1-152.2-151.2v-29.4c0-6.2-4.2-10.4-10.4-10.4h-141c-4.7-23.9-25.4-41.5-50.9-41.5-29.1-1.77636e-15-51.9,22.8-51.9,51.9s22.8,51.9 51.9,51.9c25.5,0 46.2-17.6 50.9-41.5h130.7v19c-81.4,5.1-146.5,70-152.2,151.2h-29.4c-6.2,0-10.4,4.2-10.4,10.4v142.2c-23.9,4.7-41.5,25.4-41.5,50.9 0,29.1 22.8,51.9 51.9,51.9s51.9-22.8 51.9-51.9c0-25.5-17.6-46.2-41.5-50.9v-131.9h19c4.6,82.2 70.2,148.1 152.3,153.3v29.4c0,6.2 4.2,10.4 10.4,10.4h141.1c4.7,23.9 25.4,41.5 50.9,41.5 29.1,0 51.9-22.8 51.9-51.9s-22.9-51.9-52-51.9zm-31.1-332.1c0-17.6 13.5-31.1 31.1-31.1s31.1,13.5 31.1,31.1-13.5,31.1-31.1,31.1-31.1-13.5-31.1-31.1zm-352.9,31.1c-17.6,0-31.1-13.5-31.1-31.1s13.5-31.1 31.1-31.1 31.1,13.5 31.1,31.1-13.5,31.1-31.1,31.1zm31.1,352.9c0,17.6-13.5,31.1-31.1,31.1s-31.1-13.5-31.1-31.1 13.5-31.1 31.1-31.1 31.1,13.5 31.1,31.1zm239.8-72.7c-22.6,15-49.7,23.7-78.9,23.7-28.3,0-54.6-8.2-76.8-22.4v-19.9c0-27 21.8-47.7 47.7-47.7h60.2c27,0 47.7,21.8 47.7,47.7v18.6zm-221.8-119.3c0-79 64-143 143-143s143,64 143,143c0,40.7-17,77.5-44.4,103.5v-2.9c0-38.4-31.1-68.5-68.5-68.5h-60.2c-38.4,0-68.5,31.1-68.5,68.5v2.9c-27.3-26-44.4-62.8-44.4-103.5zm335,223.1c-17.6,0-31.1-13.5-31.1-31.1s13.5-31.1 31.1-31.1 31.1,13.5 31.1,31.1-13.5,31.1-31.1,31.1z" fill="#00BFF3"/>
    </g>
  </g>
</svg>
