<?xml version="1.0" encoding="utf-8"?>
<!-- Generator: Avocode 2.6.0 - http://avocode.com -->
<svg height="94" width="87" xmlns:xlink="http://www.w3.org/1999/xlink" xmlns="http://www.w3.org/2000/svg" viewBox="0 0 87 94">
    <path stroke-linejoin="miter" stroke-linecap="butt" stroke-width="1" stroke="#87d37c" fill="#87d37c" opacity="0.9" fill-rule="evenodd" d="M 85.2 54.45 C 85.2 54.45 1.21 93.46 1.21 93.46 C 1.21 93.46 0.79 92.54 0.79 92.54 C 0.79 92.54 84 53.91 84 53.91 C 84 53.91 84 4 84 4 C 84 4 85 4 85 4 C 85 4 85 54 85 54 C 85 54 85.2 54.45 85.2 54.45 Z" />
    <path fill="#87d37c" fill-rule="evenodd" d="M 84.5 0 C 85.88 0 87 1.12 87 2.5 C 87 3.88 85.88 5 84.5 5 C 83.12 5 82 3.88 82 2.5 C 82 1.12 83.12 0 84.5 0 Z" />
</svg>
