<?xml version="1.0" encoding="utf-8"?>
<!-- Generator: Adobe Illustrator 18.0.0, SVG Export Plug-In . SVG Version: 6.00 Build 0)  -->
<!DOCTYPE svg PUBLIC "-//W3C//DTD SVG 1.1//EN" "http://www.w3.org/Graphics/SVG/1.1/DTD/svg11.dtd">
<svg version="1.1" xmlns="http://www.w3.org/2000/svg" xmlns:xlink="http://www.w3.org/1999/xlink" x="0px" y="0px"
	 viewBox="0 0 800 800" enable-background="new 0 0 800 800" xml:space="preserve">
<g id="background">
</g>
<g id="object">
	<g opacity="0.3">
		<g>
			
				<polyline fill="none" stroke="#FFFFFF" stroke-width="2" stroke-linecap="round" stroke-linejoin="round" stroke-miterlimit="10" stroke-dasharray="2,7" points="
				297.9,535 293.1,422.5 293.1,252.9 			"/>
			
				<polyline fill="none" stroke="#FFFFFF" stroke-width="2" stroke-linecap="round" stroke-linejoin="round" stroke-miterlimit="10" stroke-dasharray="2,7" points="
				401.5,551.4 401.5,235.3 349.9,234.8 349.9,165 			"/>
			
				<polyline fill="none" stroke="#FFFFFF" stroke-width="2" stroke-linecap="round" stroke-linejoin="round" stroke-miterlimit="10" stroke-dasharray="2,7" points="
				503.8,539.6 506.9,216.4 440.5,216.4 440.5,171.4 			"/>
			
				<polyline fill="none" stroke="#FFFFFF" stroke-width="2" stroke-linecap="round" stroke-linejoin="round" stroke-miterlimit="10" stroke-dasharray="2,7" points="
				418.4,556.9 414.8,432.8 444.4,432.9 444.4,315.5 			"/>
			
				<polyline fill="none" stroke="#FFFFFF" stroke-width="2" stroke-linecap="round" stroke-linejoin="round" stroke-miterlimit="10" stroke-dasharray="2,7" points="
				202.3,543.9 202.3,386.5 156.1,386.5 156.1,289.8 			"/>
			
				<polyline fill="none" stroke="#FFFFFF" stroke-width="2" stroke-linecap="round" stroke-linejoin="round" stroke-miterlimit="10" stroke-dasharray="2,7" points="
				621.1,340 563.4,340 562.2,501.5 349.9,501.5 349.9,535.9 			"/>
		</g>
		
			<path fill="none" stroke="#FFFFFF" stroke-width="2" stroke-linecap="round" stroke-linejoin="round" stroke-miterlimit="10" stroke-dasharray="2,7" d="
			M293.1,495.7"/>
		
			<polyline fill="none" stroke="#FFFFFF" stroke-width="2" stroke-linecap="round" stroke-linejoin="round" stroke-miterlimit="10" stroke-dasharray="2,7" points="
			229,187.3 228.8,300.1 292.8,300.1 		"/>
		
			<line fill="none" stroke="#FFFFFF" stroke-width="2" stroke-linecap="round" stroke-linejoin="round" stroke-miterlimit="10" stroke-dasharray="2,7" x1="351" y1="336.8" x2="351" y2="477.1"/>
		
			<line fill="none" stroke="#FFFFFF" stroke-width="2" stroke-linecap="round" stroke-linejoin="round" stroke-miterlimit="10" stroke-dasharray="2,7" x1="638.6" y1="242.5" x2="505" y2="242.5"/>
		
			<line fill="none" stroke="#FFFFFF" stroke-width="2" stroke-linecap="round" stroke-linejoin="round" stroke-miterlimit="10" stroke-dasharray="2,7" x1="563.2" y1="315.5" x2="563.2" y2="334.5"/>
		
			<line fill="none" stroke="#FFFFFF" stroke-width="2" stroke-linecap="round" stroke-linejoin="round" stroke-miterlimit="10" stroke-dasharray="2,7" x1="602.8" y1="169" x2="602.8" y2="239.4"/>
		
			<line fill="none" stroke="#FFFFFF" stroke-width="2" stroke-linecap="round" stroke-linejoin="round" stroke-miterlimit="10" stroke-dasharray="2,7" x1="535.4" y1="193.5" x2="535.4" y2="242.5"/>
		
			<line fill="none" stroke="#FFFFFF" stroke-width="2" stroke-linecap="round" stroke-linejoin="round" stroke-miterlimit="10" stroke-dasharray="2,7" x1="225.4" y1="374" x2="225.4" y2="436.9"/>
	</g>
	<g>
		<path fill="none" stroke="#081928" stroke-width="30" stroke-miterlimit="10" d="M689,581.6c37.7,0,53.5,82.5-2.5,82.5
			c-56,0-474.2,0-543.9,0c-69.7,0-65.2-91.5-5.5-91.5C196.8,572.6,651.4,581.6,689,581.6z"/>
		<path opacity="0.4" fill="none" stroke="#F1E4C4" stroke-width="3" stroke-miterlimit="10" stroke-dasharray="7" d="M689,581.6
			c37.7,0,53.5,82.5-2.5,82.5c-56,0-474.2,0-543.9,0c-69.7,0-65.2-91.5-5.5-91.5C196.8,572.6,651.4,581.6,689,581.6z"/>
	</g>
	<g>
		<g>
			<polygon fill="#EE7922" points="370.8,517.7 320.8,517.7 320.8,391.9 370.8,382.1 			"/>
			<g opacity="0.2">
				<g>
					<rect x="331.5" y="408.5" width="10.2" height="10.2"/>
					<rect x="349.9" y="408.5" width="10.2" height="10.2"/>
				</g>
				<g>
					<rect x="331.5" y="425" width="10.2" height="10.2"/>
					<rect x="349.9" y="425" width="10.2" height="10.2"/>
				</g>
				<g>
					<rect x="331.5" y="441.6" width="10.2" height="10.2"/>
					<rect x="349.9" y="441.6" width="10.2" height="10.2"/>
				</g>
				<g>
					<rect x="331.5" y="458.1" width="10.2" height="10.2"/>
					<rect x="349.9" y="458.1" width="10.2" height="10.2"/>
				</g>
				<g>
					<rect x="331.5" y="474.6" width="10.2" height="10.2"/>
					<rect x="349.9" y="474.6" width="10.2" height="10.2"/>
				</g>
				<g>
					<rect x="338.5" y="499.5" width="16" height="18.2"/>
				</g>
			</g>
		</g>
		<g>
			<polygon fill="#EFA730" points="592.1,394.1 592.1,359.3 548.3,367.8 548.3,402.6 537.5,404.7 537.5,549.5 603,549.5 603,391.9 
							"/>
			<g opacity="0.2">
				<g>
					<rect x="559.7" y="525.6" width="21" height="23.9"/>
				</g>
				<g>
					<g>
						<rect x="547.9" y="438.5" width="19.2" height="6.7"/>
						<rect x="547.9" y="449.4" width="19.2" height="6.7"/>
						<rect x="547.9" y="460.2" width="19.2" height="6.7"/>
						<rect x="547.9" y="416.8" width="19.2" height="6.7"/>
						<rect x="547.9" y="427.7" width="19.2" height="6.7"/>
						<rect x="547.9" y="471.1" width="19.2" height="6.7"/>
						<rect x="547.9" y="503.7" width="19.2" height="6.7"/>
						<polygon points="547.9,488.6 547.9,488.6 567,488.6 567,488.6 567,481.9 547.9,481.9 						"/>
						<rect x="547.9" y="492.8" width="19.2" height="6.7"/>
					</g>
					<g>
						<rect x="574.1" y="438.5" width="19.2" height="6.7"/>
						<rect x="574.1" y="449.4" width="19.2" height="6.7"/>
						<rect x="574.1" y="460.2" width="19.2" height="6.7"/>
						<rect x="574.1" y="416.8" width="19.2" height="6.7"/>
						<rect x="574.1" y="427.7" width="19.2" height="6.7"/>
						<rect x="574.1" y="471.1" width="19.2" height="6.7"/>
						<rect x="574.1" y="503.7" width="19.2" height="6.7"/>
						<polygon points="574.1,488.6 574.1,488.6 593.3,488.6 593.3,488.6 593.3,481.9 574.1,481.9 						"/>
						<rect x="574.1" y="492.8" width="19.2" height="6.7"/>
					</g>
				</g>
			</g>
		</g>
		<g>
			<polygon fill="#EFA730" points="298.6,399.9 298.6,365.1 254.9,373.7 254.9,408.5 244,410.6 244,555.4 309.5,555.4 309.5,397.8 
							"/>
			<g opacity="0.2">
				<g>
					<rect x="266.3" y="531.5" width="21" height="23.9"/>
				</g>
				<g>
					<g>
						<rect x="251.4" y="444.4" width="9.7" height="6.7"/>
						<rect x="251.4" y="455.2" width="9.7" height="6.7"/>
						<rect x="251.4" y="466.1" width="9.7" height="6.7"/>
						<rect x="251.4" y="422.7" width="9.7" height="6.7"/>
						<rect x="251.4" y="433.5" width="9.7" height="6.7"/>
						<rect x="251.4" y="477" width="9.7" height="6.7"/>
						<rect x="251.4" y="509.5" width="9.7" height="6.7"/>
						<polygon points="251.4,494.5 251.4,494.5 261.1,494.5 261.1,494.5 261.1,487.8 251.4,487.8 						"/>
						<rect x="251.4" y="498.7" width="9.7" height="6.7"/>
					</g>
					<g>
						<rect x="264.7" y="444.4" width="9.7" height="6.7"/>
						<rect x="264.7" y="455.2" width="9.7" height="6.7"/>
						<rect x="264.7" y="466.1" width="9.7" height="6.7"/>
						<rect x="264.7" y="422.7" width="9.7" height="6.7"/>
						<rect x="264.7" y="433.5" width="9.7" height="6.7"/>
						<rect x="264.7" y="477" width="9.7" height="6.7"/>
						<rect x="264.7" y="509.5" width="9.7" height="6.7"/>
						<polygon points="264.7,494.5 264.7,494.5 274.4,494.5 274.4,494.5 274.4,487.8 264.7,487.8 						"/>
						<rect x="264.7" y="498.7" width="9.7" height="6.7"/>
					</g>
				</g>
				<g>
					<g>
						<rect x="278.8" y="444.4" width="9.7" height="6.7"/>
						<rect x="278.8" y="455.2" width="9.7" height="6.7"/>
						<rect x="278.8" y="466.1" width="9.7" height="6.7"/>
						<rect x="278.8" y="422.7" width="9.7" height="6.7"/>
						<rect x="278.8" y="433.5" width="9.7" height="6.7"/>
						<rect x="278.8" y="477" width="9.7" height="6.7"/>
						<rect x="278.8" y="509.5" width="9.7" height="6.7"/>
						<polygon points="278.8,494.5 278.8,494.5 288.5,494.5 288.5,494.5 288.5,487.8 278.8,487.8 						"/>
						<rect x="278.8" y="498.7" width="9.7" height="6.7"/>
					</g>
					<g>
						<rect x="292.1" y="444.4" width="9.7" height="6.7"/>
						<rect x="292.1" y="455.2" width="9.7" height="6.7"/>
						<rect x="292.1" y="466.1" width="9.7" height="6.7"/>
						<rect x="292.1" y="422.7" width="9.7" height="6.7"/>
						<rect x="292.1" y="433.5" width="9.7" height="6.7"/>
						<rect x="292.1" y="477" width="9.7" height="6.7"/>
						<rect x="292.1" y="509.5" width="9.7" height="6.7"/>
						<polygon points="292.1,494.5 292.1,494.5 301.8,494.5 301.8,494.5 301.8,487.8 292.1,487.8 						"/>
						<rect x="292.1" y="498.7" width="9.7" height="6.7"/>
					</g>
				</g>
			</g>
		</g>
		<g>
			<polygon fill="#5E4130" points="665.8,443.9 665.8,399.1 617.2,408.6 617.2,453.5 608.5,455.2 608.5,649.2 673.9,649.2 
				673.9,442.3 			"/>
			<g opacity="0.2">
				<g>
					<rect x="615.7" y="495.6" width="8.8" height="6.7"/>
					<rect x="615.7" y="506.5" width="8.8" height="6.7"/>
					<rect x="615.7" y="517.4" width="8.8" height="6.7"/>
					<rect x="615.7" y="473.9" width="8.8" height="6.7"/>
					<rect x="615.7" y="484.8" width="8.8" height="6.7"/>
					<rect x="615.7" y="528.2" width="8.8" height="6.7"/>
					<rect x="615.7" y="560.8" width="8.8" height="6.7"/>
					<rect x="615.7" y="571.6" width="8.8" height="6.7"/>
					<rect x="615.7" y="582.5" width="8.8" height="6.7"/>
					<polygon points="615.7,545.8 615.7,545.8 624.5,545.8 624.5,545.8 624.5,539.1 615.7,539.1 					"/>
					<rect x="615.7" y="549.9" width="8.8" height="6.7"/>
					<rect x="615.7" y="593.4" width="8.8" height="6.7"/>
					<rect x="615.7" y="604.2" width="8.8" height="6.7"/>
				</g>
				<g>
					<rect x="629.8" y="495.6" width="8.8" height="6.7"/>
					<rect x="629.8" y="506.5" width="8.8" height="6.7"/>
					<rect x="629.8" y="517.4" width="8.8" height="6.7"/>
					<rect x="629.8" y="473.9" width="8.8" height="6.7"/>
					<rect x="629.8" y="484.8" width="8.8" height="6.7"/>
					<rect x="629.8" y="528.2" width="8.8" height="6.7"/>
					<rect x="629.8" y="560.8" width="8.8" height="6.7"/>
					<rect x="629.8" y="571.6" width="8.8" height="6.7"/>
					<rect x="629.8" y="582.5" width="8.8" height="6.7"/>
					<polygon points="629.8,545.8 629.8,545.8 638.6,545.8 638.6,545.8 638.6,539.1 629.8,539.1 					"/>
					<rect x="629.8" y="549.9" width="8.8" height="6.7"/>
					<rect x="629.8" y="593.4" width="8.8" height="6.7"/>
					<rect x="629.8" y="604.2" width="8.8" height="6.7"/>
				</g>
				<g>
					<rect x="643.9" y="495.6" width="8.8" height="6.7"/>
					<rect x="643.9" y="506.5" width="8.8" height="6.7"/>
					<rect x="643.9" y="517.4" width="8.8" height="6.7"/>
					<rect x="643.9" y="473.9" width="8.8" height="6.7"/>
					<rect x="643.9" y="484.8" width="8.8" height="6.7"/>
					<rect x="643.9" y="528.2" width="8.8" height="6.7"/>
					<rect x="643.9" y="560.8" width="8.8" height="6.7"/>
					<rect x="643.9" y="571.6" width="8.8" height="6.7"/>
					<rect x="643.9" y="582.5" width="8.8" height="6.7"/>
					<polygon points="643.9,545.8 643.9,545.8 652.7,545.8 652.7,545.8 652.7,539.1 643.9,539.1 					"/>
					<rect x="643.9" y="549.9" width="8.8" height="6.7"/>
					<rect x="643.9" y="593.4" width="8.8" height="6.7"/>
					<rect x="643.9" y="604.2" width="8.8" height="6.7"/>
				</g>
				<g>
					<rect x="629.7" y="439" width="8.8" height="6.7"/>
					<rect x="629.7" y="449.9" width="8.8" height="6.7"/>
					<rect x="629.7" y="417.3" width="8.8" height="6.7"/>
					<rect x="629.7" y="428.2" width="8.8" height="6.7"/>
				</g>
				<g>
					<rect x="643.9" y="439" width="8.8" height="6.7"/>
					<rect x="643.9" y="449.9" width="8.8" height="6.7"/>
					<rect x="643.9" y="417.3" width="8.8" height="6.7"/>
					<rect x="643.9" y="428.2" width="8.8" height="6.7"/>
				</g>
				<g>
					<rect x="658" y="495.6" width="8.8" height="6.7"/>
					<rect x="658" y="506.5" width="8.8" height="6.7"/>
					<rect x="658" y="517.4" width="8.8" height="6.7"/>
					<rect x="658" y="473.9" width="8.8" height="6.7"/>
					<rect x="658" y="484.8" width="8.8" height="6.7"/>
					<rect x="658" y="528.2" width="8.8" height="6.7"/>
					<rect x="658" y="560.8" width="8.8" height="6.7"/>
					<rect x="658" y="571.6" width="8.8" height="6.7"/>
					<rect x="658" y="582.5" width="8.8" height="6.7"/>
					<polygon points="658,545.8 658,545.8 666.8,545.8 666.8,545.8 666.8,539.1 658,539.1 					"/>
					<rect x="658" y="549.9" width="8.8" height="6.7"/>
					<rect x="658" y="593.4" width="8.8" height="6.7"/>
					<rect x="658" y="604.2" width="8.8" height="6.7"/>
				</g>
				<g>
					<rect x="631.7" y="622.8" width="21" height="26.4"/>
				</g>
			</g>
		</g>
		<g>
			<polygon fill="#EE7922" points="517.7,382.8 517.7,348 474,356.5 474,391.3 463.1,393.4 463.1,538.2 528.6,538.2 528.6,380.6 			
				"/>
			<g opacity="0.2">
				<g>
					<rect x="485.4" y="514.3" width="21" height="23.9"/>
				</g>
				<g>
					<rect x="477.2" y="415.3" width="38.1" height="5.1"/>
					<rect x="477.2" y="423.5" width="38.1" height="5.1"/>
					<rect x="477.2" y="431.7" width="38.1" height="5.1"/>
					<rect x="477.2" y="398.8" width="38.1" height="5.1"/>
					<rect x="477.2" y="407.1" width="38.1" height="5.1"/>
					<rect x="477.2" y="439.9" width="38.1" height="5.1"/>
					<rect x="477.2" y="464.5" width="38.1" height="5.1"/>
					<rect x="477.2" y="472.7" width="38.1" height="5.1"/>
					<rect x="477.2" y="480.9" width="38.1" height="5.1"/>
					<polygon points="477.2,453.1 477.2,453.1 515.3,453.1 515.3,453.1 515.3,448.1 477.2,448.1 					"/>
					<rect x="477.2" y="456.3" width="38.1" height="5.1"/>
					<rect x="477.2" y="489.1" width="38.1" height="5.1"/>
					<rect x="477.2" y="497.3" width="38.1" height="5.1"/>
				</g>
				<g>
					<rect x="485.4" y="379.7" fill="#5E4130" width="23.1" height="5.1"/>
					<rect x="485.4" y="363.3" width="23.1" height="5.1"/>
					<rect x="485.4" y="371.5" width="23.1" height="5.1"/>
				</g>
			</g>
		</g>
		<g>
			<g>
				<g>
					<polygon fill="#EFA730" points="690.6,649.1 625.1,649.1 625.1,592.8 658.8,575 690.6,592.4 					"/>
				</g>
			</g>
			<g opacity="0.2">
				<g>
					<rect x="639.2" y="603.6" width="13.3" height="13.3"/>
					<rect x="663.2" y="603.6" width="13.3" height="13.3"/>
				</g>
				<g>
					<rect x="648.3" y="625.2" width="21" height="23.9"/>
				</g>
			</g>
		</g>
		<g>
			<g>
				<g>
					<g>
						<polygon fill="#5E4130" points="450,611.7 384.5,611.7 384.5,417.6 450,404.8 						"/>
					</g>
				</g>
			</g>
			<g>
				<g>
					<g>
						<polygon fill="#5E4130" points="441.8,515.3 393.2,515.3 393.2,371 441.8,361.5 						"/>
					</g>
				</g>
			</g>
			<g opacity="0.2">
				<g>
					<rect x="391.7" y="458.1" width="8.8" height="6.7"/>
					<rect x="391.7" y="469" width="8.8" height="6.7"/>
					<rect x="391.7" y="479.8" width="8.8" height="6.7"/>
					<rect x="391.7" y="436.4" width="8.8" height="6.7"/>
					<rect x="391.7" y="447.2" width="8.8" height="6.7"/>
					<rect x="391.7" y="490.7" width="8.8" height="6.7"/>
					<rect x="391.7" y="523.2" width="8.8" height="6.7"/>
					<rect x="391.7" y="534.1" width="8.8" height="6.7"/>
					<rect x="391.7" y="545" width="8.8" height="6.7"/>
					<polygon points="391.7,508.2 391.7,508.2 400.5,508.2 400.5,508.2 400.5,501.5 391.7,501.5 					"/>
					<rect x="391.7" y="512.4" width="8.8" height="6.7"/>
					<rect x="391.7" y="555.8" width="8.8" height="6.7"/>
					<rect x="391.7" y="566.7" width="8.8" height="6.7"/>
				</g>
				<g>
					<rect x="405.8" y="458.1" width="8.8" height="6.7"/>
					<rect x="405.8" y="469" width="8.8" height="6.7"/>
					<rect x="405.8" y="479.8" width="8.8" height="6.7"/>
					<rect x="405.8" y="436.4" width="8.8" height="6.7"/>
					<rect x="405.8" y="447.2" width="8.8" height="6.7"/>
					<rect x="405.8" y="490.7" width="8.8" height="6.7"/>
					<rect x="405.8" y="523.2" width="8.8" height="6.7"/>
					<rect x="405.8" y="534.1" width="8.8" height="6.7"/>
					<rect x="405.8" y="545" width="8.8" height="6.7"/>
					<polygon points="405.8,508.2 405.8,508.2 414.6,508.2 414.6,508.2 414.6,501.5 405.8,501.5 					"/>
					<rect x="405.8" y="512.4" width="8.8" height="6.7"/>
					<rect x="405.8" y="555.8" width="8.8" height="6.7"/>
					<rect x="405.8" y="566.7" width="8.8" height="6.7"/>
				</g>
				<g>
					<rect x="419.9" y="458.1" width="8.8" height="6.7"/>
					<rect x="419.9" y="469" width="8.8" height="6.7"/>
					<rect x="419.9" y="479.8" width="8.8" height="6.7"/>
					<rect x="419.9" y="436.4" width="8.8" height="6.7"/>
					<rect x="419.9" y="447.2" width="8.8" height="6.7"/>
					<rect x="419.9" y="490.7" width="8.8" height="6.7"/>
					<rect x="419.9" y="523.2" width="8.8" height="6.7"/>
					<rect x="419.9" y="534.1" width="8.8" height="6.7"/>
					<rect x="419.9" y="545" width="8.8" height="6.7"/>
					<polygon points="419.9,508.2 419.9,508.2 428.7,508.2 428.7,508.2 428.7,501.5 419.9,501.5 					"/>
					<rect x="419.9" y="512.4" width="8.8" height="6.7"/>
					<rect x="419.9" y="555.8" width="8.8" height="6.7"/>
					<rect x="419.9" y="566.7" width="8.8" height="6.7"/>
				</g>
				<g>
					<rect x="405.7" y="401.5" width="8.8" height="6.7"/>
					<rect x="405.7" y="412.4" width="8.8" height="6.7"/>
					<rect x="405.7" y="379.8" width="8.8" height="6.7"/>
					<rect x="405.7" y="390.6" width="8.8" height="6.7"/>
				</g>
				<g>
					<rect x="419.9" y="401.5" width="8.8" height="6.7"/>
					<rect x="419.9" y="412.4" width="8.8" height="6.7"/>
					<rect x="419.9" y="379.8" width="8.8" height="6.7"/>
					<rect x="419.9" y="390.6" width="8.8" height="6.7"/>
				</g>
				<g>
					<rect x="434" y="458.1" width="8.8" height="6.7"/>
					<rect x="434" y="469" width="8.8" height="6.7"/>
					<rect x="434" y="479.8" width="8.8" height="6.7"/>
					<rect x="434" y="436.4" width="8.8" height="6.7"/>
					<rect x="434" y="447.2" width="8.8" height="6.7"/>
					<rect x="434" y="490.7" width="8.8" height="6.7"/>
					<rect x="434" y="523.2" width="8.8" height="6.7"/>
					<rect x="434" y="534.1" width="8.8" height="6.7"/>
					<rect x="434" y="545" width="8.8" height="6.7"/>
					<polygon points="434,508.2 434,508.2 442.8,508.2 442.8,508.2 442.8,501.5 434,501.5 					"/>
					<rect x="434" y="512.4" width="8.8" height="6.7"/>
					<rect x="434" y="555.8" width="8.8" height="6.7"/>
					<rect x="434" y="566.7" width="8.8" height="6.7"/>
				</g>
				<g>
					<rect x="407.7" y="585.3" width="21" height="26.4"/>
				</g>
			</g>
		</g>
		<g>
			<polygon fill="#5E4130" points="225.4,443.9 225.4,399.1 176.7,408.6 176.7,453.5 168,455.2 168,649.2 233.5,649.2 233.5,442.4 
							"/>
			<g opacity="0.2">
				<g>
					<rect x="176.2" y="491.6" width="50.1" height="6.7"/>
					<rect x="176.2" y="502.5" width="50.1" height="6.7"/>
					<rect x="176.2" y="513.4" width="50.1" height="6.7"/>
					<rect x="176.2" y="469.9" width="50.1" height="6.7"/>
					<rect x="176.2" y="480.8" width="50.1" height="6.7"/>
					<rect x="176.2" y="524.2" width="50.1" height="6.7"/>
					<rect x="176.2" y="556.8" width="50.1" height="6.7"/>
					<rect x="176.2" y="567.6" width="50.1" height="6.7"/>
					<rect x="176.2" y="578.5" width="50.1" height="6.7"/>
					<polygon points="176.2,541.8 176.2,541.8 226.4,541.8 226.4,541.8 226.4,535.1 176.2,535.1 					"/>
					<rect x="176.2" y="545.9" width="50.1" height="6.7"/>
					<rect x="176.2" y="589.4" width="50.1" height="6.7"/>
					<rect x="176.2" y="600.2" width="50.1" height="6.7"/>
				</g>
				<g>
					<rect x="189.3" y="439" width="23.1" height="6.7"/>
					<rect x="189.3" y="449.9" width="23.1" height="6.7"/>
					<rect x="189.3" y="417.3" width="23.1" height="6.7"/>
					<rect x="189.3" y="428.2" width="23.1" height="6.7"/>
				</g>
				<g>
					<rect x="192.2" y="622.8" width="21" height="26.4"/>
				</g>
			</g>
		</g>
		<g>
			<g>
				<g>
					<g>
						<polygon fill="#5E4130" points="333.6,649.2 268.2,649.2 268.2,455.2 333.6,442.4 						"/>
					</g>
				</g>
			</g>
			<g opacity="0.2">
				<g>
					<rect x="282.6" y="482.4" width="38.1" height="5.1"/>
					<rect x="282.6" y="490.6" width="38.1" height="5.1"/>
					<rect x="282.6" y="498.8" width="38.1" height="5.1"/>
					<rect x="282.6" y="466" width="38.1" height="5.1"/>
					<rect x="282.6" y="474.2" width="38.1" height="5.1"/>
					<rect x="282.6" y="507" width="38.1" height="5.1"/>
					<rect x="282.6" y="531.6" width="38.1" height="5.1"/>
					<rect x="282.6" y="539.8" width="38.1" height="5.1"/>
					<rect x="282.6" y="548" width="38.1" height="5.1"/>
					<polygon points="282.6,520.2 282.6,520.2 320.7,520.2 320.7,520.2 320.7,515.2 282.6,515.2 					"/>
					<rect x="282.6" y="523.4" width="38.1" height="5.1"/>
					<rect x="282.6" y="556.2" width="38.1" height="5.1"/>
					<rect x="282.6" y="564.4" width="38.1" height="5.1"/>
				</g>
				<g>
					<rect x="282.6" y="572.6" width="38.1" height="5.1"/>
					<rect x="282.6" y="580.8" width="38.1" height="5.1"/>
					<rect x="282.6" y="589" width="38.1" height="5.1"/>
					<rect x="282.6" y="597.2" width="38.1" height="5.1"/>
					<rect x="282.6" y="605.4" width="38.1" height="5.1"/>
				</g>
				<g>
					<rect x="291.4" y="622.8" width="21" height="26.4"/>
				</g>
			</g>
		</g>
		<g>
			<polygon fill="#EE7922" points="292.2,649.2 226.7,649.2 226.7,504.4 292.2,491.6 			"/>
			<g opacity="0.2">
				<g>
					<rect x="240.8" y="517.2" width="13.4" height="13.3"/>
					<rect x="264.8" y="517.2" width="13.3" height="13.3"/>
				</g>
				<g>
					<rect x="240.8" y="538.8" width="13.4" height="13.3"/>
					<rect x="264.8" y="538.8" width="13.4" height="13.3"/>
				</g>
				<g>
					<rect x="240.8" y="560.5" width="13.4" height="13.3"/>
					<rect x="264.8" y="560.5" width="13.3" height="13.3"/>
				</g>
				<g>
					<rect x="240.8" y="582.1" width="13.4" height="13.4"/>
					<rect x="264.8" y="582.1" width="13.3" height="13.4"/>
				</g>
				<g>
					<rect x="240.8" y="603.7" width="13.4" height="13.4"/>
					<rect x="264.8" y="603.7" width="13.3" height="13.4"/>
				</g>
				<g>
					<rect x="249.9" y="625.3" width="21" height="23.9"/>
				</g>
			</g>
		</g>
		<g>
			<polygon fill="#5E4130" points="582.9,649.2 517.5,649.2 517.5,484.4 582.9,471.6 			"/>
			<g opacity="0.2">
				<g>
					<rect x="531.5" y="506.2" width="13.4" height="13.3"/>
					<rect x="555.5" y="506.2" width="13.3" height="13.3"/>
				</g>
				<g>
					<rect x="531.5" y="527.8" width="13.4" height="13.3"/>
					<rect x="555.5" y="527.8" width="13.4" height="13.3"/>
				</g>
				<g>
					<rect x="531.5" y="549.4" width="13.4" height="13.3"/>
					<rect x="555.5" y="549.4" width="13.3" height="13.3"/>
				</g>
				<g>
					<rect x="531.5" y="571.1" width="13.4" height="13.4"/>
					<rect x="555.5" y="571.1" width="13.3" height="13.4"/>
				</g>
				<g>
					<rect x="531.5" y="592.7" width="13.4" height="13.4"/>
					<rect x="555.5" y="592.7" width="13.3" height="13.4"/>
				</g>
				<g>
					<rect x="540.7" y="625.3" width="21" height="23.9"/>
				</g>
			</g>
		</g>
		<g>
			<polygon fill="#EE7922" points="409.9,649.2 344.4,649.2 344.4,484.4 409.9,471.6 			"/>
			<g opacity="0.2">
				<g>
					<rect x="358.4" y="506.2" width="13.4" height="13.3"/>
					<rect x="382.5" y="506.2" width="13.3" height="13.3"/>
				</g>
				<g>
					<rect x="358.4" y="527.8" width="13.4" height="13.3"/>
					<rect x="382.5" y="527.8" width="13.4" height="13.3"/>
				</g>
				<g>
					<rect x="358.4" y="549.5" width="13.4" height="13.3"/>
					<rect x="382.5" y="549.5" width="13.3" height="13.3"/>
				</g>
				<g>
					<rect x="358.4" y="571.1" width="13.4" height="13.4"/>
					<rect x="382.5" y="571.1" width="13.3" height="13.4"/>
				</g>
				<g>
					<rect x="358.4" y="592.7" width="13.4" height="13.4"/>
					<rect x="382.5" y="592.7" width="13.3" height="13.4"/>
				</g>
				<g>
					<rect x="367.6" y="625.3" width="21" height="23.9"/>
				</g>
			</g>
		</g>
		<g>
			<polygon fill="#5E4130" points="497.7,493.9 497.7,459.1 454,467.7 454,502.4 443.1,504.6 443.1,649.4 508.6,649.4 508.6,491.8 
							"/>
			<g opacity="0.2">
				<g>
					<rect x="465.4" y="625.5" width="21" height="23.9"/>
				</g>
				<g>
					<g>
						<rect x="453.5" y="538.4" width="19.2" height="6.7"/>
						<rect x="453.5" y="549.2" width="19.2" height="6.7"/>
						<rect x="453.5" y="560.1" width="19.2" height="6.7"/>
						<rect x="453.5" y="516.6" width="19.2" height="6.7"/>
						<rect x="453.5" y="527.5" width="19.2" height="6.7"/>
						<rect x="453.5" y="570.9" width="19.2" height="6.7"/>
						<rect x="453.5" y="603.5" width="19.2" height="6.7"/>
						<polygon points="453.5,588.5 453.5,588.5 472.7,588.5 472.7,588.5 472.7,581.8 453.5,581.8 						"/>
						<rect x="453.5" y="592.6" width="19.2" height="6.7"/>
					</g>
					<g>
						<rect x="479.7" y="538.4" width="19.2" height="6.7"/>
						<rect x="479.7" y="549.2" width="19.2" height="6.7"/>
						<rect x="479.7" y="560.1" width="19.2" height="6.7"/>
						<rect x="479.7" y="516.6" width="19.2" height="6.7"/>
						<rect x="479.7" y="527.5" width="19.2" height="6.7"/>
						<rect x="479.7" y="570.9" width="19.2" height="6.7"/>
						<rect x="479.7" y="603.5" width="19.2" height="6.7"/>
						<polygon points="479.7,588.5 479.7,588.5 498.9,588.5 498.9,588.5 498.9,581.8 479.7,581.8 						"/>
						<rect x="479.7" y="592.6" width="19.2" height="6.7"/>
					</g>
				</g>
			</g>
		</g>
		<g>
			<polygon fill="#EE7922" points="609.5,541.7 609.5,507 565.8,515.5 565.8,550.3 554.9,552.4 554.9,649.2 620.4,649.2 
				620.4,539.6 			"/>
			<g opacity="0.2">
				<g>
					<polygon points="599.9,649.2 575.3,649.2 575.3,625.3 599.9,625.3 					"/>
				</g>
				<g>
					<rect x="569.1" y="579.9" width="8.8" height="6.7"/>
					<rect x="569.1" y="590.7" width="8.8" height="6.7"/>
					<rect x="569.1" y="601.6" width="8.8" height="6.7"/>
					<rect x="569.1" y="558.2" width="8.8" height="6.7"/>
					<rect x="569.1" y="569" width="8.8" height="6.7"/>
					<rect x="569.1" y="612.4" width="8.8" height="6.7"/>
				</g>
				<g>
					<rect x="583.2" y="579.9" width="8.8" height="6.7"/>
					<rect x="583.2" y="590.7" width="8.8" height="6.7"/>
					<rect x="583.2" y="601.6" width="8.8" height="6.7"/>
					<rect x="583.2" y="558.2" width="8.8" height="6.7"/>
					<rect x="583.2" y="569" width="8.8" height="6.7"/>
					<rect x="583.2" y="612.4" width="8.8" height="6.7"/>
				</g>
				<g>
					<rect x="576.2" y="523" width="8.8" height="6.7"/>
					<rect x="576.2" y="533.8" width="8.8" height="6.7"/>
				</g>
				<g>
					<rect x="590.3" y="523" width="8.8" height="6.7"/>
					<rect x="590.3" y="533.8" width="8.8" height="6.7"/>
				</g>
				<g>
					<rect x="597.3" y="579.9" width="8.8" height="6.7"/>
					<rect x="597.3" y="590.7" width="8.8" height="6.7"/>
					<rect x="597.3" y="601.6" width="8.8" height="6.7"/>
					<rect x="597.3" y="558.2" width="8.8" height="6.7"/>
					<rect x="597.3" y="569" width="8.8" height="6.7"/>
					<rect x="597.3" y="612.4" width="8.8" height="6.7"/>
				</g>
			</g>
		</g>
		<g>
			<polygon fill="#EFA730" points="198.8,541.7 198.8,507 155.1,515.5 155.1,550.3 144.2,552.4 144.2,649.2 209.7,649.2 
				209.7,539.6 			"/>
			<g opacity="0.2">
				<g>
					<polygon points="189.3,649.2 164.7,649.2 164.7,625.3 189.3,625.3 					"/>
				</g>
				<g>
					<rect x="158.4" y="579.9" width="8.8" height="6.7"/>
					<rect x="158.4" y="590.7" width="8.8" height="6.7"/>
					<rect x="158.4" y="601.6" width="8.8" height="6.7"/>
					<rect x="158.4" y="558.2" width="8.8" height="6.7"/>
					<rect x="158.4" y="569" width="8.8" height="6.7"/>
					<rect x="158.4" y="612.4" width="8.8" height="6.7"/>
				</g>
				<g>
					<rect x="172.6" y="579.9" width="8.8" height="6.7"/>
					<rect x="172.6" y="590.7" width="8.8" height="6.7"/>
					<rect x="172.6" y="601.6" width="8.8" height="6.7"/>
					<rect x="172.6" y="558.2" width="8.8" height="6.7"/>
					<rect x="172.6" y="569" width="8.8" height="6.7"/>
					<rect x="172.6" y="612.4" width="8.8" height="6.7"/>
				</g>
				<g>
					<rect x="165.5" y="523" width="8.8" height="6.7"/>
					<rect x="165.5" y="533.8" width="8.8" height="6.7"/>
				</g>
				<g>
					<rect x="179.6" y="523" width="8.8" height="6.7"/>
					<rect x="179.6" y="533.8" width="8.8" height="6.7"/>
				</g>
				<g>
					<rect x="186.7" y="579.9" width="8.8" height="6.7"/>
					<rect x="186.7" y="590.7" width="8.8" height="6.7"/>
					<rect x="186.7" y="601.6" width="8.8" height="6.7"/>
					<rect x="186.7" y="558.2" width="8.8" height="6.7"/>
					<rect x="186.7" y="569" width="8.8" height="6.7"/>
					<rect x="186.7" y="612.4" width="8.8" height="6.7"/>
				</g>
			</g>
		</g>
		<g>
			<polygon fill="#EFA730" points="532.2,541.7 532.2,507 488.4,515.5 488.4,550.3 477.6,552.4 477.6,649.2 543,649.2 543,539.6 			
				"/>
			<g opacity="0.2">
				<g>
					<polygon points="522.6,649.2 498,649.2 498,625.3 522.6,625.3 					"/>
				</g>
				<g>
					<rect x="491.8" y="579.9" width="8.8" height="6.7"/>
					<rect x="491.8" y="590.7" width="8.8" height="6.7"/>
					<rect x="491.8" y="601.6" width="8.8" height="6.7"/>
					<rect x="491.8" y="558.2" width="8.8" height="6.7"/>
					<rect x="491.8" y="569" width="8.8" height="6.7"/>
					<rect x="491.8" y="612.4" width="8.8" height="6.7"/>
				</g>
				<g>
					<rect x="505.9" y="579.9" width="8.8" height="6.7"/>
					<rect x="505.9" y="590.7" width="8.8" height="6.7"/>
					<rect x="505.9" y="601.6" width="8.8" height="6.7"/>
					<rect x="505.9" y="558.2" width="8.8" height="6.7"/>
					<rect x="505.9" y="569" width="8.8" height="6.7"/>
					<rect x="505.9" y="612.4" width="8.8" height="6.7"/>
				</g>
				<g>
					<rect x="498.8" y="523" width="8.8" height="6.7"/>
					<rect x="498.8" y="533.8" width="8.8" height="6.7"/>
				</g>
				<g>
					<rect x="513" y="523" width="8.8" height="6.7"/>
					<rect x="513" y="533.8" width="8.8" height="6.7"/>
				</g>
				<g>
					<rect x="520" y="579.9" width="8.8" height="6.7"/>
					<rect x="520" y="590.7" width="8.8" height="6.7"/>
					<rect x="520" y="601.6" width="8.8" height="6.7"/>
					<rect x="520" y="558.2" width="8.8" height="6.7"/>
					<rect x="520" y="569" width="8.8" height="6.7"/>
					<rect x="520" y="612.4" width="8.8" height="6.7"/>
				</g>
			</g>
		</g>
		<g>
			<g>
				<g>
					<polygon fill="#EFA730" points="372.4,649.2 306.9,649.2 306.9,455.2 372.4,442.4 					"/>
				</g>
			</g>
			<g opacity="0.2">
				<g>
					<rect x="315.1" y="495.7" width="19.2" height="6.7"/>
					<rect x="315.1" y="506.5" width="19.2" height="6.7"/>
					<rect x="315.1" y="517.4" width="19.2" height="6.7"/>
					<rect x="315.1" y="474" width="19.2" height="6.7"/>
					<rect x="315.1" y="484.8" width="19.2" height="6.7"/>
					<rect x="315.1" y="528.2" width="19.2" height="6.7"/>
					<rect x="315.1" y="560.8" width="19.2" height="6.7"/>
					<rect x="315.1" y="571.7" width="19.2" height="6.7"/>
					<rect x="315.1" y="582.5" width="19.2" height="6.7"/>
					<polygon points="315.1,545.8 315.1,545.8 334.3,545.8 334.3,545.8 334.3,539.1 315.1,539.1 					"/>
					<rect x="315.1" y="549.9" width="19.2" height="6.7"/>
					<rect x="315.1" y="593.4" width="19.2" height="6.7"/>
					<rect x="315.1" y="604.2" width="19.2" height="6.7"/>
				</g>
				<g>
					<rect x="345.8" y="495.7" width="19.2" height="6.7"/>
					<rect x="345.8" y="506.5" width="19.2" height="6.7"/>
					<rect x="345.8" y="517.4" width="19.2" height="6.7"/>
					<rect x="345.8" y="474" width="19.2" height="6.7"/>
					<rect x="345.8" y="484.8" width="19.2" height="6.7"/>
					<rect x="345.8" y="528.2" width="19.2" height="6.7"/>
					<rect x="345.8" y="560.8" width="19.2" height="6.7"/>
					<rect x="345.8" y="571.7" width="19.2" height="6.7"/>
					<rect x="345.8" y="582.5" width="19.2" height="6.7"/>
					<polygon points="345.8,545.8 345.8,545.8 365,545.8 365,545.8 365,539.1 345.8,539.1 					"/>
					<rect x="345.8" y="549.9" width="19.2" height="6.7"/>
					<rect x="345.8" y="593.4" width="19.2" height="6.7"/>
					<rect x="345.8" y="604.2" width="19.2" height="6.7"/>
				</g>
				<g>
					<rect x="316.2" y="622.8" width="48.8" height="26.4"/>
				</g>
			</g>
		</g>
		<g>
			<g>
				<g>
					<polygon fill="#EFA730" points="460.4,649.2 394.9,649.2 394.9,455.2 460.4,442.4 					"/>
				</g>
			</g>
			<g opacity="0.2">
				<g>
					<rect x="403.1" y="495.7" width="19.2" height="6.7"/>
					<rect x="403.1" y="506.5" width="19.2" height="6.7"/>
					<rect x="403.1" y="517.4" width="19.2" height="6.7"/>
					<rect x="403.1" y="474" width="19.2" height="6.7"/>
					<rect x="403.1" y="484.8" width="19.2" height="6.7"/>
					<rect x="403.1" y="528.2" width="19.2" height="6.7"/>
					<rect x="403.1" y="560.8" width="19.2" height="6.7"/>
					<rect x="403.1" y="571.7" width="19.2" height="6.7"/>
					<rect x="403.1" y="582.5" width="19.2" height="6.7"/>
					<polygon points="403.1,545.8 403.1,545.8 422.3,545.8 422.3,545.8 422.3,539.1 403.1,539.1 					"/>
					<rect x="403.1" y="549.9" width="19.2" height="6.7"/>
					<rect x="403.1" y="593.4" width="19.2" height="6.7"/>
					<rect x="403.1" y="604.2" width="19.2" height="6.7"/>
				</g>
				<g>
					<rect x="433.8" y="495.7" width="19.2" height="6.7"/>
					<rect x="433.8" y="506.5" width="19.2" height="6.7"/>
					<rect x="433.8" y="517.4" width="19.2" height="6.7"/>
					<rect x="433.8" y="474" width="19.2" height="6.7"/>
					<rect x="433.8" y="484.8" width="19.2" height="6.7"/>
					<rect x="433.8" y="528.2" width="19.2" height="6.7"/>
					<rect x="433.8" y="560.8" width="19.2" height="6.7"/>
					<rect x="433.8" y="571.7" width="19.2" height="6.7"/>
					<rect x="433.8" y="582.5" width="19.2" height="6.7"/>
					<polygon points="433.8,545.8 433.8,545.8 453,545.8 453,545.8 453,539.1 433.8,539.1 					"/>
					<rect x="433.8" y="549.9" width="19.2" height="6.7"/>
					<rect x="433.8" y="593.4" width="19.2" height="6.7"/>
					<rect x="433.8" y="604.2" width="19.2" height="6.7"/>
				</g>
				<g>
					<rect x="404.3" y="622.8" width="48.8" height="26.4"/>
				</g>
			</g>
		</g>
	</g>
	<g>
		<path fill="#FFFFFF" d="M257.4,114.7c-12.9-4.2-28.4-6.7-29.1-6.8c-0.2,0-0.4,0-0.7,0c-0.7,0.1-16.2,2.5-29.1,6.8
			c-0.9,0.3-1.5,1.1-1.5,2c0,8.3,1.6,16.3,4.6,23.9c2.5,6.1,5.9,11.8,10.2,17.2c7.3,9.1,14.6,13.7,14.9,13.9
			c0.3,0.2,0.7,0.3,1.1,0.3c0.4,0,0.8-0.1,1.1-0.3c0.3-0.2,7.6-4.8,14.9-13.9c4.3-5.3,7.7-11.1,10.2-17.2c3.1-7.6,4.6-15.6,4.6-23.9
			C258.9,115.8,258.3,115,257.4,114.7z"/>
		<path fill="#5E4130" d="M228,176.5c-1.2,0-2.5-0.4-3.5-1c-0.8-0.5-8.3-5.4-16-14.9c-4.6-5.7-8.2-11.8-10.9-18.3
			c-3.3-8.1-5-16.7-5-25.6c0-2.9,1.8-5.4,4.6-6.3c13.3-4.3,29.1-6.8,29.8-6.9c0.7-0.1,1.4-0.1,2,0c0.7,0.1,16.5,2.6,29.8,6.9
			c2.7,0.9,4.6,3.4,4.6,6.3c0,8.9-1.7,17.5-5,25.6c-2.6,6.5-6.3,12.6-10.9,18.3c-7.7,9.5-15.2,14.3-16,14.9
			C230.5,176.1,229.2,176.5,228,176.5z M201.7,118.4c0.2,7.1,1.6,14,4.3,20.5c2.3,5.6,5.5,11,9.5,16c5.1,6.3,10.2,10.4,12.5,12
			c2.3-1.7,7.4-5.7,12.5-12c4-5,7.2-10.4,9.5-16c2.6-6.5,4.1-13.4,4.3-20.5c-11.3-3.5-24-5.6-26.3-6
			C225.7,112.8,212.9,114.9,201.7,118.4z"/>
	</g>
	<g>
		<ellipse fill="#88D0ED" cx="293.1" cy="214.9" rx="27.7" ry="20.8"/>
		<g>
			<circle fill="#EE7922" cx="279.2" cy="214.9" r="5.2"/>
			<circle fill="#EFA730" cx="293.1" cy="214.9" r="5.2"/>
			<circle fill="#5E4130" cx="306.9" cy="214.9" r="5.2"/>
			<path fill="#5E4130" d="M293.1,187.1c-19.2,0-34.7,12.4-34.7,27.7c0,10.3,7,19.2,17.3,24v10.7c0,3.8,1.9,4.5,4.3,1.5l7.3-8.9
				c1.9,0.3,3.8,0.4,5.8,0.4c19.2,0,34.7-12.4,34.7-27.7C327.8,199.5,312.2,187.1,293.1,187.1z M293.1,235.7
				c-15.3,0-27.7-9.3-27.7-20.8c0-11.5,12.4-20.8,27.7-20.8c15.3,0,27.7,9.3,27.7,20.8C320.8,226.3,308.4,235.7,293.1,235.7z"/>
		</g>
	</g>
	<g>
		<g>
			<path fill="#94D1EA" d="M320.1,114l25.4,20.2c1.2,0.9,2.7,1.3,4.3,1.2c1.5,0.1,3.1-0.3,4.3-1.2l25.4-20.2c2-1.6,1.6-2.9-1-2.9
				h-28.7h-28.7C318.6,111.1,318.1,112.4,320.1,114z"/>
			<path fill="#94D1EA" d="M378.3,121.8l-25,19c-0.9,0.7-2.2,1-3.4,1c-1.2,0-2.4-0.3-3.4-1l-25-19c-1.9-1.4-3.4-0.7-3.4,1.7v31.2
				c0,2.3,1.9,4.2,4.2,4.2h27.5h27.5c2.3,0,4.2-1.9,4.2-4.2v-31.2C381.6,121.1,380.1,120.4,378.3,121.8z"/>
		</g>
	</g>
	<path fill="#7DD3F4" d="M585.6,282.7C585.5,282.7,585.5,282.7,585.6,282.7c-0.7-10.3-9.3-18.5-19.8-18.5c-9.7,0-17.7,7-19.4,16.1
		c-0.2,0-0.4,0-0.7,0c-7.2,0-13.3,4.8-15.3,11.3c-0.3,0-0.6,0-0.9,0c-5.7,0-10.3,4.6-10.3,10.3c0,5.7,4.6,10.3,10.3,10.3
		c0.1,0,56.1,0,56.1,0c8.2,0,14.8-6.6,14.8-14.8C600.3,289.3,593.7,282.7,585.6,282.7z"/>
	<g>
		<g>
			<circle fill="#8CD6F2" cx="350.2" cy="320.3" r="8"/>
			<path fill="#8CD6F2" d="M369.2,301.2c-0.1-0.1-0.2-0.2-0.4-0.3l-0.4-0.3c-0.1-0.1-0.1-0.1-0.2-0.2c-10.3-9.3-26-9-35.8,0.8
				l-1.2,1.2l-1.6,1.6c-1.9,1.9-1.9,5.1,0,7c1.9,2,5.1,2,7,0l2.7-2.7c6.2-6.2,16.4-6.2,22.6,0l2,1.9c1.9,1.9,5.1,1.9,7,0
				c0.9-0.9,1.4-2.2,1.5-3.5c0-1.3-0.5-2.6-1.4-3.5L369.2,301.2z"/>
			<path fill="#8CD6F2" d="M382.7,291.4l-1.7-1.7c0,0,0,0,0,0l-1.3-1.3c-0.2-0.2-0.5-0.4-0.7-0.6c-16.8-14.7-42.3-14.3-58.5,1.3
				c-0.1,0.1-0.2,0.1-0.2,0.2l-3,3c-1.8,1.8-1.8,4.6,0,6.4c1.8,1.8,4.7,1.8,6.4,0l3-3c0,0,0,0,0.1-0.1c13.1-12.7,33.9-12.8,47.2-0.3
				l2.3,2.4c1.8,1.8,4.6,1.8,6.4,0C384.5,296,384.5,293.1,382.7,291.4z"/>
		</g>
	</g>
	<g>
		<path fill="#84D6F7" d="M688.8,326.5c0.1-0.6,0.2-1.3,0.2-2c0-6.3-5.1-11.5-11.5-11.5c-1.4,0-2.7,0.3-3.9,0.7
			c-3.7-5.8-10.2-9.6-17.6-9.6c-11.6,0-21,9.4-21,21c0,0.5,0,1.1,0.1,1.6c-5.6,1.4-9.8,6.5-9.8,12.5c0,7.1,5.8,12.9,12.9,12.9
			c0,0,12.2,0,13.8,0l0.1-10.4c0-5,4.1-9.1,9.1-9.1h0h0l3.6,0c2.4,0,4.7,1,6.5,2.7c1.7,1.7,2.7,4,2.7,6.5l-0.2,10.3h12.8
			c7.1,0,12.9-5.8,12.9-12.9C699.5,332.8,694.9,327.5,688.8,326.5z"/>
		<g>
			<g>
				<path fill="#5E4130" d="M660.8,372.5c0.5,0.5,1.4,0.8,2.2,0.8c0.8,0,1.7-0.3,2.2-0.8l16.6-16.8c0.8-0.8,1.1-2.1,0.6-3.1
					c-0.4-1.1-1.5-1.8-2.6-1.8l-5.4,0l0.1-14.5c0-2.4-1.9-4.3-4.3-4.3h-14.4c-2.4,0-4.3,1.9-4.3,4.3l0.1,14.5l-5.4,0
					c-1.2,0-2.2,0.7-2.7,1.8c-0.4,1.1-0.2,2.3,0.6,3.1L660.8,372.5z"/>
			</g>
		</g>
	</g>
	<g id="Icons">
	</g>
	<g>
		<path fill="#3C2415" d="M146.4,618.8c-0.1-0.5-0.5-0.8-1-0.8c-0.5,0-0.9,0.4-0.9,0.9c-0.3,6.9-1.5,25.7-3.6,29.3
			c-0.2,0.3-0.2,0.6,0,0.9c0.2,0.3,0.5,0.5,0.8,0.5h6.1c0.5,0,0.9-0.4,0.9-0.8C149.5,641.9,146.5,619.8,146.4,618.8z"/>
		<path fill="#52B74A" d="M157,596.9c-2.3-2.3-5.9-3.4-11-3.4c-5.1,0-8.7,1.1-11,3.4c-3.5,3.5-3.5,9.1-3.4,15.6c0,0.6,0,1.2,0,1.8
			c0,5.5,0,10.6,1.8,14.4c2,4.3,6,6.3,12.6,6.3c6.6,0,10.6-2,12.6-6.3c1.8-3.8,1.8-8.9,1.8-14.4c0-0.6,0-1.2,0-1.8
			C160.5,606,160.5,600.4,157,596.9z"/>
	</g>
	<g>
		<path fill="#3C2415" d="M302.5,619.7c-0.1-0.5-0.5-0.8-1-0.8c-0.5,0-0.9,0.4-0.9,0.9c-0.3,6.9-1.5,25.7-3.6,29.3
			c-0.2,0.3-0.2,0.6,0,0.9c0.2,0.3,0.5,0.5,0.8,0.5h6.1c0.5,0,0.9-0.4,0.9-0.8C305.6,642.7,302.6,620.6,302.5,619.7z"/>
		<path fill="#52B74A" d="M313.1,597.7c-2.3-2.3-5.9-3.4-11-3.4c-5.1,0-8.7,1.1-11,3.4c-3.5,3.5-3.5,9.1-3.4,15.6c0,0.6,0,1.2,0,1.8
			c0,5.5,0,10.6,1.8,14.4c2,4.3,6,6.3,12.6,6.3c6.6,0,10.6-2,12.6-6.3c1.8-3.8,1.8-8.9,1.8-14.4c0-0.6,0-1.2,0-1.8
			C316.5,606.8,316.6,601.2,313.1,597.7z"/>
	</g>
	<g>
		<path fill="#3C2415" d="M377.5,619.6c-0.1-0.5-0.5-0.8-1-0.8c-0.5,0-0.9,0.4-0.9,0.9c-0.3,6.9-1.5,25.7-3.6,29.3
			c-0.2,0.3-0.2,0.6,0,0.9c0.2,0.3,0.5,0.5,0.8,0.5h6.1c0.5,0,0.9-0.4,0.9-0.8C380.6,642.6,377.7,620.5,377.5,619.6z"/>
		<path fill="#52B74A" d="M388.1,597.7c-2.3-2.3-5.9-3.4-11-3.4c-5.1,0-8.7,1.1-11,3.4c-3.5,3.5-3.5,9.1-3.4,15.6c0,0.6,0,1.2,0,1.8
			c0,5.5,0,10.6,1.8,14.4c2,4.3,6,6.3,12.6,6.3c6.6,0,10.6-2,12.6-6.3c1.8-3.8,1.8-8.9,1.8-14.4c0-0.6,0-1.2,0-1.8
			C391.6,606.7,391.6,601.2,388.1,597.7z"/>
	</g>
	<g>
		<path fill="#3C2415" d="M209.1,618.6c-0.1-0.5-0.5-0.8-1-0.8c-0.5,0-0.9,0.4-0.9,0.9c-0.3,6.9-1.5,25.7-3.6,29.3
			c-0.2,0.3-0.2,0.6,0,0.9c0.2,0.3,0.5,0.5,0.8,0.5h6.1c0.5,0,0.9-0.4,0.9-0.8C212.2,641.6,209.2,619.5,209.1,618.6z"/>
		<path fill="#52B74A" d="M219.7,596.7c-2.3-2.3-5.9-3.4-11-3.4c-5.1,0-8.7,1.1-11,3.4c-3.5,3.5-3.5,9.1-3.4,15.6c0,0.6,0,1.2,0,1.8
			c0,5.5,0,10.6,1.8,14.4c2,4.3,6,6.3,12.6,6.3c6.6,0,10.6-2,12.6-6.3c1.8-3.8,1.8-8.9,1.8-14.4c0-0.6,0-1.2,0-1.8
			C223.1,605.7,223.2,600.2,219.7,596.7z"/>
	</g>
	<g>
		<path fill="#3C2415" d="M551.6,618.6c-0.1-0.5-0.5-0.8-1-0.8c-0.5,0-0.9,0.4-0.9,0.9c-0.3,6.9-1.5,25.7-3.6,29.3
			c-0.2,0.3-0.2,0.6,0,0.9c0.2,0.3,0.5,0.5,0.8,0.5h6.1c0.5,0,0.9-0.4,0.9-0.8C554.7,641.6,551.7,619.5,551.6,618.6z"/>
		<path fill="#52B74A" d="M562.1,596.7c-2.3-2.3-5.9-3.4-11-3.4c-5.1,0-8.7,1.1-11,3.4c-3.5,3.5-3.5,9.1-3.4,15.6c0,0.6,0,1.2,0,1.8
			c0,5.5,0,10.6,1.8,14.4c2,4.3,6,6.3,12.6,6.3c6.6,0,10.6-2,12.6-6.3c1.8-3.8,1.8-8.9,1.8-14.4c0-0.6,0-1.2,0-1.8
			C565.6,605.7,565.6,600.2,562.1,596.7z"/>
	</g>
	<g>
		<path fill="#3C2415" d="M624.3,619.4c-0.1-0.5-0.5-0.8-1-0.8c-0.5,0-0.9,0.4-0.9,0.9c-0.3,6.9-1.5,25.7-3.6,29.3
			c-0.2,0.3-0.2,0.6,0,0.9c0.2,0.3,0.5,0.5,0.8,0.5h6.1c0.5,0,0.9-0.4,0.9-0.8C627.4,642.4,624.4,620.3,624.3,619.4z"/>
		<path fill="#52B74A" d="M634.8,597.5c-2.3-2.3-5.9-3.4-11-3.4c-5.1,0-8.7,1.1-11,3.4c-3.5,3.5-3.5,9.1-3.4,15.6c0,0.6,0,1.2,0,1.8
			c0,5.5,0,10.6,1.8,14.4c2,4.3,6,6.3,12.6,6.3c6.6,0,10.6-2,12.6-6.3c1.8-3.8,1.8-8.9,1.8-14.4c0-0.6,0-1.2,0-1.8
			C638.3,606.6,638.3,601,634.8,597.5z"/>
	</g>
	<rect x="485.4" y="634.2" fill="#081928" width="3.9" height="15.5"/>
	<g>
		<rect x="536.2" y="634.2" fill="#081928" width="3.9" height="15.5"/>
		<rect x="568.9" y="634.2" fill="#081928" width="3.9" height="15.5"/>
	</g>
	<g>
		<rect x="361.7" y="633.7" fill="#081928" width="3.9" height="15.5"/>
		<rect x="394.3" y="633.7" fill="#081928" width="3.9" height="15.5"/>
	</g>
	<g>
		<rect x="278.1" y="633.7" fill="#081928" width="3.9" height="15.5"/>
		<rect x="310.8" y="633.7" fill="#081928" width="3.9" height="15.5"/>
	</g>
	<g>
		<rect x="196.4" y="633.7" fill="#081928" width="3.9" height="15.5"/>
		<rect x="229" y="633.7" fill="#081928" width="3.9" height="15.5"/>
	</g>
	<g>
		<rect x="155.2" y="633.7" fill="#081928" width="3.9" height="15.5"/>
	</g>
	<rect x="637.2" y="634.2" fill="#081928" width="3.9" height="15.5"/>
	<rect x="683.3" y="633.6" fill="#081928" width="3.9" height="15.5"/>
	<rect x="455.8" y="634.2" fill="#081928" width="3.9" height="15.5"/>
	<g>
		
			<rect x="654" y="227.8" transform="matrix(0.9514 -0.3079 0.3079 0.9514 -40.3121 213.3917)" fill="#E6A123" width="4.2" height="13.2"/>
		<g>
			<circle fill="#FFFFFF" cx="648.3" cy="208.8" r="19.2"/>
			<path fill="#5E4130" d="M637.7,229.4c-5.5-2.8-9.6-7.6-11.5-13.5c-3.9-12.1,2.8-25.2,14.9-29.1c5.9-1.9,12.1-1.4,17.6,1.4
				c5.5,2.8,9.6,7.6,11.5,13.5c3.9,12.1-2.8,25.2-14.9,29.1C649.5,232.7,643.2,232.2,637.7,229.4z M655.2,195.3
				c-3.6-1.9-7.7-2.2-11.6-0.9c-8,2.6-12.4,11.2-9.8,19.2c1.3,3.9,3.9,7,7.6,8.9c3.6,1.9,7.8,2.2,11.6,0.9c8-2.6,12.4-11.2,9.8-19.2
				C661.5,200.3,658.8,197.1,655.2,195.3z"/>
		</g>
		<path fill="#5E4130" d="M669.6,259.2c1.5,4.8-8.2,7-9.5,3.1c-1.3-4-7.7-22.6-7.7-22.6l9.5-3.1
			C661.9,236.6,668.3,255.1,669.6,259.2z"/>
	</g>
	<g>
		<g>
			<g>
				<g>
					<g>
						<g id="Facebook_Places_10_">
							<g>
								<path fill="#EE7922" d="M628.8,100.4c-0.3-1.1-0.9-2.3-1.3-3.3c-5.3-12.6-16.7-17.2-26-17.2c-12.4,0-26.1,8.3-27.9,25.5v3.5
									c0,0.1,0.1,1.5,0.1,2.1c1,8.2,7.5,16.9,12.3,25c5.2,8.8,10.6,17.4,15.9,26c3.3-5.6,6.6-11.3,9.8-16.8
									c0.9-1.6,1.9-3.2,2.8-4.7c0.6-1,1.7-2,2.2-3c5.2-9.5,13.5-19,13.5-28.5v-3.9C630.1,104.2,628.8,100.6,628.8,100.4z
									 M601.7,117.9c-3.6,0-7.6-1.8-9.6-6.9c-0.3-0.8-0.3-2.4-0.3-2.6v-2.3c0-6.4,5.5-9.3,10.2-9.3c5.8,0,10.4,4.7,10.4,10.5
									C612.3,113.3,607.5,117.9,601.7,117.9z"/>
							</g>
						</g>
					</g>
				</g>
			</g>
		</g>
		<path fill="#FFFFFF" d="M601.7,117.9c-3.6,0-7.6-1.8-9.6-6.9c-0.3-0.8-0.3-2.4-0.3-2.6v-2.3c0-6.4,5.5-9.3,10.2-9.3
			c5.8,0,10.4,4.7,10.4,10.5C612.3,113.3,607.5,117.9,601.7,117.9z"/>
	</g>
	<g>
		<g>
			<g>
				<path fill="#5E4130" d="M455,94.1h-31c-3,0-5.4,2.4-5.4,5.4v62.9c0,3,2.4,5.4,5.4,5.4h31c3,0,5.4-2.4,5.4-5.4V99.4
					C460.3,96.5,457.9,94.1,455,94.1z M431.9,97.3h15.3c0.4,0,0.7,0.6,0.7,1.3c0,0.7-0.3,1.3-0.7,1.3h-15.3c-0.4,0-0.7-0.6-0.7-1.3
					C431.2,97.9,431.5,97.3,431.9,97.3z M439.5,162.4c-1.9,0-3.4-1.5-3.4-3.4s1.5-3.4,3.4-3.4c1.9,0,3.4,1.5,3.4,3.4
					S441.4,162.4,439.5,162.4z M456.3,150.7h-33.7v-47.5h33.7V150.7L456.3,150.7z"/>
			</g>
		</g>
		<polygon fill="#FFFFFF" points="456.3,150.7 422.7,150.7 422.7,103.1 456.3,103.1 456.3,150.7 		"/>
		<g>
			<path fill="#FFFFFF" d="M431.9,97.3h15.3c0.4,0,0.7,0.6,0.7,1.3c0,0.7-0.3,1.3-0.7,1.3h-15.3c-0.4,0-0.7-0.6-0.7-1.3
				C431.2,97.9,431.5,97.3,431.9,97.3z"/>
			<path fill="#FFFFFF" d="M439.5,162.4c-1.9,0-3.4-1.5-3.4-3.4s1.5-3.4,3.4-3.4c1.9,0,3.4,1.5,3.4,3.4S441.4,162.4,439.5,162.4z"/>
		</g>
	</g>
	<g>
		<path fill="#5E4130" d="M454.1,282.9h-21.7c-1.6,0-2.9,1.3-2.9,2.9c0,1.6,1.3,2.9,2.9,2.9h21.7c1.6,0,2.9-1.3,2.9-2.9
			C457,284.2,455.7,282.9,454.1,282.9z"/>
		<path fill="#5E4130" d="M437.5,295.3v1.6c0,1.8,1.5,3.3,3.3,3.3h4.9c1.8,0,3.3-1.5,3.3-3.3v-1.6c3.7-0.3,6.6-3.3,6.6-7.1h-24.6
			C430.9,292,433.9,295,437.5,295.3z"/>
		<path fill="#EFA730" d="M442.8,228.5c-14.6,0-26.4,11.8-26.4,26.4c0,6.1,2.1,11.8,5.6,16.3c3.1,4,6.1,8.3,8.6,12.6h24.2
			c2.6-4.4,5.5-8.6,8.6-12.6c3.5-4.5,5.6-10.1,5.6-16.3C469.2,240.3,457.4,228.5,442.8,228.5z"/>
	</g>
	<g>
		<g>
			<g>
				<path fill="#5E4130" d="M129,266.4c0,0.4,0,0.9,0,1.1c0,0.2,0.1,0.3,0.3,0.3c0.2,0,0.6,0,1.1,0h5.2c0.4,0,0.9,0,1.1,0
					c0.2,0,0.3-0.1,0.3-0.3c0-0.2,0-0.6,0-1.1v-3c0-0.4,0.3-0.9,0.7-1l1.2-0.5c0.4-0.2,1-0.1,1.3,0.2l2.1,2.1
					c0.3,0.3,0.6,0.6,0.8,0.8c0.1,0.1,0.3,0.1,0.4,0s0.5-0.5,0.8-0.8l3.7-3.7c0.3-0.3,0.6-0.6,0.8-0.8c0.1-0.1,0.1-0.3,0-0.4
					c-0.1-0.1-0.5-0.5-0.8-0.8l-2.2-2.2c-0.3-0.3-0.4-0.9-0.2-1.3l0.4-1.1c0.1-0.4,0.6-0.7,1-0.7h3c0.4,0,0.9,0,1.1,0
					c0.2,0,0.3-0.1,0.3-0.3c0-0.2,0-0.6,0-1.1v-5.2c0-0.4,0-0.9,0-1.1c0-0.2-0.1-0.3-0.3-0.3c-0.2,0-0.6,0-1.1,0h-3
					c-0.4,0-0.9-0.3-1-0.7l-0.4-1c-0.2-0.4-0.1-1,0.2-1.3l2.1-2.1c0.3-0.3,0.6-0.6,0.8-0.8c0.1-0.1,0.1-0.3,0-0.4
					c-0.1-0.1-0.5-0.5-0.8-0.8l-3.7-3.7c-0.3-0.3-0.6-0.6-0.8-0.8c-0.1-0.1-0.3-0.1-0.4,0c-0.1,0.1-0.5,0.5-0.8,0.8l-2,2
					c-0.3,0.3-0.9,0.4-1.3,0.2l-1.2-0.5c-0.4-0.1-0.7-0.6-0.7-1v-2.9c0-0.4,0-0.9,0-1.1c0-0.2-0.1-0.3-0.3-0.3c-0.2,0-0.6,0-1.1,0
					h-5.2c-0.4,0-0.9,0-1.1,0c-0.2,0-0.3,0.1-0.3,0.3c0,0.2,0,0.6,0,1.1v2.8c0,0.4-0.3,0.9-0.7,1l-1.4,0.6c-0.4,0.2-0.9,0.1-1.3-0.2
					l-2-2c-0.3-0.3-0.6-0.6-0.8-0.8c-0.1-0.1-0.3-0.1-0.4,0c-0.1,0.1-0.5,0.5-0.8,0.8l-3.7,3.7c-0.3,0.3-0.6,0.6-0.8,0.8
					c-0.1,0.1-0.1,0.3,0,0.4c0.1,0.1,0.5,0.5,0.8,0.8l2.1,2.1c0.3,0.3,0.4,0.9,0.2,1.3l-0.5,1.1c-0.1,0.4-0.6,0.7-1,0.7h-2.9
					c-0.4,0-0.9,0-1.1,0c-0.2,0-0.3,0.1-0.3,0.3c0,0.2,0,0.6,0,1.1v5.2c0,0.4,0,0.9,0,1.1c0,0.2,0.1,0.3,0.3,0.3c0.2,0,0.6,0,1.1,0
					h3c0.4,0,0.9,0.3,1,0.7l0.4,0.9c0.2,0.4,0.1,1-0.2,1.3l-2.1,2.2c-0.3,0.3-0.6,0.6-0.8,0.8s-0.1,0.3,0,0.4
					c0.1,0.1,0.5,0.5,0.8,0.8l3.7,3.7c0.3,0.3,0.6,0.6,0.8,0.8c0.1,0.1,0.3,0.1,0.4,0c0.1-0.1,0.5-0.5,0.8-0.8l2.1-2.1
					c0.3-0.3,0.9-0.4,1.3-0.2l1,0.4c0.4,0.1,0.7,0.6,0.7,1V266.4z M133,257.6c-4.5,0-8.2-3.7-8.2-8.2c0-4.5,3.7-8.2,8.2-8.2
					c4.5,0,8.2,3.7,8.2,8.2C141.2,253.9,137.5,257.6,133,257.6z"/>
			</g>
			<g>
				<path fill="#5E4130" d="M152.4,231.2c0,0.6,0,1.2,0,1.5c0,0.2,0.2,0.4,0.4,0.4c0.2,0,0.9,0,1.5,0h7.1c0.6,0,1.2,0,1.5,0
					c0.2,0,0.4-0.2,0.4-0.4c0-0.2,0-0.9,0-1.5v-4.1c0-0.6,0.5-1.2,1-1.4l1.7-0.7c0.5-0.3,1.3-0.1,1.7,0.3l2.9,2.9
					c0.4,0.4,0.9,0.9,1,1c0.2,0.2,0.4,0.2,0.6,0c0.2-0.2,0.6-0.6,1-1l5-5c0.4-0.4,0.9-0.9,1-1c0.2-0.2,0.2-0.4,0-0.6
					c-0.2-0.2-0.6-0.6-1-1l-2.9-2.9c-0.4-0.4-0.5-1.2-0.3-1.7l0.6-1.5c0.2-0.6,0.8-1,1.4-1h4c0.6,0,1.2,0,1.5,0
					c0.2,0,0.4-0.2,0.4-0.4c0-0.2,0-0.9,0-1.5v-7.1c0-0.6,0-1.2,0-1.5c0-0.2-0.2-0.4-0.4-0.4c-0.2,0-0.9,0-1.5,0h-4
					c-0.6,0-1.2-0.5-1.4-1l-0.5-1.3c-0.2-0.5-0.1-1.3,0.3-1.7l2.8-2.8c0.4-0.4,0.9-0.9,1-1c0.2-0.2,0.2-0.4,0-0.6
					c-0.2-0.2-0.6-0.6-1-1l-5-5c-0.4-0.4-0.9-0.9-1-1c-0.2-0.2-0.4-0.2-0.6,0c-0.2,0.2-0.6,0.6-1,1l-2.7,2.7
					c-0.4,0.4-1.2,0.5-1.7,0.3l-1.6-0.7c-0.5-0.2-1-0.8-1-1.4v-3.9c0-0.6,0-1.2,0-1.5c0-0.2-0.2-0.4-0.4-0.4c-0.2,0-0.9,0-1.5,0
					h-7.1c-0.6,0-1.2,0-1.5,0c-0.2,0-0.4,0.2-0.4,0.4c0,0.2,0,0.9,0,1.5v3.9c0,0.6-0.5,1.2-1,1.4l-1.8,0.8c-0.5,0.3-1.3,0.1-1.7-0.3
					l-2.7-2.7c-0.4-0.4-0.9-0.9-1-1c-0.2-0.2-0.4-0.2-0.6,0c-0.2,0.2-0.6,0.6-1,1l-5,5c-0.4,0.4-0.9,0.9-1,1c-0.2,0.2-0.2,0.4,0,0.6
					c0.2,0.2,0.6,0.6,1,1l2.8,2.8c0.4,0.4,0.6,1.2,0.3,1.7l-0.6,1.6c-0.2,0.6-0.8,1-1.4,1h-4c-0.6,0-1.2,0-1.5,0
					c-0.2,0-0.4,0.2-0.4,0.4c0,0.2,0,0.9,0,1.5v7.1c0,0.6,0,1.2,0,1.5c0,0.2,0.2,0.4,0.4,0.4c0.2,0,0.9,0,1.5,0h4.1
					c0.6,0,1.2,0.4,1.4,1l0.5,1.2c0.3,0.5,0.1,1.3-0.3,1.7l-2.9,2.9c-0.4,0.4-0.9,0.9-1,1c-0.2,0.2-0.2,0.4,0,0.6
					c0.2,0.2,0.6,0.6,1,1l5,5c0.4,0.4,0.9,0.9,1,1c0.2,0.2,0.4,0.2,0.6,0c0.2-0.2,0.6-0.6,1-1l2.9-2.9c0.4-0.4,1.2-0.5,1.7-0.3
					l1.4,0.6c0.5,0.2,1,0.8,1,1.4V231.2z M157.9,219.2c-6.2,0-11.2-5-11.2-11.2c0-6.2,5-11.2,11.2-11.2c6.2,0,11.2,5,11.2,11.2
					C169,214.2,164,219.2,157.9,219.2z"/>
			</g>
			<g>
				<path fill="#5E4130" d="M175.6,288.2c0,0.4,0,1,0,1.2s0.2,0.4,0.4,0.4c0.2,0,0.8,0,1.2,0h8.6c0.4,0,1,0,1.2,0
					c0.2,0,0.4-0.2,0.4-0.4s0-0.8,0-1.2v-5.3c0-0.4,0.3-0.9,0.7-1l2.6-1.1c0.4-0.2,1-0.1,1.3,0.2l3.8,3.8c0.3,0.3,0.7,0.7,0.9,0.9
					c0.2,0.2,0.4,0.2,0.6,0c0.2-0.2,0.6-0.6,0.9-0.9l6.1-6c0.3-0.3,0.7-0.7,0.9-0.9c0.2-0.2,0.2-0.4,0-0.6c-0.2-0.2-0.6-0.6-0.9-0.9
					l-3.8-3.8c-0.3-0.3-0.4-0.9-0.2-1.3l1-2.3c0.1-0.4,0.6-0.7,1-0.7h5.2c0.4,0,1,0,1.2,0c0.2,0,0.4-0.2,0.4-0.4c0-0.2,0-0.8,0-1.2
					V258c0-0.4,0-1,0-1.2s-0.2-0.4-0.4-0.4c-0.2,0-0.8,0-1.2,0h-5.2c-0.4,0-0.9-0.3-1-0.7l-0.9-2.1c-0.2-0.4-0.1-1,0.2-1.3l3.7-3.7
					c0.3-0.3,0.7-0.7,0.9-0.9c0.2-0.2,0.2-0.4,0-0.6c-0.2-0.2-0.6-0.6-0.9-0.9l-6.1-6.1c-0.3-0.3-0.7-0.7-0.9-0.9
					c-0.2-0.2-0.4-0.2-0.6,0c-0.2,0.2-0.6,0.6-0.9,0.9l-3.6,3.6c-0.3,0.3-0.9,0.4-1.3,0.2l-2.5-1.1c-0.4-0.1-0.7-0.6-0.7-1v-5.1
					c0-0.4,0-1,0-1.2c0-0.2-0.2-0.4-0.4-0.4c-0.2,0-0.8,0-1.2,0h-8.6c-0.4,0-1,0-1.2,0s-0.4,0.2-0.4,0.4c0,0.2,0,0.8,0,1.2v5
					c0,0.4-0.3,0.9-0.7,1l-2.7,1.1c-0.4,0.2-0.9,0.1-1.3-0.2l-3.6-3.6c-0.3-0.3-0.7-0.7-0.9-0.9c-0.2-0.2-0.4-0.2-0.6,0
					c-0.2,0.2-0.6,0.6-0.9,0.9l-6,6.1c-0.3,0.3-0.7,0.7-0.9,0.9c-0.2,0.2-0.2,0.4,0,0.6c0.2,0.2,0.6,0.6,0.9,0.9l3.7,3.7
					c0.3,0.3,0.4,0.9,0.2,1.3l-1,2.4c-0.1,0.4-0.6,0.7-1,0.7H156c-0.4,0-1,0-1.2,0c-0.2,0-0.4,0.2-0.4,0.4s0,0.8,0,1.2v8.6
					c0,0.4,0,1,0,1.2c0,0.2,0.2,0.4,0.4,0.4c0.2,0,0.8,0,1.2,0h5.3c0.4,0,0.9,0.3,1,0.7l0.9,2.1c0.2,0.4,0.1,1-0.2,1.3l-3.8,3.8
					c-0.3,0.3-0.7,0.7-0.9,0.9c-0.2,0.2-0.2,0.4,0,0.6c0.2,0.2,0.6,0.6,0.9,0.9l6.1,6c0.3,0.3,0.7,0.7,0.9,0.9
					c0.2,0.2,0.4,0.2,0.6,0c0.2-0.2,0.6-0.6,0.9-0.9l3.8-3.8c0.3-0.3,0.9-0.4,1.3-0.2l2.3,1c0.4,0.1,0.7,0.6,0.7,1V288.2z
					 M181.7,274.6c-6.8,0-12.3-5.5-12.3-12.3c0-6.8,5.5-12.3,12.3-12.3c6.8,0,12.3,5.5,12.3,12.3C194,269.1,188.5,274.6,181.7,274.6
					z"/>
			</g>
		</g>
		<path fill="#FFFFFF" d="M157.9,220.7c-7,0-12.7-5.7-12.7-12.7c0-7,5.7-12.7,12.7-12.7c7,0,12.7,5.7,12.7,12.7
			C170.5,215,164.9,220.7,157.9,220.7z M157.9,198.4c-5.3,0-9.7,4.3-9.7,9.7c0,5.3,4.3,9.7,9.7,9.7c5.3,0,9.7-4.3,9.7-9.7
			C167.5,202.7,163.2,198.4,157.9,198.4z"/>
		<path fill="#FFFFFF" d="M181.7,276.1c-7.6,0-13.8-6.2-13.8-13.8c0-7.6,6.2-13.8,13.8-13.8s13.8,6.2,13.8,13.8
			C195.5,269.9,189.3,276.1,181.7,276.1z M181.7,251.5c-5.9,0-10.8,4.8-10.8,10.8c0,5.9,4.8,10.8,10.8,10.8
			c5.9,0,10.8-4.8,10.8-10.8C192.5,256.4,187.6,251.5,181.7,251.5z"/>
		<path fill="#FFFFFF" d="M133,259.1c-5.3,0-9.7-4.3-9.7-9.7c0-5.3,4.3-9.7,9.7-9.7c5.3,0,9.7,4.3,9.7,9.7
			C142.7,254.8,138.4,259.1,133,259.1z M133,242.7c-3.7,0-6.7,3-6.7,6.7c0,3.7,3,6.7,6.7,6.7c3.7,0,6.7-3,6.7-6.7
			C139.7,245.7,136.7,242.7,133,242.7z"/>
	</g>
	<g>
		<path fill="#5E4130" d="M557,150.2h-41.8l-3.4,0c-0.6,0-1.1,0.5-1.1,1.1v35c0,0.6,0.5,1.1,1.1,1.1H557c0.6,0,1.1-0.5,1.1-1.1v-35
			C558.2,150.7,557.7,150.2,557,150.2z M540.4,177.6l0.4,1.4h-12.6l0.4-1.4l2-7.6c-1.5-1.2-2.5-3-2.5-5c0-3.5,2.8-6.4,6.4-6.4
			c3.5,0,6.4,2.8,6.4,6.4c0,2-0.9,3.8-2.5,5L540.4,177.6z M520.5,145.2c0-7.8,6.3-14.1,14-14.1c7.7,0,14,6.3,14,14.1v6.2h3.6v-6.6
			c0-4.6-1.8-9-5.1-12.2c-3.3-3.3-7.6-5.1-12.2-5.1h-0.5c-4.6,0-9,1.8-12.2,5.1c-3.3,3.3-5.1,7.6-5.1,12.2v6.6l3.6,0V145.2
			L520.5,145.2z"/>
		<path fill="#FFFFFF" d="M540.4,177.6l0.4,1.4h-12.6l0.4-1.4l2-7.6c-1.5-1.2-2.5-3-2.5-5c0-3.5,2.8-6.4,6.4-6.4
			c3.5,0,6.4,2.8,6.4,6.4c0,2-0.9,3.8-2.5,5L540.4,177.6z"/>
	</g>
	<g>
		<circle fill="#E6A123" cx="225.4" cy="345.6" r="22.8"/>
		<g>
			<path fill="#FFFFFF" d="M226.7,333.8c-0.3-0.3-0.8-0.5-1.3-0.5c-0.4,0-1,0.2-1.3,0.5l-9.9,9.9c-0.5,0.5-0.6,1.2-0.4,1.9
				c0.3,0.6,0.9,1,1.6,1l3.2,0l0,8.6c0,1.4,1.1,2.5,2.5,2.5h8.5c1.4,0,2.5-1.1,2.5-2.5l0-8.6l3.2,0c0.7,0,1.3-0.4,1.6-1
				c0.3-0.6,0.1-1.4-0.4-1.9L226.7,333.8z"/>
		</g>
	</g>
</g>
</svg>
