<svg viewBox="0 0 750 750" width="100%" height="100%" xmlns="http://www.w3.org/2000/svg" xmlns:xlink="http://www.w3.org/1999/xlink">
      <g id="product-d8dacea7-ff07-4363-9677-86be56147084">
        <g id="0eyBBBtBz0VRNHUc5w7ufC" title="" comp_guid="product-28f0b2cb-dcbf-407d-b5d1-7a617a1f8a4c-body">
            <path style="stroke:black; fill:none;" d="M417.239,37.8273 A72.911,72.911 1.54195 0,0 355.411,1.40972e-10 L355.411,68.6743 L491.418,68.6743 L491.418,2.27374e-10 A72.911,72.911 2.64006 0,0 429.589,37.8273 L417.239,37.8273"/>
        </g>
        <g id="3iAWGGdhzDhuyOoHrrxpOb" title="9.KRS" comp_guid="product-ec2a0410-9ebf-4daf-8f18-c91d75ef3625-body">
            <path style="stroke:black; fill:none;" d="M492.119,452.859 L492.119,379.948 L538.389,379.948 L538.389,452.859 L492.119,452.859"/>
        </g>
        <g id="3CqTe_MxjCTByVU0IF4r$O" title="9.KRS" comp_guid="product-ccd1da3e-5bbb-4c74-bf1f-78048f135fd8-body">
            <path style="stroke:black; fill:none;" d="M650.56,323.863 L650.56,273.386 L696.831,273.386 L696.831,323.863 L650.56,323.863"/>
            <path style="stroke:black; fill:none;" d="M696.27,292.175 L696.27,273.947 L678.042,273.947 L678.042,292.175 L696.27,292.175"/>
        </g>
        <g id="38cxjG6rz6ahZWCE4jfU0u" title="" comp_guid="product-c89bbb50-1b5f-4692-b8e0-30e12da5e038-body">
            <path style="stroke:black; fill:none;" d="M710.852,121.114 L710.852,72.0394 L900,72.0394 L900,121.114 L710.852,121.114"/>
        </g>
        <g id="21R7ZxS117VAQpvDd91fqQ" title="" comp_guid="product-816c78fb-7010-477c-a6b3-e4d9c9069d1a-body">
            <path style="stroke:black; fill:none;" d="M557.453,37.8273 A72.911,72.911 1.54195 0,0 495.624,0 L495.624,68.6743 L706.524,68.6743 A72.911,72.911 2.64006 0,0 569.803,37.8273 L557.453,37.8273"/>
        </g>
        <g id="03jDn8pK1FGOoiPDAVN1OQ" title="" comp_guid="product-03b4dc48-cd40-4f41-8cac-64d29f5c161a-body">
            <path style="stroke:black; fill:none;" d="M0.456641,221.507 A72.911,72.911 -2.07233 0,0 37.8273,277.026 L37.8273,289.376 A72.911,72.911 -1.62852 0,0 68.6743,426.097 L68.6743,221.507 L0.456641,221.507"/>
        </g>
        <g id="33af2lL8P1mvVhvSZdNaL3" title="" comp_guid="product-c39290af-5486-41c3-97eb-e5c8e75e4543-body">
            <path style="stroke:black; fill:none;" d="M136.812,37.8273 A72.911,72.911 -2.07233 1,0 37.8273,136.812 L37.8273,149.162 A72.911,72.911 -3.08387 0,0 0.0910995,217.301 L68.6743,217.301 L68.6743,68.6743 L351.204,68.6743 L351.204,8.90395e-10 A72.911,72.911 2.64006 0,0 289.376,37.8273 L277.026,37.8273 A72.911,72.911 1.54195 0,0 215.197,1.58843e-09 A72.911,72.911 2.64006 0,0 149.162,37.8273 L136.812,37.8273"/>
        </g>
        <g id="0gJ57iAb15VuFekfjMhxgH" title="A095" comp_guid="product-2a4c51ec-2a50-457f-83e8-ba9b56afba91-body">
            <path style="stroke:black; fill:none;" d="M702.439,135.135 L890.325,135.135 L890.325,374.34 L736.09,374.34 L736.09,335.08 L753.477,335.08 L753.477,323.863 L702.439,323.863 L702.439,135.135"/>
            <path style="stroke:black; fill:none;" d="M713.095,248.877 L703.168,248.877 L703.168,258.804 L713.095,258.804 L713.095,248.877"/>
            <path style="stroke:black; fill:none;" d="M889.764,323.302 L889.764,313.487 L872.939,313.487 L872.939,323.302 L889.764,323.302"/>
        </g>
        <g id="0VVx4j2SPBAv5nfNuPZ1Wo" title="9.KRS" comp_guid="product-1f7fb12d-09c6-4b2b-9171-a57e198c1832-body">
            <path style="stroke:black; fill:none;" d="M315.45,335.08 L375.742,335.08 L375.742,329.471 L509.505,329.471 L509.505,335.08 L562.787,335.08 L562.787,329.471 L703,329.471 L703,335.08 L730.482,335.08 L730.482,406.084 L689.82,406.084 L689.82,374.34 L538.389,374.34 L538.389,379.948 L492.119,379.948 L492.119,374.34 L273.386,374.34 L273.386,305.635 L315.45,305.635 L315.45,335.08"/>
        </g>
        <g id="00OXwrNsj73Bp6oCmuXjH4" title="A094" comp_guid="product-00621eb5-5f6b-470c-bcc6-c8cc3886d444-body">
            <path style="stroke:black; fill:none;" d="M508.945,82.6956 L696.831,82.6956 L696.831,267.777 L644.952,267.777 L644.952,323.863 L508.945,323.863 L508.945,82.6956"/>
            <path style="stroke:black; fill:none;" d="M573.443,260.206 L573.443,251.793 L565.03,251.793 L565.03,260.206 L573.443,260.206"/>
            <path style="stroke:black; fill:none;" d="M696.27,257.402 L679.444,257.402 L679.444,267.217 L696.27,267.217 L696.27,257.402"/>
        </g>
        <g id="1sTUtwbFPDXQksT7UMiZiR" title="A092" comp_guid="product-7675edfa-94f6-4d85-abb6-747796b23b1b-body">
            <path style="stroke:black; fill:none;" d="M82.6956,250.952 L82.6956,82.6956 L377.144,82.6956 L377.144,323.863 L321.059,323.863 L321.059,300.027 L273.386,300.027 L273.386,250.952 L82.6956,250.952"/>
            <path style="stroke:black; fill:none;" d="M179.443,241.978 L179.443,250.391 L187.856,250.391 L187.856,241.978 L179.443,241.978"/>
            <path style="stroke:black; fill:none;" d="M321.059,251.793 L312.646,251.793 L312.646,260.206 L321.059,260.206 L321.059,251.793"/>
        </g>
        <g id="10Ql$UOfT9$veuYmtDmHWb" title="9.KRS" comp_guid="product-406affde-6297-49ff-9a38-8b0dcdc11825-body">
            <path style="stroke:black; fill:none;" d="M346.297,452.859 L346.297,379.948 L486.51,379.948 L486.51,452.859 L346.297,452.859"/>
        </g>
        <g id="0HzvDpLKnEKwNW9SzOWjlF" title="A093" comp_guid="product-11f79373-554c-4e53-a5e0-25cf5882dbcf-body">
            <path style="stroke:black; fill:none;" d="M382.752,323.863 L382.752,82.6956 L503.336,82.6956 L503.336,323.863 L382.752,323.863"/>
            <path style="stroke:black; fill:none;" d="M383.313,243.941 L383.313,253.756 L400.139,253.756 L400.139,243.941 L383.313,243.941"/>
            <path style="stroke:black; fill:none;" d="M502.607,290.885 L502.607,280.957 L492.68,280.957 L492.68,290.885 L502.607,290.885"/>
        </g>
        <g id="16BQIWUxz2AxIkj$9ta5ra" title="9.KRS" comp_guid="product-462da4a0-7bbf-422b-b4ae-b7f277905d64-body">
            <path style="stroke:black; fill:none;" d="M689.82,408.355 L730.482,408.355 L730.482,452.859 L689.82,452.859 L689.82,408.355"/>
        </g>
        <g id="3dgAJaDwD8EhFRdKKhxnPM" title="A091" comp_guid="product-e7a8a4e4-37a3-483a-b3db-9d452bef1656-body">
            <path style="stroke:black; fill:none;" d="M82.6956,256.56 L267.777,256.56 L267.777,444.446 L82.6956,444.446 L82.6956,256.56"/>
            <path style="stroke:black; fill:none;" d="M192.791,257.289 L192.791,267.217 L202.718,267.217 L202.718,257.289 L192.791,257.289"/>
            <path style="stroke:black; fill:none;" d="M267.217,427.06 L257.402,427.06 L257.402,443.886 L267.217,443.886 L267.217,427.06"/>
        </g>
        <g id="1RGrpbR3rF4QjM_UunlWkg" title="" comp_guid="product-5b435ce5-6c3d-4f11-ab56-f9ee31be0baa-body">
            <path style="stroke:black; fill:none;" d="M644.952,270.357 L644.952,323.863 L612.478,323.863 L612.478,270.357 L644.952,270.357"/>
        </g>
        <g id="2HgdORkwj9BPYhIXsFIqNN" title="9.KRS" comp_guid="product-91aa761b-bbab-492d-98ab-4a1d8f4b45d7-body">
            <path style="stroke:black; fill:none;" d="M543.998,452.859 L543.998,379.948 L684.211,379.948 L684.211,452.859 L543.998,452.859"/>
        </g>
        <g id="2gP_X_lccoTY6SOqEXrRi7" title="" comp_guid="product-aa67e87e-be69-b276-219c-6343a1d5bb07-body">
            <path style="stroke:black; fill:none;" d="M321.059,175.237 L321.059,209.112 L291.389,209.112 L291.389,175.237 L321.059,175.237"/>
        </g>
        <g id="3dpeaWSnjaz157rFcm73vI" title="" comp_guid="product-e7ce8920-731b-64f4-1147-d4f9b01c3e52-body">
            <path style="stroke:black; fill:none;" d="M438.445,226.723 L500.924,226.723 L500.924,280.957 L492.68,280.957 L492.68,289.202 L438.445,289.202 L438.445,226.723"/>
        </g>
        <g id="0wHQFdDncv76Kkf6yJD6qk" title="" comp_guid="product-3a45a3e7-3719-b91c-652e-a46f13346d2e-body">
            <path style="stroke:black; fill:none;" d="M400.139,243.941 L436.034,243.941 L436.034,323.863 L382.752,323.863 L382.752,253.756 L400.139,253.756 L400.139,243.941"/>
        </g>
        <g id="2F2iecPrEssUp6rri39PH8" title="" comp_guid="product-8f0aca26-6753-b6d9-ecc6-d75b03259448-body">
            <path style="stroke:black; fill:none;" d="M503.336,224.311 L438.614,224.311 L438.614,190.66 L436.034,190.66 L436.034,152.802 L382.752,152.802 L382.752,82.6956 L400.349,82.6956 L400.349,76.5262 L428.953,76.5262 L428.953,82.6956 L503.336,82.6956 L503.336,224.311"/>
        </g>
        <g id="1UjpfA36UEfLxQB9DC1xun" title="" comp_guid="product-5eb73a4a-0c67-8ea5-5eda-2c934c07be31-body">
            <path style="stroke:black; fill:none;" d="M454.037,291.614 L503.336,291.614 L503.336,323.863 L438.614,323.863 L438.614,295.147 L454.037,295.147 L454.037,291.614"/>
        </g>
        <g id="3kKxF7c2PC6j6teVBROuNL" title="" comp_guid="product-ee53b3c7-9826-4c1a-d1b7-a1f2db6385d5-body">
            <path style="stroke:black; fill:none;" d="M436.034,152.802 L436.034,243.941 L382.752,243.941 L382.752,152.802 L436.034,152.802"/>
        </g>
        <g id="2LE$M7SQa_tqq7TK4PlAoP" title="" comp_guid="product-953bf587-71a9-3edf-4d07-754119bcac99-body">
            <path style="stroke:black; fill:none;" d="M511.356,321.451 L511.356,235.528 L562.618,235.528 L562.618,321.451 L511.356,321.451"/>
        </g>
        <g id="1qlDTj_XFb4sGHr8682S3b" title="" comp_guid="product-74bcd76d-fa13-e513-6411-d4818809c0e5-body">
            <path style="stroke:black; fill:none;" d="M513.039,196.156 L560.936,196.156 L560.936,234.967 L513.039,234.967 L513.039,196.156"/>
        </g>
        <g id="2KfqjDMLhizQn99K5riONa" title="" comp_guid="product-94a74b4d-595a-ecf5-ac49-254175b185e4-body">
            <path style="stroke:black; fill:none;" d="M679.444,267.777 L613.432,267.777 L613.432,249.55 L609.898,249.55 L609.898,186.454 L696.831,186.454 L696.831,257.402 L679.444,257.402 L679.444,267.777"/>
        </g>
        <g id="06tyIXoWqKhZ0Rhc78F4ea" title="" comp_guid="product-06dfc4a1-ca0d-14ae-301b-ae61c83c4a24-body">
            <path style="stroke:black; fill:none;" d="M696.831,82.6956 L696.831,186.454 L609.898,186.454 L609.898,194.642 L595.877,194.642 L595.877,82.6956 L602.257,82.6956 L602.257,76.5262 L630.86,76.5262 L630.86,82.6956 L696.831,82.6956"/>
        </g>
        <g id="0TmIlwM49xLrVRNJy8LTUg" title="" comp_guid="product-1dc12bfa-5842-7b57-57db-5d3f0855d7aa-body">
            <path style="stroke:black; fill:none;" d="M609.898,323.863 L565.03,323.863 L565.03,260.206 L573.443,260.206 L573.443,251.793 L565.03,251.793 L565.03,194.642 L609.898,194.642 L609.898,323.863"/>
        </g>
        <g id="0CITkzfPY0EBj9$JYHRRmW" title="" comp_guid="product-0c49dbbd-a598-8038-bb49-fd38916dbc20-body">
            <path style="stroke:black; fill:none;" d="M508.945,82.6956 L593.297,82.6956 L593.297,192.062 L508.945,192.062 L508.945,82.6956"/>
        </g>
        <g id="0ufBTnXqE$Qg_ZxTQpA$Os" title="" comp_guid="product-38a4b771-8743-bf6a-afa3-edd6b32bf636-body">
            <path style="stroke:black; fill:none;" d="M179.443,250.952 L82.6956,250.952 L82.6956,178.321 L185.276,178.321 L185.276,241.978 L179.443,241.978 L179.443,250.952"/>
        </g>
        <g id="0_gLeY6Xrv9kFgOI8$jACx" title="" comp_guid="product-3ea95a22-1a1d-7926-e3ea-61223fb4a33b-body">
            <path style="stroke:black; fill:none;" d="M82.6956,82.6956 L138.851,82.6956 L138.851,76.5262 L167.455,76.5262 L167.455,82.6956 L187.856,82.6956 L187.856,116.627 L185.276,116.627 L185.276,175.741 L82.6956,175.741 L82.6956,82.6956"/>
        </g>
        <g id="3D$$lpd5KARmqLl1mYEXeH" title="" comp_guid="product-cdfffbf3-9c55-0a6f-0d15-bc1c223a1a11-body">
            <path style="stroke:black; fill:none;" d="M213.318,214.272 L213.318,250.952 L187.856,250.952 L187.856,214.272 L213.318,214.272"/>
        </g>
        <g id="0McdP74QdoRalLWvG_8m7e" title="" comp_guid="product-169a7647-11a9-f26e-4bd5-83943e2301e8-body">
            <path style="stroke:black; fill:none;" d="M374.732,235.528 L374.732,321.451 L323.47,321.451 L323.47,235.528 L374.732,235.528"/>
        </g>
        <g id="1mczhp7e6GoONM_Y$8L9Xq" title="" comp_guid="product-709bdaf3-1e81-90c9-85d6-fa2fc8549874-body">
            <path style="stroke:black; fill:none;" d="M192.062,256.56 L192.062,340.913 L82.6956,340.913 L82.6956,256.56 L192.062,256.56"/>
        </g>
        <g id="09FzNkUC_fC_QDH0oGuM0M" title="" comp_guid="product-093fd5ee-78cf-a933-e68d-440c90e16016-body">
            <path style="stroke:black; fill:none;" d="M82.6956,343.493 L186.454,343.493 L186.454,444.446 L82.6956,444.446 L82.6956,374.27 L76.5262,374.27 L76.5262,345.666 L82.6956,345.666 L82.6956,343.493"/>
        </g>
        <g id="0RJSG5Ar5bxOS_LYRt0dRJ" title="" comp_guid="product-1b4dc405-2b51-65ed-873e-5626f70276d3-body">
            <path style="stroke:black; fill:none;" d="M321.059,211.692 L321.059,251.793 L312.646,251.793 L312.646,260.206 L321.059,260.206 L321.059,323.863 L320.498,323.863 L320.498,300.027 L273.386,300.027 L273.386,250.952 L260.767,250.952 L260.767,211.692 L321.059,211.692"/>
        </g>
        <g id="0NbxWMciWOUZnUWXHJpF5b" title="" comp_guid="product-1797b816-9ac8-187a-3c5e-821453ccf165-body">
            <path style="stroke:black; fill:none;" d="M265.366,258.972 L265.366,310.234 L194.474,310.234 L194.474,267.217 L202.718,267.217 L202.718,258.972 L265.366,258.972"/>
        </g>
        <g id="3KrDvY2ky3uMfn9rwTrrWx" title="" comp_guid="product-d4d4de62-0aef-03e1-6a71-275e9dd7583b-body">
            <path style="stroke:black; fill:none;" d="M267.777,371.535 L186.454,371.535 L186.454,343.493 L214.496,343.493 L214.496,340.913 L194.642,340.913 L194.642,312.646 L267.777,312.646 L267.777,371.535"/>
        </g>
        <g id="0brkUIUjC3sVzG41XFUE2V" title="" comp_guid="product-25d6e792-7ad3-03d9-ff50-10184f78e09f-body">
            <path style="stroke:black; fill:none;" d="M267.777,427.06 L257.402,427.06 L257.402,444.446 L186.454,444.446 L186.454,371.535 L249.55,371.535 L249.55,374.115 L251.513,374.115 L251.513,375.069 L267.777,375.069 L267.777,427.06"/>
        </g>
        <g id="1$b3pIrzTAPtAGgrR6vQZp" title="" comp_guid="product-7f943cd2-d7d7-4a67-7290-ab56c6e5a8f3-body">
            <path style="stroke:black; fill:none;" d="M291.389,82.6956 L377.144,82.6956 L377.144,192.062 L321.059,192.062 L321.059,175.237 L291.389,175.237 L291.389,82.6956"/>
        </g>
        <g id="0hgeCDM2jnY9MeNDCYwgbi" title="" comp_guid="product-2baa830d-582b-7188-95a8-5cd322eaa96c-body">
            <path style="stroke:black; fill:none;" d="M258.187,214.272 L258.187,250.952 L215.898,250.952 L215.898,214.272 L258.187,214.272"/>
        </g>
        <g id="1GcFW8lCz6W3lzx7jErLyv" title="" comp_guid="product-5098f808-bccf-4680-3bfd-ec7b4ed55f39-body">
            <path style="stroke:black; fill:none;" d="M325.153,196.156 L373.05,196.156 L373.05,234.967 L325.153,234.967 L325.153,196.156"/>
        </g>
        <g id="0MgF87bgkrX6D2qkSVVcXG" title="" comp_guid="product-16a8f207-96ab-b584-6342-d2e71f7e6850-body">
            <path style="stroke:black; fill:none;" d="M288.809,82.6956 L288.809,211.692 L187.856,211.692 L187.856,82.6956 L288.809,82.6956"/>
        </g>
        <g id="1OqwmbhhEYS9IyLigYU4GO" title="" comp_guid="product-58d3ac25-aeb3-a270-94bc-56caa2784418-body">
            <path style="stroke:black; fill:none;" d="M756.113,250.559 L756.113,321.451 L704.851,321.451 L704.851,258.804 L713.095,258.804 L713.095,250.559 L756.113,250.559"/>
        </g>
        <g id="2m9m8ZZ84GTds_HPsnOxQh" title="" comp_guid="product-b0270223-8c81-1076-7dbe-459db163b6ab-body">
            <path style="stroke:black; fill:none;" d="M702.439,135.135 L786.792,135.135 L786.792,248.148 L702.439,248.148 L702.439,135.135"/>
        </g>
        <g id="00HTT_6MyQ1N1nwjr5n23q" title="" comp_guid="product-0045d77e-196f-1a05-7071-eadd45c420f4-body">
            <path style="stroke:black; fill:none;" d="M789.372,374.34 L736.09,374.34 L736.09,335.08 L753.477,335.08 L753.477,323.863 L758.525,323.863 L758.525,313.824 L786.792,313.824 L786.792,335.08 L789.372,335.08 L789.372,374.34"/>
        </g>
        <g id="1mS_bMBdum7Ckn1Dj8ofx7" title="" comp_guid="product-7073e956-2e7e-301c-cbb1-04db48ca9ec7-body">
            <path style="stroke:black; fill:none;" d="M890.325,248.148 L789.372,248.148 L789.372,135.135 L890.325,135.135 L890.325,248.148"/>
        </g>
        <g id="1VYgzpeJ5NOXspYftmglOb" title="" comp_guid="product-5f8aaf73-a131-5762-1db3-8a9df0aaf625-body">
            <path style="stroke:black; fill:none;" d="M758.525,250.727 L786.792,250.727 L786.792,270.582 L789.372,270.582 L789.372,248.148 L872.098,248.148 L872.098,250.727 L890.325,250.727 L890.325,313.487 L873.5,313.487 L873.5,323.302 L890.325,323.302 L890.325,374.34 L789.372,374.34 L789.372,311.244 L758.525,311.244 L758.525,250.727"/>
        </g>
    </g>
</svg>
