<svg viewBox="0 0 750 750" width="100%" height="100%" xmlns="http://www.w3.org/2000/svg" xmlns:xlink="http://www.w3.org/1999/xlink">
      <g id="product-c833cab1-b922-47bd-a097-8bd6a3a58f38">
        <g id="08jI$mxfX31w6h$zReLsfL" title="10.KRS" comp_guid="product-08b52ff0-ee98-4307-a1ab-ffd6e8576a55-body">
            <path style="stroke:black; fill:none;" d="M492.119,452.859 L492.119,379.948 L538.389,379.948 L538.389,452.859 L492.119,452.859"/>
        </g>
        <g id="1KeE8MizP6J8V71fyQZ0SF" title="10.KRS" comp_guid="product-54a0e216-b3d6-464c-87c7-069f1a8c070f-body">
            <path style="stroke:black; fill:none;" d="M543.998,452.859 L543.998,379.948 L684.211,379.948 L684.211,452.859 L543.998,452.859"/>
        </g>
        <g id="2RCQD$ctf6eucHLOleL9OY" title="A104" comp_guid="product-9b31a37f-9b7a-46a3-8991-558be8549622-body">
            <path style="stroke:black; fill:none;" d="M508.945,323.863 L508.945,82.6956 L696.831,82.6956 L696.831,267.777 L644.952,267.777 L644.952,273.386 L696.831,273.386 L696.831,323.863 L508.945,323.863"/>
            <path style="stroke:black; fill:none;" d="M573.443,260.206 L573.443,251.793 L565.03,251.793 L565.03,260.206 L573.443,260.206"/>
            <path style="stroke:black; fill:none;" d="M696.27,273.947 L665.423,273.947 L665.423,292.175 L696.27,292.175 L696.27,273.947"/>
            <path style="stroke:black; fill:none;" d="M696.27,257.402 L679.444,257.402 L679.444,267.217 L696.27,267.217 L696.27,257.402"/>
        </g>
        <g id="1$pu2mvjbEJveghRaVCQyC" title="" comp_guid="product-7fcf80b0-e6d9-4e4f-9a2a-adb91f31af0c-body">
            <path style="stroke:black; fill:none;" d="M710.852,121.114 L710.852,72.0394 L900,72.0394 L900,121.114 L710.852,121.114"/>
        </g>
        <g id="1T3G5vtDb5mAtl1x3bt81b" title="A101" comp_guid="product-5d0d0179-dcd9-45c0-adef-07b0e5dc8065-body">
            <path style="stroke:black; fill:none;" d="M267.777,444.446 L82.6956,444.446 L82.6956,332.276 L192.062,332.276 L192.062,256.56 L267.777,256.56 L267.777,444.446"/>
            <path style="stroke:black; fill:none;" d="M202.718,257.289 L192.791,257.289 L192.791,267.217 L202.718,267.217 L202.718,257.289"/>
            <path style="stroke:black; fill:none;" d="M267.217,427.06 L257.402,427.06 L257.402,443.886 L267.217,443.886 L267.217,427.06"/>
        </g>
        <g id="0pgU4c5fP35ADOaePkFcKX" title="A105" comp_guid="product-33a9e126-1696-4314-a358-92866e3e6521-body">
            <path style="stroke:black; fill:none;" d="M702.439,135.135 L890.325,135.135 L890.325,374.34 L736.09,374.34 L736.09,335.08 L753.477,335.08 L753.477,323.863 L702.439,323.863 L702.439,135.135"/>
            <path style="stroke:black; fill:none;" d="M713.095,248.877 L703.168,248.877 L703.168,258.804 L713.095,258.804 L713.095,248.877"/>
            <path style="stroke:black; fill:none;" d="M889.764,323.302 L889.764,313.487 L872.939,313.487 L872.939,323.302 L889.764,323.302"/>
        </g>
        <g id="1PgSjk$Vn2jhPL6CPVppgo" title="10.KRS" comp_guid="product-59a9cb6e-fdfc-42b6-b655-18c65fcf3ab2-body">
            <path style="stroke:black; fill:none;" d="M315.45,335.08 L375.742,335.08 L375.742,329.471 L509.505,329.471 L509.505,335.08 L562.787,335.08 L562.787,329.471 L703,329.471 L703,335.08 L730.482,335.08 L730.482,406.084 L689.82,406.084 L689.82,374.34 L538.389,374.34 L538.389,379.948 L492.119,379.948 L492.119,374.34 L273.386,374.34 L273.386,305.635 L315.45,305.635 L315.45,335.08"/>
        </g>
        <g id="2PRnOMh811oucn9n4C__qt" title="A102" comp_guid="product-996f1616-ac80-41cb-89b1-27110cfbed37-body">
            <path style="stroke:black; fill:none;" d="M151.4,250.952 L82.6956,250.952 L82.6956,82.6956 L377.144,82.6956 L377.144,323.863 L321.059,323.863 L321.059,300.027 L273.386,300.027 L273.386,250.952 L151.681,250.952 L151.681,256.56 L186.454,256.56 L186.454,326.667 L82.6956,326.667 L82.6956,256.56 L151.4,256.56 L151.4,250.952"/>
            <path style="stroke:black; fill:none;" d="M187.856,250.391 L187.856,241.978 L179.443,241.978 L179.443,250.391 L187.856,250.391"/>
            <path style="stroke:black; fill:none;" d="M321.059,251.793 L312.646,251.793 L312.646,260.206 L321.059,260.206 L321.059,251.793"/>
        </g>
        <g id="154_VjaGj2iPZjYdPQT$Tu" title="" comp_guid="product-4513e7ed-910b-42b1-98ed-8a765a77f778-body">
            <path style="stroke:black; fill:none;" d="M0,355.411 A72.911,72.911 -1.62852 0,0 68.6743,426.097 L68.6743,343.493 L12.5889,343.493 L12.5889,353.308 L8.38247,353.308 L8.38247,355.411 L8.52651e-11,355.411"/>
        </g>
        <g id="26nixuff19Avrfl6QHhpdC" title="" comp_guid="product-86c6cef8-a690-492b-9d69-bc6691af39cc-body">
            <path style="stroke:black; fill:none;" d="M417.239,37.8273 A72.911,72.911 1.54195 0,0 355.411,1.40972e-10 L355.411,68.6743 L491.418,68.6743 L491.418,2.27374e-10 A72.911,72.911 2.64006 0,0 429.589,37.8273 L417.239,37.8273"/>
        </g>
        <g id="3PC7UI1cb3YRnTiMn2uFYr" title="" comp_guid="product-d9307792-0669-4389-bc5d-b16c42e0f8b5-body">
            <path style="stroke:black; fill:none;" d="M557.453,37.8273 A72.911,72.911 1.54195 0,0 495.624,0 L495.624,68.6743 L706.524,68.6743 A72.911,72.911 2.64006 0,0 569.803,37.8273 L557.453,37.8273"/>
        </g>
        <g id="2g25nsP9f5i9rt5eXbIwSg" title="" comp_guid="product-aa085c76-649a-45b0-9d77-1688654ba72a-body">
            <path style="stroke:black; fill:none;" d="M136.812,37.8273 A72.911,72.911 -2.07233 1,0 37.8273,136.812 L37.8273,149.162 A72.911,72.911 -2.07233 0,0 37.8273,277.026 L37.8273,289.376 A72.9108,72.9108 3.11274 0,0 6.3962e-05,351.204 L8.38247,351.204 L8.38247,339.286 L68.6743,339.286 L68.6743,68.6743 L351.204,68.6743 L351.204,8.90395e-10 A72.911,72.911 2.64006 0,0 289.376,37.8273 L277.026,37.8273 A72.911,72.911 1.54195 0,0 215.197,1.58843e-09 A72.911,72.911 2.64006 0,0 149.162,37.8273 L136.812,37.8273"/>
        </g>
        <g id="1zTSwjamL4KQLrOM2kMHfa" title="" comp_guid="product-7d75cead-9305-4451-a575-6160ae591a64-body">
            <path style="stroke:black; fill:none;" d="M612.478,323.863 L612.478,270.357 L644.952,270.357 L644.952,273.386 L696.831,273.386 L696.831,323.863 L612.478,323.863"/>
            <path style="stroke:black; fill:none;" d="M696.27,273.947 L678.042,273.947 L678.042,292.175 L696.27,292.175 L696.27,273.947"/>
        </g>
        <g id="22WtIwDqX9NfBAmTD3CuLd" title="10.KRS" comp_guid="product-828374ba-3748-495e-92ca-c1d343338567-body">
            <path style="stroke:black; fill:none;" d="M346.297,452.859 L346.297,379.948 L486.51,379.948 L486.51,452.859 L346.297,452.859"/>
        </g>
        <g id="1$9VIVLBf2DvjIEcRw15_J" title="A103" comp_guid="product-7f25f49f-54ba-4237-9b52-3a66fa045f93-body">
            <path style="stroke:black; fill:none;" d="M382.752,323.863 L382.752,82.6956 L503.336,82.6956 L503.336,323.863 L382.752,323.863"/>
            <path style="stroke:black; fill:none;" d="M383.313,243.941 L383.313,253.756 L400.139,253.756 L400.139,243.941 L383.313,243.941"/>
            <path style="stroke:black; fill:none;" d="M502.607,290.885 L502.607,280.957 L492.68,280.957 L492.68,290.885 L502.607,290.885"/>
        </g>
        <g id="37AAstGpbCsQI1CJ9KsBWK" title="10.KRS" comp_guid="product-c728adb7-4339-4cd9-a481-313254d8b814-body">
            <path style="stroke:black; fill:none;" d="M689.82,408.355 L730.482,408.355 L730.482,452.859 L689.82,452.859 L689.82,408.355"/>
        </g>
        <g id="0O2LWDOGGSuxVkmLXQw15C" title="" comp_guid="product-1809580d-6104-1ce3-b7ee-c1585ae8114c-body">
            <path style="stroke:black; fill:none;" d="M82.6956,332.276 L186.454,332.276 L186.454,444.446 L82.6956,444.446 L82.6956,374.27 L76.5262,374.27 L76.5262,345.666 L82.6956,345.666 L82.6956,332.276"/>
        </g>
        <g id="0iUUPjqTQ3uXvyA4KSoDQB" title="" comp_guid="product-2c79e66d-d1d6-83e2-1e7c-28451cc8d68b-body">
            <path style="stroke:black; fill:none;" d="M679.444,267.777 L613.432,267.777 L613.432,249.55 L609.898,249.55 L609.898,186.454 L696.831,186.454 L696.831,257.402 L679.444,257.402 L679.444,267.777"/>
        </g>
        <g id="3DsRYTp0_rXvhYIyl6TJ9k" title="" comp_guid="product-cdd9b89d-cc0f-b587-9ae2-4bcbc675326e-body">
            <path style="stroke:black; fill:none;" d="M696.831,82.6956 L696.831,186.454 L609.898,186.454 L609.898,194.642 L595.877,194.642 L595.877,82.6956 L602.257,82.6956 L602.257,76.5262 L630.86,76.5262 L630.86,82.6956 L696.831,82.6956"/>
        </g>
        <g id="2AqqCXVKUyp6RHBK80eW8Y" title="" comp_guid="product-8ad34321-7d47-bccc-66d1-2d4200a20222-body">
            <path style="stroke:black; fill:none;" d="M609.898,323.863 L565.03,323.863 L565.03,260.206 L573.443,260.206 L573.443,251.793 L565.03,251.793 L565.03,194.642 L609.898,194.642 L609.898,323.863"/>
        </g>
        <g id="2Jfg9pCMyHAQ6Wu0PMARg4" title="" comp_guid="product-93a6a273-316f-1129-a1a0-e0065629ba84-body">
            <path style="stroke:black; fill:none;" d="M508.945,82.6956 L593.297,82.6956 L593.297,192.062 L508.945,192.062 L508.945,82.6956"/>
        </g>
        <g id="1bc95H46E45PR3t9U80jdO" title="" comp_guid="product-65989151-1063-8415-96c3-dc978802d9d8-body">
            <path style="stroke:black; fill:none;" d="M511.356,321.451 L511.356,235.528 L562.618,235.528 L562.618,321.451 L511.356,321.451"/>
        </g>
        <g id="31ruf4bRjwgt8HP42P88oN" title="" comp_guid="product-c1d78a44-95bb-7aab-7211-644099208c97-body">
            <path style="stroke:black; fill:none;" d="M513.039,196.156 L560.936,196.156 L560.936,234.967 L513.039,234.967 L513.039,196.156"/>
        </g>
        <g id="0PaOa_z5cy3bhQ6MMVQQd0" title="" comp_guid="product-1991893e-f459-bc0e-5ada-19659f69a9c0-body">
            <path style="stroke:black; fill:none;" d="M438.445,226.723 L500.924,226.723 L500.924,280.957 L492.68,280.957 L492.68,289.202 L438.445,289.202 L438.445,226.723"/>
        </g>
        <g id="15unZgTTemWVNehjSB6KqU" title="" comp_guid="product-45e318ea-75da-3081-f5e8-aed70b194d1e-body">
            <path style="stroke:black; fill:none;" d="M400.139,243.941 L436.034,243.941 L436.034,323.863 L382.752,323.863 L382.752,253.756 L400.139,253.756 L400.139,243.941"/>
        </g>
        <g id="0n4AdmyqV81wcHGkWTDznY" title="" comp_guid="product-3110a9f0-f347-c807-a991-42e81d37dc62-body">
            <path style="stroke:black; fill:none;" d="M503.336,224.311 L438.614,224.311 L438.614,190.66 L436.034,190.66 L436.034,152.802 L382.752,152.802 L382.752,82.6956 L400.349,82.6956 L400.349,76.5262 L428.953,76.5262 L428.953,82.6956 L503.336,82.6956 L503.336,224.311"/>
        </g>
        <g id="08y2_$GRgeRTiXwRIPTK3u" title="" comp_guid="product-08f02fbf-41ba-a86d-db21-e9b4997540f8-body">
            <path style="stroke:black; fill:none;" d="M454.037,291.614 L503.336,291.614 L503.336,323.863 L438.614,323.863 L438.614,295.147 L454.037,295.147 L454.037,291.614"/>
        </g>
        <g id="2lWIG2hU9tWFeK$r7V8mN7" title="" comp_guid="product-af812402-ade2-7780-fa14-ff51df2305c7-body">
            <path style="stroke:black; fill:none;" d="M436.034,152.802 L436.034,243.941 L382.752,243.941 L382.752,152.802 L436.034,152.802"/>
        </g>
        <g id="0KTTvwF4Geb4HYXtkKU1bD" title="" comp_guid="product-1475de7a-3c44-2894-4462-877b9478194d-body">
            <path style="stroke:black; fill:none;" d="M756.113,250.559 L756.113,321.451 L704.851,321.451 L704.851,258.804 L713.095,258.804 L713.095,250.559 L756.113,250.559"/>
        </g>
        <g id="2DzMICbWbqrTzZOgRsiTyM" title="" comp_guid="product-8df5648c-9609-74d5-df63-62a6f6b1df16-body">
            <path style="stroke:black; fill:none;" d="M702.439,135.135 L786.792,135.135 L786.792,248.148 L702.439,248.148 L702.439,135.135"/>
        </g>
        <g id="0xAYvjmZ7RbY_xOuJ4eA6N" title="" comp_guid="product-3b2a2e6d-c231-db96-2fbb-6384c4a0a197-body">
            <path style="stroke:black; fill:none;" d="M789.372,282.64 L789.372,225.713 L890.325,225.713 L890.325,301.429 L807.375,301.429 L807.375,282.64 L789.372,282.64"/>
        </g>
        <g id="3xs3IG03UhA0N4BEKcWMrj" title="" comp_guid="product-fbd83490-0037-ab28-05c4-2ce526816d6d-body">
            <path style="stroke:black; fill:none;" d="M736.09,374.34 L736.09,335.08 L753.477,335.08 L753.477,323.863 L758.525,323.863 L758.525,250.727 L789.372,250.727 L789.372,282.64 L786.006,282.64 L786.006,286.173 L807.375,286.173 L807.375,321.283 L786.006,321.283 L786.006,374.34 L736.09,374.34"/>
        </g>
        <g id="1yOZ1ePQUuBpSOptWuVz4u" title="" comp_guid="product-7c623068-65a7-b82f-3718-cf78387fd138-body">
            <path style="stroke:black; fill:none;" d="M890.325,225.713 L789.372,225.713 L789.372,135.135 L890.325,135.135 L890.325,225.713"/>
        </g>
        <g id="1aalEGFfE5cI_XGPLtheah" title="" comp_guid="product-6492f390-3e93-8599-2fa1-419577ae892b-body">
            <path style="stroke:black; fill:none;" d="M788.586,374.34 L788.586,323.863 L807.375,323.863 L807.375,304.009 L872.939,304.009 L872.939,323.302 L890.325,323.302 L890.325,374.34 L788.586,374.34"/>
        </g>
        <g id="0ZIb9WTitVmptVvcDs3$7F" title="" comp_guid="product-234a5260-76cd-dfc3-3ddf-e663760ff1cf-body">
            <path style="stroke:black; fill:none;" d="M267.777,370.975 L214.496,370.975 L214.496,368.395 L189.034,368.395 L189.034,332.276 L192.062,332.276 L192.062,312.646 L267.777,312.646 L267.777,370.975"/>
        </g>
        <g id="0nLwRBO1x3isTaPVj_78AP" title="" comp_guid="product-3157a6cb-601e-c3b3-6764-65fb7e1c8299-body">
            <path style="stroke:black; fill:none;" d="M267.777,427.06 L257.402,427.06 L257.402,444.446 L186.454,444.446 L186.454,370.975 L249.55,370.975 L249.55,374.115 L251.513,374.115 L251.513,375.069 L267.777,375.069 L267.777,427.06"/>
        </g>
        <g id="0PEScmQ94g4SmPxkKvw8bX" title="" comp_guid="product-1939c9b0-6891-2a11-cc19-eee539e88961-body">
            <path style="stroke:black; fill:none;" d="M265.366,258.972 L265.366,310.234 L194.474,310.234 L194.474,267.217 L202.718,267.217 L202.718,258.972 L265.366,258.972"/>
        </g>
        <g id="2gdIPW2YfgWYqFRnl7xndk" title="" comp_guid="product-aa9d2660-0a2a-6a82-2d0f-6f1bc7ef19ee-body">
            <path style="stroke:black; fill:none;" d="M186.454,256.56 L186.454,326.667 L82.6956,326.667 L82.6956,256.56 L186.454,256.56"/>
        </g>
        <g id="3ML8wfN9ltrEXac7XXZGxd" title="" comp_guid="product-d6548ea9-5c9b-f7d4-e864-9878618d0ee7-body">
            <path style="stroke:black; fill:none;" d="M321.059,211.692 L321.059,251.793 L312.646,251.793 L312.646,260.206 L321.059,260.206 L321.059,300.027 L273.386,300.027 L273.386,211.692 L321.059,211.692"/>
        </g>
        <g id="3tkgTWd4vk6Lz6Zqu3QvxH" title="" comp_guid="product-f7baa760-9c4e-6e19-5f46-8f4e036b9ed1-body">
            <path style="stroke:black; fill:none;" d="M377.144,82.6956 L377.144,192.062 L321.059,192.062 L321.059,209.112 L291.389,209.112 L291.389,207.71 L288.809,207.71 L288.809,193.689 L291.389,193.689 L291.389,82.6956 L377.144,82.6956"/>
        </g>
        <g id="3WCFcZSCVcTHwB6M$4AL_v" title="" comp_guid="product-e030f9a3-70c7-e675-1e8b-196fc4295fb9-body">
            <path style="stroke:black; fill:none;" d="M374.732,235.528 L374.732,321.451 L323.47,321.451 L323.47,235.528 L374.732,235.528"/>
        </g>
        <g id="1HP9txttcU6z_zTf9Wc8IR" title="" comp_guid="product-51649dfb-df79-9e1b-dfbd-76926098849b-body">
            <path style="stroke:black; fill:none;" d="M288.809,82.6956 L288.809,211.692 L273.386,211.692 L273.386,250.952 L208.888,250.952 L208.888,206.083 L155.607,206.083 L155.607,82.6956 L288.809,82.6956"/>
        </g>
        <g id="37eeOqO9lT$T40jbdpKMd5" title="" comp_guid="product-c7a28634-609b-ddfd-d100-b659f35169c5-body">
            <path style="stroke:black; fill:none;" d="M325.153,196.156 L373.05,196.156 L373.05,234.967 L325.153,234.967 L325.153,196.156"/>
        </g>
        <g id="2UtluTmFasixZ604MYoEZq" title="" comp_guid="product-9edefe1d-c0f9-36b3-b8c6-0045a2c8e8f4-body">
            <path style="stroke:black; fill:none;" d="M179.443,250.952 L82.6956,250.952 L82.6956,154.204 L153.027,154.204 L153.027,182.247 L155.607,182.247 L155.607,206.083 L187.856,206.083 L187.856,208.663 L206.308,208.663 L206.308,250.952 L187.856,250.952 L187.856,241.978 L179.443,241.978 L179.443,250.952"/>
        </g>
        <g id="0CTDKBteFm8$DQ4Ya5kJmz" title="" comp_guid="product-0c74d50b-de83-f023-f35a-122905b93c3d-body">
            <path style="stroke:black; fill:none;" d="M82.6956,82.6956 L155.607,82.6956 L155.607,154.204 L82.6956,154.204 L82.6956,82.6956"/>
        </g>
    </g>
</svg>
