<svg xmlns="http://www.w3.org/2000/svg" xmlns:xlink="http://www.w3.org/1999/xlink">
    <g id="product-96ab5560-b88e-4d41-9b73-c41e9f2fe165">
        <g id="1UCp59kAPCjAQxtib7OCxO" title="4144" comp_guid="product-5e333149-b8a6-4cb4-a6bb-dec94760ced8-body">
            <path style="stroke:black; fill:none;" d="M703.567,84.1339 L709.364,63.2682 L726.343,67.9853 L720.546,88.8509 L703.567,84.1339"/>
        </g>
        <g id="2NzYbpv2b6YvWDS46Yi$Ti" title="B4" comp_guid="product-97f62973-e429-468b-980d-7041a2b3f76c-body">
            <path style="stroke:black; fill:none;" d="M264.204,46.5767 L282.762,30.6187 L331.785,87.6286 L293.927,120.183 L278.607,102.367 L297.907,85.771 L264.204,46.5767"/>
        </g>
        <g id="24KrtH$NrDVgys8vYHgbP1" title="A4" comp_guid="product-84535dd1-fd7d-4d7e-af36-239891aa5641-body">
            <path style="stroke:black; fill:none;" d="M690.483,98.8601 L642.846,85.6261 L658.78,28.2737 L682.834,34.9562 L673.4,68.9149 L696.982,75.4664 L690.483,98.8601"/>
        </g>
        <g id="2f$$cnBNP1d9JNv4hsoFhQ" title="" comp_guid="product-a9fff9b1-2d76-419c-94d7-e44af6c8fada-body">
            <path style="stroke:black; fill:none;" d="M675.81,67.5524 L683.148,41.1401 L704.844,47.1675 L697.506,73.5798 L675.81,67.5524"/>
        </g>
        <g id="2JLUsyq2XCrwak$2BQ4foD" title="4212" comp_guid="product-9355edbc-d028-4cd7-a92e-fc22da129c8d-body">
            <path style="stroke:black; fill:none;" d="M485.331,754.66 L486.903,749 L492.799,750.638 L491.227,756.298 L485.331,754.66"/>
        </g>
        <g id="1H2EpsovT2jBF4HOOGT1jn" title="4213" comp_guid="product-5108ecf6-cb97-42b4-b3c4-458610741b71-body">
            <path style="stroke:black; fill:none;" d="M492.029,756.521 L493.601,750.861 L499.497,752.499 L497.924,758.158 L492.029,756.521"/>
        </g>
        <g id="3Ve4oyH0P23fINtl1OZJB$" title="4082" comp_guid="product-dfa04cbc-4406-420e-9497-def0588d32ff-body">
            <path style="stroke:black; fill:none;" d="M596.879,767.715 L602.225,748.472 L622.893,754.213 L617.547,773.457 L596.879,767.715"/>
        </g>
        <g id="1t$R3jf4L1MBznVQe$O0FU" title="4086" comp_guid="product-77fdb0ed-a445-4158-bf71-7daa3f6003de-body">
            <path style="stroke:black; fill:none;" d="M602.723,746.68 L608.069,727.436 L628.737,733.178 L623.391,752.421 L602.723,746.68"/>
        </g>
        <g id="3ru5DqLn196ArIltTO6Gaf" title="" comp_guid="product-f5e05374-5710-4918-ad52-bf7758190929-body">
            <path style="stroke:black; fill:none;" d="M422.456,352.992 L447.027,331.863 L462.347,349.679 L437.776,370.807 L422.456,352.992"/>
        </g>
        <!-- <g id="1WM51iNZvAVwVZ0pFT$Gd8" title="4.KRS" comp_guid="product-6058506c-5e3e-4a7f-a7e3-0333ddfd09c8-body">
            <path style="stroke:black; fill:none;" d="M789.546,82.7902 L703.612,58.9168 L708.827,40.1452 L655.436,25.3127 L577.376,306.295 L571.337,315.99 L561.903,322.202 L550.783,323.912 L539.99,320.861 L531.33,313.528 L261.727,1.15961e-10 L0,0 L62.8637,73.1059 L45.4563,88.0745 L77.6785,125.547 L95.0859,110.578 L112.652,131.007 L95.245,145.975 L127.467,183.447 L144.875,168.479 L162.441,188.907 L145.034,203.876 L177.256,241.348 L194.663,226.379 L212.23,246.808 L194.822,261.777 L227.045,299.249 L244.452,284.28 L262.019,304.709 L244.611,319.677 L276.833,357.149 L294.241,342.181 L311.807,362.609 L294.4,377.578 L326.622,415.05 L344.029,400.081 L406.278,472.472 L388.871,487.441 L421.093,524.913 L438.5,509.944 L460.539,535.573 L436.6,621.741 L414.48,615.595 L401.251,663.213 L423.372,669.358 L404.553,737.096 L476.055,756.96 L447.019,861.478 L585.684,900 L616.423,789.351 L594.916,783.376"/>
            <path style="stroke:black; fill:none;" d="M700.279,404.115 L722.399,410.26 L735.628,362.642 L712.659,356.261 L719.871,330.302 L742.84,336.683 L756.069,289.065 L733.948,282.92"/>
            <path style="stroke:black; fill:none;" d="M774.829,135.766 L796.95,141.911 L783.721,189.529 L761.601,183.383"/>
            <path style="stroke:black; fill:none;" d="M741.16,256.96 L763.28,263.106 L776.509,215.488 L754.389,209.343"/>
            <path style="stroke:black; fill:none;" d="M693.067,430.074 L715.188,436.22 L701.959,483.837 L679.839,477.692"/>
            <path style="stroke:black; fill:none;" d="M672.627,503.651 L694.747,509.797 L681.518,557.414 L659.398,551.269"/>
            <path style="stroke:black; fill:none;" d="M652.186,577.229 L674.307,583.374 L661.078,630.991 L638.958,624.846"/>
            <path style="stroke:black; fill:none;" d="M631.746,650.806 L653.866,656.951 L640.637,704.568 L618.517,698.423"/>
            <path style="stroke:black; fill:none;" d="M598.077,772 L620.197,778.146 L633.426,730.528 L611.305,724.383"/>
        </g> -->
        <g id="2EbDONPMz65hEcAvhqTSqU" title="4089" comp_guid="product-8e94d617-656f-4616-b3a6-2b9af475cd1e-body">
            <path style="stroke:black; fill:none;" d="M617.32,694.138 L622.666,674.895 L643.333,680.636 L637.987,699.88 L617.32,694.138"/>
        </g>
        <g id="0atlt5fanFDxgYz93R4O6K" title="4091" comp_guid="product-24defdc5-a64c-4f37-baa2-f490db118194-body">
            <path style="stroke:black; fill:none;" d="M623.164,673.102 L628.51,653.859 L649.177,659.601 L643.831,678.844 L623.164,673.102"/>
        </g>
        <g id="1Dq21wxc53bOCX4dD_3_cL" title="4094" comp_guid="product-4dd0207a-ee61-4395-8321-12737e0fe995-body">
            <path style="stroke:black; fill:none;" d="M637.76,620.561 L643.106,601.318 L663.774,607.059 L658.428,626.302 L637.76,620.561"/>
        </g>
        <g id="1_Zo92TF5BiQM2aqkBl7LC" title="4096" comp_guid="product-7e8f2242-74f1-4bb1-a582-934b8bbc754c-body">
            <path style="stroke:black; fill:none;" d="M643.604,599.525 L648.95,580.282 L669.618,586.024 L664.272,605.267 L643.604,599.525"/>
        </g>
        <g id="2FeB5dSXr1fAPdYgD4YpDG" title="4098" comp_guid="product-8fa0b167-721d-41a4-a667-8aa3448b3350-body">
            <path style="stroke:black; fill:none;" d="M658.201,546.984 L663.547,527.74 L684.217,533.483 L678.871,552.726 L658.201,546.984"/>
        </g>
        <g id="1nGdK0Vkj8DvbhQ24unQds" title="4101" comp_guid="product-71427500-7eeb-4837-996b-682138c5a9f6-body">
            <path style="stroke:black; fill:none;" d="M664.045,525.948 L669.391,506.705 L690.058,512.447 L684.712,531.69 L664.045,525.948"/>
        </g>
        <g id="1xwr78GI1BjO2qm4Gf9bPy" title="4105" comp_guid="product-7beb51c8-4120-4bb5-80b4-c0442926567c-body">
            <path style="stroke:black; fill:none;" d="M678.641,473.407 L683.987,454.163 L704.656,459.905 L699.31,479.149 L678.641,473.407"/>
        </g>
        <g id="1do9$0p4L2SxumY7_tyT7L" title="4108" comp_guid="product-67c89fc0-cc45-4273-be30-887fb7f1d1d5-body">
            <path style="stroke:black; fill:none;" d="M684.485,452.371 L689.831,433.128 L710.499,438.87 L705.153,458.113 L684.485,452.371"/>
        </g>
        <g id="09D0YO3mH0cw3SWvb_ybm7" title="4110" comp_guid="product-09340898-0f04-409b-a0dc-83997ef25c07-body">
            <path style="stroke:black; fill:none;" d="M699.082,399.829 L704.428,380.586 L725.095,386.328 L719.749,405.571 L699.082,399.829"/>
        </g>
        <g id="08XiK_AF99k8pNE4MSdegL" title="4112" comp_guid="product-0886c53e-28f2-49b8-8cd7-38459c9e8a95-body">
            <path style="stroke:black; fill:none;" d="M725.593,384.536 L704.926,378.794 L710.442,358.938 L712.659,359.553 L712.488,360.167 L730.939,365.293 L725.593,384.536"/>
        </g>
        <g id="17CdgkE116FAfTEwmplG89" title="4118" comp_guid="product-47327aae-3810-463c-aa5d-3bac33bd0209-body">
            <path style="stroke:black; fill:none;" d="M719.522,326.252 L724.868,307.009 L745.536,312.751 L740.19,331.994 L719.522,326.252"/>
        </g>
        <g id="0l6PbKP7D6CO3cgZMURDLm" title="4120" comp_guid="product-2f199954-6473-4631-80e6-aa359e6cd570-body">
            <path style="stroke:black; fill:none;" d="M725.366,305.217 L730.712,285.974 L751.38,291.715 L746.034,310.959 L725.366,305.217"/>
        </g>
        <g id="2fefZ5Q352FPTJFKKrbBRz" title="4125" comp_guid="product-a9a298c5-6831-423d-9753-3d453594b6fd-body">
            <path style="stroke:black; fill:none;" d="M739.964,252.672 L745.309,233.432 L765.976,239.174 L760.631,258.414 L739.964,252.672"/>
        </g>
        <g id="0umCWRvkT1E9TMMLFSz6OS" title="4130" comp_guid="product-38c0c81b-e6e7-4138-9756-5953dcf4661c-body">
            <path style="stroke:black; fill:none;" d="M745.807,231.64 L751.153,212.397 L771.82,218.138 L766.474,237.381 L745.807,231.64"/>
        </g>
        <g id="1CTGyTK8X2qe0Z5gfAh6ks" title="4135" comp_guid="product-4c750f1d-5088-42d2-8023-16aa4aac6bb6-body">
            <path style="stroke:black; fill:none;" d="M760.403,179.098 L765.749,159.855 L786.417,165.597 L781.071,184.84 L760.403,179.098"/>
        </g>
        <g id="3hoQGjoT54ufaVC1h9V8x5" title="4137" comp_guid="product-ebc9a42d-c9d1-44e2-991f-301ac97c8ec5-body">
            <path style="stroke:black; fill:none;" d="M766.247,158.063 L771.593,138.819 L792.261,144.561 L786.915,163.804 L766.247,158.063"/>
        </g>
        <g id="3BjMQjamT79fcG1qsiGa3M" title="4036" comp_guid="product-cbb566ad-9307-4726-9990-074dac4240d6-body">
            <path style="stroke:black; fill:none;" d="M65.0614,105.033 L81.3256,91.0471 L94.3472,106.19 L78.083,120.176 L65.0614,105.033"/>
        </g>
        <g id="2WVkV$fIn9Bxqg2l3mbmwd" title="4034" comp_guid="product-a07ee7ff-a52c-492f-bd2a-0af0f0970ea7-body">
            <path style="stroke:black; fill:none;" d="M63.8486,103.622 L50.8269,88.4791 L67.0912,74.4935 L80.1128,89.6367 L63.8486,103.622"/>
        </g>
        <g id="3mHZj41WX1iQo_HEqN7QXi" title="4038" comp_guid="product-f0463b44-0608-41b1-acbe-44ed171da86c-body">
            <path style="stroke:black; fill:none;" d="M100.616,146.38 L116.88,132.394 L129.902,147.537 L113.637,161.523 L100.616,146.38"/>
        </g>
        <g id="3QO5vsr7TB6QghXCaJCeDk" title="4040" comp_guid="product-da605e76-d477-4b19-aaab-84c91332836e-body">
            <path style="stroke:black; fill:none;" d="M114.85,162.933 L131.114,148.948 L144.136,164.091 L127.872,178.077 L114.85,162.933"/>
        </g>
        <g id="2MGAJQdCn1yuzTTomK2oIq" title="4042" comp_guid="product-9640a4da-9ccc-41f3-8f5d-772c140b24b4-body">
            <path style="stroke:black; fill:none;" d="M150.404,204.28 L166.669,190.295 L179.69,205.438 L163.426,219.424 L150.404,204.28"/>
        </g>
        <g id="0789ebYEnANeq3norGYV$H" title="4044" comp_guid="product-07209a25-88ec-4a5e-8d03-c72d5089ffd1-body">
            <path style="stroke:black; fill:none;" d="M164.639,220.834 L180.903,206.849 L193.925,221.992 L177.66,235.977 L164.639,220.834"/>
        </g>
        <g id="1hU6zDAnD7reRwuZ1_GFHX" title="4047" comp_guid="product-6b786f4d-2b13-47d6-86fa-e2307e40f461-body">
            <path style="stroke:black; fill:none;" d="M213.215,277.324 L200.193,262.181 L216.457,248.196 L229.479,263.339 L213.215,277.324"/>
        </g>
        <g id="2mulcY_E13L9uWAOcYIvlm" title="4049" comp_guid="product-b0e2f9a2-f8e0-4354-9e20-2989a24b9bf0-body">
            <path style="stroke:black; fill:none;" d="M214.428,278.735 L230.759,264.692 L243.78,279.835 L227.449,293.878 L214.428,278.735"/>
        </g>
        <g id="1Gq6Lm5DvEs8QmOjL22Eqf" title="4051" comp_guid="product-50d06570-14de-4ed8-86b0-62d54208ed29-body">
            <path style="stroke:black; fill:none;" d="M263.003,335.225 L249.982,320.082 L266.246,306.096 L279.268,321.239 L263.003,335.225"/>
        </g>
        <g id="2zOVreqzr1rAX0V6p9lcmG" title="4053" comp_guid="product-bd61fd68-d3dd-41d4-a840-7c6cc9be6c10-body">
            <path style="stroke:black; fill:none;" d="M264.216,336.635 L280.481,322.65 L293.502,337.793 L277.238,351.779 L264.216,336.635"/>
        </g>
        <g id="1b29M9xo9BlxAxnDmCfUes" title="4058" comp_guid="product-65089589-ef22-4bbf-b2bb-c4dc0ca5ea36-body">
            <path style="stroke:black; fill:none;" d="M327.027,409.679 L314.005,394.536 L330.269,380.551 L343.291,395.694 L327.027,409.679"/>
        </g>
        <g id="3Lq6jcrKb9txlUgsq7wVR_" title="4056" comp_guid="product-d5d06b66-d549-49df-bbde-ab6d07e9f6fe-body">
            <path style="stroke:black; fill:none;" d="M299.771,377.983 L316.035,363.997 L329.056,379.14 L312.792,393.126 L299.771,377.983"/>
        </g>
        <g id="1x1F6PBd5ACf7zbuKeduev" title="4061" comp_guid="product-7b04f199-2e71-4a32-91fd-9785289f8a39-body">
            <path style="stroke:black; fill:none;" d="M394.241,487.845 L410.506,473.86 L423.527,489.003 L407.263,502.989 L394.241,487.845"/>
        </g>
        <g id="2mJHjqsarC_f$c$v0MrThr" title="4064" comp_guid="product-b04d1b74-da4d-4cfa-9fe6-ff9016d5daf5-body">
            <path style="stroke:black; fill:none;" d="M408.476,504.399 L424.74,490.413 L437.762,505.557 L421.498,519.542 L408.476,504.399"/>
        </g>
        <g id="3rol6KhoPECx9a3Ua33FEa" title="4211" comp_guid="product-f5caf194-af26-4e33-b264-0de9030cf3a4-body">
            <path style="stroke:black; fill:none;" d="M388.93,445.09 L384.462,439.894 L402.129,424.702 L406.597,429.898 L388.93,445.09"/>
        </g>
        <g id="0ophfzpkn4feYf9GGBTrjs" title="" comp_guid="product-32ceba7d-ceec-44a6-88a9-25040b775b76-body">
            <path style="stroke:black; fill:none;" d="M452.841,716.167 L417.939,706.471 L423.966,684.775 L458.868,694.471 L452.841,716.167"/>
        </g>
        <g id="0MIohPxib8phGq9SYDQnRC" title="D4" comp_guid="product-164b2ad9-eec9-48ce-b434-25c88d6b16cc-body">
            <path style="stroke:black; fill:none;" d="M483.445,754.136 L410.339,733.826 L417.415,708.357 L490.52,728.667 L483.445,754.136"/>
        </g>
        <g id="0_g3xYQ1PDIP6dF_cVxJxp" title="" comp_guid="product-3ea83ee2-6816-4d49-91a7-3fe99fed3ef3-body">
            <path style="stroke:black; fill:none;" d="M480.432,303.139 L500.474,285.904 L515.155,302.978 L495.113,320.212 L480.432,303.139"/>
        </g>
        <!-- <g id="17hYDK2gP9RwCwnD3VHRWH" title="4.KRS" comp_guid="product-47ae2354-0aa6-496f-a33a-c4d0df45b811-body">
            <path style="stroke:black; fill:none;" d="M414.994,616.49 L402.153,662.711 L425.735,669.263 L407.326,735.529 L484.676,757.018 L490.334,736.652 L546.413,752.232 L540.939,771.937 L591.829,786.075 L596.101,770.701 L619.683,777.251 L632.524,731.029 L608.942,724.478 L616.541,697.122"/>
            <path style="stroke:black; fill:none;" d="M438.576,623.041 L463.011,535.087 L439.556,507.81 L421.043,523.729 L389.766,487.355 L408.324,471.397 L387.904,447.651 L408.392,430.033 L402.264,422.907 L381.776,440.525 L345.264,398.064 L326.707,414.022 L295.429,377.648 L313.987,361.691 L295.476,340.163 L276.918,356.121 L245.64,319.748 L264.198,303.79 L245.687,282.263 L227.129,298.221 L195.852,261.847 L214.41,245.889 L195.898,224.362 L177.34,240.32 L146.063,203.946 L164.621,187.988 L146.11,166.461 L128.294,181.781 L97.6548,146.15 L115.47,130.83 L96.3209,108.561 L77.763,124.519 L46.4855,88.145 L65.0434,72.1871 L4.90605,2.25175 L262.372,2.25175 L530.579,314.157 L539.463,321.834 L550.699,325.016 L562.282,323.243 L572.107,316.772 L578.745,305.027 L639.398,86.7003 L639.964,86.8576 L656.946,25.7319 L685.244,33.5937 L683.672,39.2534 L707.255,45.805 L696.799,83.4424 L735.191,94.1082 L742.004,69.5826 L787.377,82.1875 L772.466,135.861 L796.048,142.413 L783.207,188.634"/>
            <path style="stroke:black; fill:none;" d="M636.982,623.545 L629.382,650.901 L652.965,657.452 L640.124,703.674"/>
            <path style="stroke:black; fill:none;" d="M660.564,630.097 L673.405,583.875 L649.823,577.324 L657.422,549.968"/>
            <path style="stroke:black; fill:none;" d="M681.005,556.52 L693.846,510.298 L670.263,503.747 L677.863,476.391"/>
            <path style="stroke:black; fill:none;" d="M698.303,402.814 L690.704,430.17 L714.286,436.721 L701.445,482.942"/>
            <path style="stroke:black; fill:none;" d="M721.886,409.365 L734.727,363.144 L711.144,356.592 L718.744,329.237"/>
            <path style="stroke:black; fill:none;" d="M742.326,335.788 L755.167,289.567 L731.585,283.015 L739.184,255.66"/>
            <path style="stroke:black; fill:none;" d="M762.767,262.211 L775.608,215.99 L752.025,209.438 L759.625,182.083"/>
            <path style="stroke:black; fill:none;" d="M319.448,236.203 L341.346,217.372 L330.527,204.79 L308.628,223.62 L319.448,236.203"/>
            <path style="stroke:black; fill:none;" d="M370.929,287.511 L363.191,278.513 L380.858,263.322 L359.762,238.788 L337.863,257.619 L366.697,291.15 L370.929,287.511"/>
            <path style="stroke:black; fill:none;" d="M474.268,360.539 L465.108,349.887 L437.568,373.568 L446.728,384.221 L474.268,360.539"/>
            <path style="stroke:black; fill:none;" d="M604.565,311.387 L638.713,320.873 L636.721,328.043 L602.574,318.556 L604.565,311.387"/>
        </g>
        <g id="3VXIj0yYH6aehrIixEuYRw" title="4.KRS" comp_guid="product-df852b40-f224-4692-8af5-4acecee226fa-body">
            <path style="stroke:black; fill:none;" d="M68.4943,72.4464 L10.2387,4.6993 L255.726,4.6993 L255.726,7.48951 L262.874,7.48951 L262.874,7.4897 L281.491,29.1399 L281.486,29.1341 L281.498,29.1482 L261.455,46.3829 L277.209,64.7038 L257.909,81.3001 L298.091,128.029 L307.964,119.539 L303.592,114.454 L333.507,88.7303 L349.561,107.4 L344.624,111.644 L348.135,115.727 L353.071,111.482 L399.349,165.3 L394.413,169.545 L397.924,173.628 L402.86,169.383 L449.138,223.201 L444.202,227.446 L447.712,231.529 L452.649,227.284 L497.65,279.617 L492.714,283.862 L495.746,287.388 L477.67,302.931 L494.905,322.973 L517.917,303.186 L528.704,315.731 L529.392,316.564 L530.568,317.834 L531.815,319.034 L533.129,320.161 L534.505,321.212 L535.938,322.182 L537.425,323.069 L538.96,323.869 L540.538,324.58 L542.154,325.201 L543.802,325.728 L545.479,326.16 L547.177,326.495 L548.891,326.733 L550.616,326.873 L552.347,326.914 L554.077,326.856 L555.801,326.7 L557.513,326.445 L559.208,326.093 L560.879,325.645 L562.523,325.102 L564.133,324.467 L565.704,323.74 L567.231,322.925 L568.709,322.024 L570.133,321.04 L571.499,319.976 L572.801,318.837 L574.037,317.624 L575.201,316.343 L576.29,314.998 L577.301,313.593 L578.23,312.132 L579.074,310.621 L579.83,309.064 L580.163,308.265 L586.642,310.065 L588.084,304.877 L581.811,303.134 L600.81,234.745 L607.083,236.488 L608.524,231.3 L602.251,229.557 L621.251,161.168 L627.523,162.911 L628.965,157.723 L622.692,155.98 L641.757,87.3556 L691.846,101.271 L696.707,83.7726 L736.476,94.8209 L742.713,72.3706 L780.671,82.9157 L780.344,84.0948 L784.023,85.1169 L769.452,137.564 L793.035,144.116 L781.504,185.621 L757.922,179.07 L749.012,211.141 L772.594,217.693 L761.063,259.197 L737.481,252.647 L728.571,284.718 L752.153,291.27 L740.623,332.775 L717.041,326.224 L708.131,358.295 L731.713,364.847 L720.183,406.352 L696.6,399.801 L687.69,431.873 L711.273,438.424 L699.742,479.929 L676.16,473.378 L667.25,505.45 L690.832,512.001 L679.302,553.506 L655.719,546.956 L646.809,579.026 L670.392,585.578 L658.861,627.083 L635.279,620.533 L626.369,652.604 L649.951,659.155 L638.421,700.66 L614.838,694.11 L605.928,726.181 L629.511,732.733 L617.98,774.238 L594.398,767.687 L589.943,783.722 L542.778,770.619 L547.718,752.838 L490.271,736.879 L492.931,727.304 L454.727,716.691 L461.279,693.109 L424.49,682.888 L428.749,667.56 L405.166,661.008 L416.697,619.503 L440.279,626.054 L459.423,557.147 L462.111,557.894 L463.867,551.574 L461.178,550.827 L465.398,535.637 L467.285,536.161 L468.281,532.576 L464.696,531.581 L464.355,532.804 L439.995,504.475 L421.437,520.433 L393.352,487.771 L411.909,471.813 L389.76,446.055 L408.392,430.033 L402.264,422.907 L383.632,438.929 L374.887,428.759 L420.391,389.63 L401.88,368.103 L356.376,407.232 L345.524,394.612 L326.967,410.57 L298.881,377.908 L317.438,361.95 L295.736,336.712 L277.178,352.67 L249.092,320.008 L267.649,304.049 L245.947,278.811 L227.389,294.769 L199.303,262.107 L217.86,246.148 L196.158,220.91 L177.6,236.868 L149.514,204.206 L168.072,188.248 L146.37,163.01 L127.812,178.968 L99.7258,146.306 L118.283,130.347 L96.5809,105.109 L78.023,121.067 L49.937,88.405"/>
            <path style="stroke:black; fill:none;" d="M88.0741,86.432 L85.7123,83.6855 L80.0336,88.5686 L82.3954,91.3152 L88.0741,86.432"/>
            <path style="stroke:black; fill:none;" d="M137.863,144.333 L135.501,141.586 L129.822,146.469 L132.184,149.216 L137.863,144.333"/>
            <path style="stroke:black; fill:none;" d="M187.652,202.233 L181.973,207.117 L179.611,204.37 L185.29,199.487 L187.652,202.233"/>
            <path style="stroke:black; fill:none;" d="M188.927,50.1048 L193.863,45.86 L191.437,43.0392 L186.501,47.284 L188.927,50.1048"/>
            <path style="stroke:black; fill:none;" d="M237.44,260.134 L235.078,257.388 L229.4,262.271 L231.762,265.017 L237.44,260.134"/>
            <path style="stroke:black; fill:none;" d="M238.715,108.006 L243.652,103.761 L241.226,100.94 L236.29,105.185 L238.715,108.006"/>
            <path style="stroke:black; fill:none;" d="M287.229,318.035 L284.867,315.288 L279.188,320.171 L281.55,322.918 L287.229,318.035"/>
            <path style="stroke:black; fill:none;" d="M293.44,161.661 L288.504,165.906 L286.078,163.085 L291.015,158.841 L293.44,161.661"/>
            <path style="stroke:black; fill:none;" d="M338.293,223.807 L336.41,221.617 L319.448,236.203 L308.628,223.62 L330.527,204.79 L343.229,219.562 L338.293,223.807"/>
            <path style="stroke:black; fill:none;" d="M334.656,373.189 L337.018,375.935 L331.339,380.819 L328.977,378.072 L334.656,373.189"/>
            <path style="stroke:black; fill:none;" d="M370.929,287.511 L366.697,291.15 L337.863,257.619 L359.762,238.788 L380.858,263.322 L363.191,278.513 L370.929,287.511"/>
            <path style="stroke:black; fill:none;" d="M390.592,274.642 L393.018,277.463 L390.197,279.888 L387.771,277.068 L390.592,274.642"/>
            <path style="stroke:black; fill:none;" d="M446.728,384.221 L474.268,360.539 L447.235,329.102 L419.695,352.784 L446.728,384.221"/>
            <path style="stroke:black; fill:none;" d="M425.676,490.526 L432.097,485.004 L429.735,482.258 L423.314,487.779 L425.676,490.526"/>
            <path style="stroke:black; fill:none;" d="M441.466,646.839 L433.306,644.572 L432.336,648.062 L440.496,650.329 L441.466,646.839"/>
            <path style="stroke:black; fill:none;" d="M441.53,333.879 L438.709,336.304 L436.284,333.484 L439.104,331.058 L441.53,333.879"/>
            <path style="stroke:black; fill:none;" d="M509.958,413.455 L512.383,416.276 L507.444,420.523 L505.018,417.703 L509.958,413.455"/>
            <path style="stroke:black; fill:none;" d="M514.197,660.815 L507.924,659.072 L506.482,664.261 L512.755,666.003 L514.197,660.815"/>
            <path style="stroke:black; fill:none;" d="M534.768,586.766 L536.209,581.578 L529.937,579.836 L528.495,585.024 L534.768,586.766"/>
            <path style="stroke:black; fill:none;" d="M551.727,501.401 L559.886,503.667 L558.89,507.252 L550.731,504.985 L551.727,501.401"/>
            <path style="stroke:black; fill:none;" d="M565.34,362.421 L568.925,363.416 L567.929,367.001 L564.344,366.005 L565.34,362.421"/>
            <path style="stroke:black; fill:none;" d="M581.823,424.917 L580.827,428.502 L572.668,426.235 L573.664,422.651 L581.823,424.917"/>
            <path style="stroke:black; fill:none;" d="M601.381,749.131 L602.351,745.641 L595.135,743.636 L594.165,747.127 L601.381,749.131"/>
            <path style="stroke:black; fill:none;" d="M636.721,328.043 L637.992,323.467 L640.775,324.24 L641.77,320.656 L638.186,319.66 L637.911,320.651 L604.565,311.387 L602.574,318.556 L636.721,328.043"/>
            <path style="stroke:black; fill:none;" d="M622.792,672.064 L621.822,675.554 L613.662,673.288 L614.632,669.797 L622.792,672.064"/>
            <path style="stroke:black; fill:none;" d="M625.523,379.14 L624.527,382.724 L620.942,381.729 L621.938,378.144 L625.523,379.14"/>
            <path style="stroke:black; fill:none;" d="M643.232,598.487 L635.073,596.22 L634.103,599.711 L642.262,601.977 L643.232,598.487"/>
            <path style="stroke:black; fill:none;" d="M662.703,528.4 L663.673,524.91 L656.456,522.905 L655.487,526.395 L662.703,528.4"/>
            <path style="stroke:black; fill:none;" d="M662.211,247.079 L658.626,246.083 L657.631,249.667 L661.215,250.663 L662.211,247.079"/>
            <path style="stroke:black; fill:none;" d="M676.897,449.328 L684.113,451.333 L683.143,454.823 L675.927,452.818 L676.897,449.328"/>
            <path style="stroke:black; fill:none;" d="M681.656,177.086 L682.651,173.501 L679.067,172.506 L678.071,176.09 L681.656,177.086"/>
            <path style="stroke:black; fill:none;" d="M704.554,377.756 L697.337,375.751 L696.368,379.241 L703.584,381.246 L704.554,377.756"/>
            <path style="stroke:black; fill:none;" d="M724.024,307.669 L724.994,304.179 L717.778,302.174 L716.808,305.664 L724.024,307.669"/>
            <path style="stroke:black; fill:none;" d="M738.218,228.597 L745.435,230.602 L744.465,234.092 L737.249,232.087 L738.218,228.597"/>
            <path style="stroke:black; fill:none;" d="M764.905,160.515 L765.875,157.024 L758.659,155.02 L757.689,158.51 L764.905,160.515"/>
        </g> -->
        <g id="0ETn21pwj1GBFEXxDAetCz" title="4253" comp_guid="product-0e771081-cfab-4140-b3ce-87b34aa3733d-body">
            <path style="stroke:black; fill:none;" d="M708.827,40.1452 L659.304,26.3871 L665.329,4.6993 L715.632,4.6993 L715.632,8.61538 L719.348,8.61538 L719.348,4.6993 L806.364,4.6993 L805.33,8.41957 L805.33,4.89501 L801.61,4.89501 L801.61,8.61529 L805.276,8.61529 L785.019,81.5324 L709.656,60.5958 L713.061,48.3381 L707.017,46.659 L708.827,40.1452"/>
            <path style="stroke:black; fill:none;" d="M669.049,4.89511 L665.329,4.89511 L665.329,8.61538 L669.049,8.61538 L669.049,4.89511"/>
            <path style="stroke:black; fill:none;" d="M758.631,4.89511 L758.631,8.61538 L762.351,8.61538 L762.351,4.89511 L758.631,4.89511"/>
        </g>
        <g id="3nFvKJTEf3BOywMQn4PxP$" title="C4" comp_guid="product-f13f9513-74ea-432d-8f3a-59ac4467b67f-body">
            <path style="stroke:black; fill:none;" d="M357.652,408.716 L401.672,370.864 L417.63,389.422 L373.61,427.274 L357.652,408.716"/>
        </g>
        <g id="0tci5OWAvEdxNt_mogmu7_" title="4.KRS" comp_guid="product-379ac158-80ae-4e9f-b5f7-fb0caac381fe-body">
            <path style="stroke:black; fill:none;" d="M708.827,40.1452 L659.307,26.3835 L665.329,4.6993 L806.363,4.6993 L785.019,81.5324 L703.612,58.9168 L708.827,40.1452"/>
        </g>
        <g id="0Vznl3xhXEUgRaU92xvk8k" title="4214" comp_guid="product-1ff71bc3-eeb8-4e7a-a6e4-7890bbe6e22e-body">
            <path style="stroke:black; fill:none;" d="M603.598,317.977 L605.144,312.411 L637.688,321.452 L636.142,327.018 L603.598,317.977"/>
        </g>
        <g id="08n_HfCh11gxwkNFJJocRz" title="4216" comp_guid="product-08c7e469-32b0-41ab-beae-5cf4d3ca66fd-body">
            <path style="stroke:black; fill:none;" d="M704.476,77.7514 L698.816,76.179 L700.408,70.4485 L706.068,72.0209 L704.476,77.7514"/>
        </g>
        <g id="0vhrDIMXr3AfA58FLDFYvk" title="4217" comp_guid="product-39af5352-5a1d-432a-9285-20f54d3e2e6e-body">
            <path style="stroke:black; fill:none;" d="M700.631,69.6467 L702.902,61.4731 L708.562,63.0455 L706.291,71.2191 L700.631,69.6467"/>
        </g>
        <g id="19fKaJz453augLCRcnVey9" title="4077" comp_guid="product-49a54913-f441-4393-8a95-31b9b17e8f09-body">
            <path style="stroke:black; fill:none;" d="M426.608,666.305 L405.94,660.563 L411.286,641.32 L431.954,647.061 L426.608,666.305"/>
        </g>
        <g id="0TI7SVh4P02eQMp$efaeSg" title="4075" comp_guid="product-1d48771f-ac46-400a-8696-cffa2992872a-body">
            <path style="stroke:black; fill:none;" d="M432.452,645.269 L411.784,639.527 L417.13,620.284 L437.798,626.026 L432.452,645.269"/>
        </g>
        <g id="1gQtE28VH2HhZw4qFapkGW" title="4218" comp_guid="product-6a6b7382-21f4-4246-b8fa-1343e4cee420-body">
            <path style="stroke:black; fill:none;" d="M703.612,58.9168 L706.927,46.984 L712.587,48.5564 L709.272,60.4891 L703.612,58.9168"/>
        </g>
        <g id="1Qvr09JfzDTvY2xkW8iPcI" title="4143" comp_guid="product-5ae75009-4e9f-4d77-9882-eee808b19992-body">
            <path style="stroke:black; fill:none;" d="M721.65,89.1575 L727.447,68.2919 L741.294,72.1389 L735.497,93.0045 L721.65,89.1575"/>
        </g>
        <g id="1AR6xgP1j5PAZ9r5LOZqAP" title="4215" comp_guid="product-4a6c6eea-641b-4564-a8c9-d455588f4299-body">
            <path style="stroke:black; fill:none;" d="M697.021,82.6406 L698.594,76.9808 L704.254,78.5532 L702.681,84.213 L697.021,82.6406"/>
        </g>
        <g id="0qsxYO2KL1dfWyVd5hlEGo" title="4219" comp_guid="product-34dbb898-0945-419e-983c-7e716bbce432-body">
            <path style="stroke:black; fill:none;" d="M683.672,39.2535 L685.244,33.5937 L706.94,39.6211 L705.368,45.2809 L683.672,39.2535"/>
        </g>
        <g id="1GZejSvjH3bfOlEkoNBu3y" title="4079" comp_guid="product-508e8b5c-e6d4-4396-962f-3aec972f80fc-body">
            <path style="stroke:black; fill:none;" d="M500.521,751.92 L487.126,748.198 L490.027,737.756 L506.865,742.434 L506.886,742.358 L522.375,746.661 L517.658,763.641 L498.726,758.381 L500.521,751.92"/>
        </g>
        <g id="3ZetQknGrCBxK8PSsfM3xR" title="4054" comp_guid="product-e3a376ae-c50d-4c2f-b508-65cda9583edb-body">
            <path style="stroke:black; fill:none;" d="M343.728,263.163 L346.697,260.61 L369.755,287.423 L366.785,289.977 L343.728,263.163"/>
        </g>
        <g id="1Gavnu$cX8MOrsSe96DeKl" title="4204" comp_guid="product-50939c78-fe68-4859-8d76-72824636852f-body">
            <path style="stroke:black; fill:none;" d="M343.186,262.532 L339.037,257.707 L359.673,239.962 L363.822,244.787 L343.186,262.532"/>
        </g>
        <g id="1xLEypoxj6ofQQbNPCsDNN" title="4205" comp_guid="product-7b54ef33-cbbb-46ca-969a-95764cd8d5d7-body">
            <path style="stroke:black; fill:none;" d="M319.536,235.029 L309.802,223.709 L330.438,205.964 L340.173,217.284 L319.536,235.029"/>
        </g>
        <g id="0TxSvfl1jAq9dkTXEXl_9L" title="4202" comp_guid="product-1dedce69-bc1b-4ad0-99ee-7613a1bfe255-body">
            <path style="stroke:black; fill:none;" d="M468.64,364.281 L464.603,359.586 L469.057,355.756 L473.094,360.451 L468.64,364.281"/>
        </g>
        <g id="0wrnHcS1zFUhmz_FmfO$X4" title="4203" comp_guid="product-3ad71466-701f-4f7a-bc3d-f8fc2963f844-body">
            <path style="stroke:black; fill:none;" d="M464.06,358.955 L460.023,354.259 L464.477,350.43 L468.514,355.125 L464.06,358.955"/>
        </g>
        <g id="3hdbYaZZbCogjBPLxU$MQh" title="4201" comp_guid="product-eb9e58a4-8e39-4cca-ab4b-655edefd66ab-body">
            <path style="stroke:black; fill:none;" d="M447.67,382.313 L439.053,372.292 L459.392,354.802 L468.009,364.823 L447.67,382.313"/>
        </g>
        <g id="3L1s_Em5f9DexxOC3Vk_pL" title="4251" comp_guid="product-d5076f8e-c05a-4936-8efb-60c0dfbbecd5-body">
            <path style="stroke:black; fill:none;" d="M451.944,859.289 L451.971,859.195 L454.934,860.019 L455.93,856.434 L452.215,855.402 L480.098,755.035 L608.054,790.583 L606.901,794.733 L611.051,795.886 L583.3,895.781 L451.944,859.289"/>
            <path style="stroke:black; fill:none;" d="M516.49,873.258 L515.494,876.843 L519.079,877.838 L520.074,874.254 L516.49,873.258"/>
            <path style="stroke:black; fill:none;" d="M580.634,891.078 L579.638,894.663 L583.223,895.658 L584.219,892.074 L580.634,891.078"/>
        </g>
        <g id="3S5ZjUJ8D6exM9om$rWEp0" title="4080" comp_guid="product-dc163b5e-4c83-46a3-b589-cb0ff580ecc0-body">
            <path style="stroke:black; fill:none;" d="M518.762,763.947 L523.458,747.043 L546.106,753.335 L541.41,770.239 L518.762,763.947"/>
        </g>
        <g id="0jn4hW7ZL49AZKKmM8w7q0" title="4012" comp_guid="product-2dc44ae0-1e35-4424-a8d4-530588e87d00-body">
            <path style="stroke:black; fill:none;" d="M362.649,277.883 L347.328,260.067 L364.364,245.418 L379.684,263.233 L362.649,277.883"/>
        </g>
        <g id="3gt_PZUkfEo9AeRmYy0K$X" title="" comp_guid="product-eadfe663-7aea-4ec8-92a8-6f08bc014fe1-body">
            <path style="stroke:black; fill:none;" d="M277.331,100.883 L265.139,86.7043 L282.954,71.3849 L295.146,85.563 L277.331,100.883"/>
        </g>
        <g id="0w7dOws5v5CAoA9UgQ2Mr2" title="4207" comp_guid="product-3a1e763a-d85e-4530-ac8a-25ea9a096d42-body">
            <path style="stroke:black; fill:none;" d="M298.18,126.855 L294.35,122.402 L302.627,115.284 L306.457,119.738 L298.18,126.855"/>
        </g>
        <g id="0VpaKra_n1JQsMkij5g33i" title="4209" comp_guid="product-1fce4535-93ec-414d-ad96-bacb45a830ec-body">
            <path style="stroke:black; fill:none;" d="M266.349,83.0813 L262.423,78.5161 L268.473,73.3138 L272.399,77.879 L266.349,83.0813"/>
        </g>
        <g id="1cb9bO7SzADvB9R7H5YEZv" title="4210" comp_guid="product-66949958-1dcf-4a37-92c9-6c744588e8f9-body">
            <path style="stroke:black; fill:none;" d="M273.03,77.3366 L269.104,72.7714 L277.752,65.335 L281.678,69.9002 L273.03,77.3366"/>
        </g>
        <g id="3NIFLZAjD9svb5PuHyV7VZ" title="4208" comp_guid="product-d748f563-2ad3-49db-9945-67847c7c77e3-body">
            <path style="stroke:black; fill:none;" d="M263.008,85.9538 L259.083,81.3885 L261.792,79.0587 L265.718,83.6239 L263.008,85.9538"/>
        </g>
        <g id="3B4Vi0gR1BLQgg09woKr_b" title="4206" comp_guid="product-cb11fb00-a9b0-4b55-aaaa-009eb2535fa5-body">
            <path style="stroke:black; fill:none;" d="M304.321,133.997 L298.723,127.486 L306.699,120.628 L312.297,127.138 L304.321,133.997"/>
        </g>
        <g id="1FA4XHomHDgv6g$9lWyuBR" title="4.KRS" comp_guid="product-4f284851-cb04-4dab-91aa-fc9be0f382db-body">
            <path style="stroke:black; fill:none;" d="M659.304,26.3871 L655.436,25.3127 L662.469,2.34445e-09 L812.546,2.28829e-09 L789.546,82.7902 L785.019,81.5324 L806.364,4.6993 L665.329,4.6993 L659.304,26.3871"/>
        </g>
    </g>
    <g id="product-96ab5560-b88e-4d41-9b73-c41e9f2fe165">
        <g id="0tA7Mz75r0GxitKQCYVG7P" title="4065" comp_guid="product-372875bd-1c5d-4043-bb37-51a3227d01d9-body">
            <path style="stroke:black; fill:none;" d="M514.868,545.784 A67.7476,67.7476 0.745278 0,0 499.414,481.587 L420.361,389.656 L420.391,389.63 L419.753,388.888 L437.449,373.431 L492.097,436.98 L492.112,436.967 L569.629,527.115 A9.47451,9.47451 -0.354761 0,0 585.407,523.906 L606.446,447.883 L601.119,446.393 L613.568,401.868 L618.898,403.358 L641.085,323.118 L663.85,329.471 L555.29,720.24 L532.595,713.936 L573.292,567.443 L555.775,547.073 A10.4125,10.4125 2.82272 0,0 537.976,550.579 L495.447,703.617 L472.77,697.319"/>
            <path style="stroke:black; fill:none;" d="M612.597,426.108 A0.0181724,0.0181724 1.483 0,0 612.592,426.107 L612.597,426.108"/>
        </g>
        <g id="0ZqH$Eq9b4JvYMC0fn4Wpp" title="4001" comp_guid="product-23d11fce-d099-444f-9896-300a71120cf3-body">
            <path style="stroke:black; fill:none;" d="M463.392,317.094 L478.602,304.015 L494.905,322.973 L517.917,303.186 L528.704,315.731 L538.367,323.912 L550.571,327.362 L563.145,325.428 L573.812,318.404 L580.112,308.333 L586.689,310.144 L587.23,308.181 L604.143,312.907 L602.58,318.532 L636.721,328.043 L637.992,323.467 L640.775,324.24 L625.523,379.14 L621.938,378.144 L620.197,384.412 L623.781,385.408 L619.144,402.1 L529.591,377.221 A34.9804,34.9804 1.73669 0,0 514.451,376.424 L463.392,317.094"/>
            <path style="stroke:black; fill:none;" d="M568.925,363.416 L565.34,362.421 L564.344,366.005 L567.929,367.001 L568.925,363.416"/>
        </g>
        <g id="32Uw2RyVL3gBIcAICaCKCb" title="4026" comp_guid="product-c27ba09b-f1f5-43a8-b4a6-292324314325-body">
            <path style="stroke:black; fill:none;" d="M219.036,4.6993 L255.726,4.6993 L255.726,7.48951 L262.874,7.48951 L281.486,29.1341 L243.238,62.023 L219.036,33.8785 L219.036,4.6993"/>
        </g>
        <g id="3ZOiUeYBj5NOql4M8YZkMm" title="4016" comp_guid="product-e362c7a8-88bb-455d-8d2f-1162228ee5b0-body">
            <path style="stroke:black; fill:none;" d="M356.186,190.183 L332.281,162.383 L369.396,130.467 L393.301,158.267 L356.186,190.183"/>
        </g>
        <g id="2CvaecuLnBBg$e641TkHMS" title="4014" comp_guid="product-8ce64a26-e15c-4b2e-afe8-18405db9159c-body">
            <path style="stroke:black; fill:none;" d="M391.485,192.838 L376.089,174.934 L394.224,159.339 L409.62,177.244 L391.485,192.838"/>
            <path style="stroke:black; fill:none;" d="M399.349,165.3 L394.413,169.545 L397.924,173.628 L402.86,169.383 L399.349,165.3"/>
        </g>
        <g id="3B7clMlcD2zO4J2ZahpT1B" title="4013" comp_guid="product-cb1e6bd6-be63-42f5-8113-0a392bcdd04b-body">
            <path style="stroke:black; fill:none;" d="M373.461,210.273 L410.577,178.358 L434.539,206.224 L397.424,238.14 L373.461,210.273"/>
        </g>
        <g id="3fMYLSBBz9Ffd6czM3Rn4q" title="4010" comp_guid="product-e95a255c-2cbf-493e-99c6-9bd5836f1134-body">
            <path style="stroke:black; fill:none;" d="M422.42,267.209 L398.356,239.223 L435.471,207.308 L449.106,223.164 L444.114,227.456 L447.114,230.945 L452.106,226.653 L459.536,235.293 L422.42,267.209"/>
        </g>
        <g id="1HFzKdFar1zPHsocqPiaCp" title="4011" comp_guid="product-513fd527-3e4d-41f5-9476-ca6d19b24333-body">
            <path style="stroke:black; fill:none;" d="M438.655,286.329 L423.131,268.276 L441.266,252.682 L456.79,270.735 L438.655,286.329"/>
        </g>
        <g id="16tqVQCZr1gPP3KyajiQ_s" title="4006" comp_guid="product-46df47da-323d-41a9-9643-53c92db1afb6-body">
            <path style="stroke:black; fill:none;" d="M463.755,314.895 L439.758,286.989 L473.864,257.661 L473.797,257.583 L476.618,255.158 L497.65,279.617 L492.714,283.862 L495.746,287.388 L463.755,314.895"/>
        </g>
        <g id="3iZtuMZ0b8rAenmmkVpVYY" title="4088" comp_guid="product-ec8f7e16-8c09-48d4-aa31-c30b9fcdf8a2-body">
            <path style="stroke:black; fill:none;" d="M610.578,709.437 L563.415,696.335 L573.253,660.923 L613.956,672.231 L613.662,673.288 L620.124,675.083 L610.578,709.437"/>
        </g>
        <g id="3PtzpTWtzDUfaI8NTR5886" title="4090" comp_guid="product-d9dfdcdd-837f-4d7a-9912-21775b148206-body">
            <path style="stroke:black; fill:none;" d="M614.339,670.854 L573.635,659.546 L583.473,624.135 L630.638,637.238 L621.094,671.593 L614.632,669.797 L614.339,670.854"/>
        </g>
        <g id="2T8$eyisbFrgHxs7If76En" title="4093" comp_guid="product-9d23fa3c-b369-4fd6-a47b-d874a91c63b1-body">
            <path style="stroke:black; fill:none;" d="M583.856,622.758 L593.693,587.346 L634.396,598.654 L634.103,599.711 L640.564,601.506 L631.02,635.86 L583.856,622.758"/>
        </g>
        <g id="1zHJ0I4yb21wPTbeYsbIvO" title="4097" comp_guid="product-7d453012-13c9-4207-a65d-9688b6952e58-body">
            <path style="stroke:black; fill:none;" d="M604.296,549.181 L614.134,513.769 L655.719,525.322 L655.408,526.44 L660.988,527.99 L651.461,562.283 L604.296,549.181"/>
        </g>
        <g id="2dR6rW04b0VOZgA_DjDWU8" title="4100" comp_guid="product-a76c6d60-0049-407d-88ea-2be36d360788-body">
            <path style="stroke:black; fill:none;" d="M614.516,512.392 L624.354,476.981 L671.519,490.083 L661.992,524.377 L656.412,522.827 L656.101,523.945 L614.516,512.392"/>
        </g>
        <g id="05WwgMr95B_OMD6$Nl7nzN" title="4104" comp_guid="product-0583aa96-d491-4bf9-858d-1bf5ef1f1f57-body">
            <path style="stroke:black; fill:none;" d="M671.901,488.706 L624.737,475.603 L634.574,440.192 L676.221,451.762 L676.15,452.017 L676.089,452 L675.849,452.863 L681.428,454.413 L671.901,488.706"/>
        </g>
        <g id="1Jp7G3QMb30RDFuBE9EChj" title="4109" comp_guid="product-53cc7403-6969-4301-b34f-e0b38938caed-body">
            <path style="stroke:black; fill:none;" d="M692.342,415.129 L645.177,402.026 L655.009,366.634 L696.595,378.187 L696.289,379.286 L701.869,380.836 L692.342,415.129"/>
        </g>
        <g id="3t7KV3QGn5fRIfXupJU379" title="4111" comp_guid="product-f71d47c3-690c-45a5-b4a9-878cd37831c9-body">
            <path style="stroke:black; fill:none;" d="M655.392,365.257 L665.197,329.963 L712.362,343.066 L702.873,377.223 L697.293,375.673 L696.977,376.809 L655.392,365.257"/>
        </g>
        <g id="20K_bl$jbFdQk0V$2aQPJx" title="4117" comp_guid="product-8053e96f-fed9-4f9d-ab80-7ff0a46994fb-body">
            <path style="stroke:black; fill:none;" d="M712.81,341.453 L665.645,328.35 L675.458,293.028 L717.104,304.598 L716.808,305.664 L722.326,307.197 L712.81,341.453"/>
        </g>
        <g id="3pXpfcUpv3kvo6v$sN5Coe" title="4119" comp_guid="product-f3873a66-7b3e-43bb-9c86-e7fd9714cca8-body">
            <path style="stroke:black; fill:none;" d="M717.484,303.23 L675.838,291.661 L685.675,256.249 L732.84,269.352 L723.296,303.707 L717.778,302.174 L717.484,303.23"/>
        </g>
        <g id="3B3WuHauvFVOo47ESK6AzT" title="4124" comp_guid="product-cb0e0e11-938e-4f7d-8c84-1ce71418af5d-body">
            <path style="stroke:black; fill:none;" d="M733.223,267.975 L686.058,254.872 L695.896,219.461 L737.481,231.013 L737.17,232.131 L742.75,233.681 L733.223,267.975"/>
        </g>
        <g id="2pW7LW1Ir8GvXeABJNWdxT" title="4129" comp_guid="product-b3807560-052d-4843-9868-28b4d7827edd-body">
            <path style="stroke:black; fill:none;" d="M737.863,229.636 L696.278,218.083 L706.116,182.672 L753.281,195.775 L743.754,230.069 L738.174,228.518 L737.863,229.636"/>
        </g>
        <g id="2JWHGODdH0i9LwSviLzicF" title="4134" comp_guid="product-93811418-3674-40b0-957a-739b15f6c98f-body">
            <path style="stroke:black; fill:none;" d="M753.663,194.398 L706.499,181.295 L716.339,145.874 L757.924,157.427 L757.606,158.573 L763.185,160.123 L753.663,194.398"/>
        </g>
        <g id="2uI6rNy8TFtvrvNJDupoSr" title="4055" comp_guid="product-b8486d57-f087-4fdf-9d79-5d3378cf2735-body">
            <path style="stroke:black; fill:none;" d="M307.066,349.888 L351.456,311.717 L375.419,339.583 L335.371,374.02 L334.656,373.189 L330.313,376.923 L307.066,349.888"/>
        </g>
        <g id="218Uf9lQrDL9Vk5Yx6T7jD" title="4050" comp_guid="product-8121ea49-bdad-4d54-97ee-162ec6747b4d-body">
            <path style="stroke:black; fill:none;" d="M257.277,291.987 L301.668,253.816 L325.63,281.683 L285.63,316.078 L284.874,315.198 L280.483,318.974 L257.277,291.987"/>
        </g>
        <g id="0bq4DpzPj5nxWY6HSgva4E" title="4048" comp_guid="product-25d04373-f59b-45c7-b822-19172ae6410e-body">
            <path style="stroke:black; fill:none;" d="M233.139,263.916 L237.53,260.141 L236.774,259.261 L276.773,224.866 L300.735,252.732 L256.345,290.903 L233.139,263.916"/>
        </g>
        <g id="0BwhAcWpTAte0W7bpFG_rr" title="4046" comp_guid="product-0beab2a6-8337-4ade-8020-1e5ccf43ed75-body">
            <path style="stroke:black; fill:none;" d="M230.694,261.073 L207.488,234.087 L251.879,195.915 L275.841,223.782 L235.844,258.175 L235.088,257.295 L230.694,261.073"/>
        </g>
        <g id="0fuL99rpvFnu5Cmg2aU3ox" title="4043" comp_guid="product-29e15249-d73e-4fc7-814c-c2a0a4783cbb-body">
            <path style="stroke:black; fill:none;" d="M183.35,206.016 L187.741,202.24 L186.985,201.361 L226.984,166.965 L250.947,194.832 L206.557,233.003 L183.35,206.016"/>
        </g>
        <g id="0t$t75ipPBPhrxueAZrQGZ" title="4041" comp_guid="product-37ff71c5-b336-4b66-bd7b-e282a3d5a423-body">
            <path style="stroke:black; fill:none;" d="M157.7,176.186 L202.09,138.015 L226.052,165.881 L186.053,200.277 L185.297,199.397 L180.906,203.173 L157.7,176.186"/>
        </g>
        <g id="2teGIjE0r7B9hL_9MKoTbr" title="4039" comp_guid="product-b7a104ad-380d-472c-9ad5-f89594c9d975-body">
            <path style="stroke:black; fill:none;" d="M133.52,148.067 L137.863,144.333 L137.148,143.501 L177.196,109.064 L201.164,136.938 L156.774,175.109 L133.52,148.067"/>
        </g>
        <g id="2X0DVmfc1388xC1lw0IBGw" title="4037" comp_guid="product-a100d7f0-a660-4320-8ecc-06fe8048b43a-body">
            <path style="stroke:black; fill:none;" d="M131.159,145.32 L107.911,118.285 L152.301,80.114 L176.264,107.981 L136.216,142.418 L135.501,141.586 L131.159,145.32"/>
        </g>
        <g id="3Ly_TlxHb2r8TO6In$ENym" title="4085" comp_guid="product-d5f3e76f-ed19-42d4-8758-192c7f397f30-body">
            <path style="stroke:black; fill:none;" d="M594.841,744.693 L553.195,733.123 L563.032,697.712 L610.197,710.815 L600.653,745.17 L595.135,743.636 L594.841,744.693"/>
        </g>
        <g id="1fKWR0oKvDtOeh4irC$mjF" title="4022" comp_guid="product-695206c0-c94e-4ddd-8a2b-12cd4cff0b4f-body">
            <path style="stroke:black; fill:none;" d="M102.994,20.5805 L102.994,4.6993 L214.768,4.6993 L214.768,7.06354 L217.622,7.06354 L217.622,34.4175 L187.032,34.8834 L145.789,70.3485 L102.994,20.5805"/>
        </g>
        <g id="2LFs2VgwX04P8afhft9w6O" title="4081" comp_guid="product-953f609f-aba8-4011-9224-a6ba7727a198-body">
            <path style="stroke:black; fill:none;" d="M542.778,770.619 L552.812,734.5 L594.459,746.07 L594.165,747.127 L599.684,748.66 L589.943,783.722 L542.778,770.619"/>
        </g>
        <g id="3pVdq4BcTCcveTFKOe5IRu" title="4083" comp_guid="product-f37e7d04-2e67-4c9b-9a1d-3d46281526f8-body">
            <path style="stroke:black; fill:none;" d="M490.334,736.652 L492.951,727.233 L549.01,742.884 L546.413,752.232 L490.334,736.652"/>
        </g>
        <g id="1ySARTch55cPBu8xcI50uC" title="4002" comp_guid="product-7c70a6dd-9ab1-4599-92f8-23b992140e0c-body">
            <path style="stroke:black; fill:none;" d="M565.062,462.058 L498.85,385.059 A34.3969,34.3969 2.25142 0,1 530.025,378.741 L584.04,393.747 L575.91,423.275 L573.664,422.651 L572.668,426.235 L574.914,426.859 L565.062,462.058"/>
        </g>
        <g id="2FD1a84TzAzPXnyJ10MQrD" title="4063" comp_guid="product-8f341908-11df-4af5-9871-f1304059ad4d-body">
            <path style="stroke:black; fill:none;" d="M427.012,489.377 L432.097,485.004 L431.5,484.31 L470.805,450.511 L494.647,478.238 L491.05,481.336 L491.174,481.481 L450.384,516.557 L427.012,489.377"/>
        </g>
        <g id="3t$KqzEjf2ePw$KVTdxqdh" title="4031" comp_guid="product-f7fd4d3d-3ada-42a1-9ebf-51f767ef49eb-body">
            <path style="stroke:black; fill:none;" d="M33.0827,31.2652 L48.9218,17.6452 L48.9218,4.6993 L101.564,4.6993 L101.564,21.1106 L101.587,21.137 L57.1967,59.3081 L33.0827,31.2652"/>
        </g>
        <g id="2m95_jWZX7QvkRpar0nO2m" title="4033" comp_guid="product-b0245fad-8238-476b-9b9b-ce4d40c580b0-body">
            <path style="stroke:black; fill:none;" d="M58.1223,60.3845 L102.513,22.2133 L126.475,50.0799 L86.4755,84.4754 L85.7191,83.5957 L81.3283,87.3714 L58.1223,60.3845"/>
        </g>
        <g id="3nxSPES8T7kuy7dlqDjC0v" title="4035" comp_guid="product-f1edc64e-7087-47bb-8f07-9efd0db4c039-body">
            <path style="stroke:black; fill:none;" d="M83.7731,90.2144 L88.1639,86.4388 L87.4075,85.5592 L127.407,51.1637 L151.369,79.0302 L106.979,117.201 L83.7731,90.2144"/>
        </g>
        <g id="25$HqR2uf5gPjzapa9cRWR" title="4052" comp_guid="product-85fd1d1b-0b8a-45a9-9b7d-93390999b81b-body">
            <path style="stroke:black; fill:none;" d="M282.928,321.817 L287.319,318.042 L286.562,317.162 L326.562,282.766 L350.524,310.633 L306.134,348.804 L282.928,321.817"/>
        </g>
        <g id="3VLNUP4$916gRArzNEu37e" title="4057" comp_guid="product-df557799-13f2-411a-a6ca-d7d5cee031e8-body">
            <path style="stroke:black; fill:none;" d="M332.675,379.67 L337.018,375.935 L336.303,375.104 L376.351,340.667 L400.766,369.061 L356.376,407.232 L332.675,379.67"/>
        </g>
        <g id="2FUCg5l3jBXw8xdLJVgQs3" title="4068" comp_guid="product-8f78ca85-bc3b-4b87-a23b-9d54dfa9ad83-body">
            <path style="stroke:black; fill:none;" d="M455.148,572.532 L459.943,555.275 L462.692,556.038 L464.239,550.473 L461.489,549.709 L465.399,535.637 L467.285,536.161 L468.281,532.576 L467.982,532.477 L508.619,497.54 A65.3593,65.3593 0.478467 0,1 513.938,543.757 L512.263,549.858 L497.585,545.78 L487.645,581.56 L455.148,572.532"/>
        </g>
        <g id="3u5UrUbgzBcRcPrjYFH67_" title="4115" comp_guid="product-f815ed5e-96af-4b99-b999-d6d88f4461fe-body">
            <path style="stroke:black; fill:none;" d="M581.828,303.073 L593.095,262.515 L627.868,272.175 L616.085,314.587 L587.647,306.687 L588.162,304.833 L581.828,303.073"/>
        </g>
        <g id="0D9s_l2RjAkg_PlWvaNoME" title="4113" comp_guid="product-0d276faf-09bb-4aba-af99-be0e645f258e-body">
            <path style="stroke:black; fill:none;" d="M641.469,321.741 L702.28,102.849 L692.186,100.045 L696.799,83.4424 L735.193,94.1087 L720.869,145.659 L715.342,144.124 L664.241,328.067 L641.469,321.741"/>
        </g>
        <g id="0HS1GOPZz5JhtaV92LkchU" title="4078" comp_guid="product-11701418-663f-454e-bde4-7c9095ba6ade-body">
            <path style="stroke:black; fill:none;" d="M454.727,716.691 L460.896,694.486 L472.65,697.751 L472.77,697.318 L555.29,720.241 L549,742.882 L454.727,716.691"/>
        </g>
        <g id="0r88OUddjDMQ2ggJukUy7W" title="4059" comp_guid="product-3520861e-9e7b-4d59-a0aa-a93e2e7bc1e0-body">
            <path style="stroke:black; fill:none;" d="M374.887,428.759 L419.277,390.588 L444.982,420.481 L400.592,458.652 L389.76,446.055 L408.392,430.033 L402.264,422.907 L383.632,438.929 L374.887,428.759"/>
        </g>
        <g id="0CADCIEJ5EfvRAQqjRDvkB" title="4106" comp_guid="product-0c28d312-3931-4ea7-96ca-6b4b5b379b8b-body">
            <path style="stroke:black; fill:none;" d="M573.064,438.538 L576.209,427.219 L580.83,428.503 L581.826,424.919 L577.204,423.636 L585.404,394.121 L612.18,401.559 L599.84,445.976 L573.064,438.538"/>
        </g>
        <g id="2mTXOWuf12HQfbzTs0xRod" title="4076" comp_guid="product-b0761620-e290-4245-aa65-f5dd80edbca7-body">
            <path style="stroke:black; fill:none;" d="M424.49,682.888 L434.034,648.534 L440.496,650.329 L440.789,649.272 L481.493,660.58 L471.655,695.991 L424.49,682.888"/>
        </g>
        <g id="0f1VasPKj0JOP0NFhxr9lF" title="4074" comp_guid="product-2905f936-654b-404d-8640-5cfafbd49bcf-body">
            <path style="stroke:black; fill:none;" d="M435.004,645.043 L444.548,610.689 L491.713,623.791 L481.875,659.203 L441.172,647.895 L441.466,646.839 L435.004,645.043"/>
        </g>
        <g id="0EWWNkfqP8DvPy68sCBWT1" title="4060" comp_guid="product-0e8205ee-a746-4837-967c-188d8c2e0741-body">
            <path style="stroke:black; fill:none;" d="M401.524,459.736 L445.917,421.568 L469.88,449.435 L430.574,483.234 L429.735,482.258 L424.65,486.63 L401.524,459.736"/>
        </g>
        <g id="0HY$t8Z0nET8v4mvA85dPp" title="4107" comp_guid="product-118bfdc8-8c0c-4e74-8e44-c39288167673-body">
            <path style="stroke:black; fill:none;" d="M634.957,438.815 L644.794,403.404 L691.959,416.506 L682.432,450.8 L676.853,449.25 L676.542,450.368 L634.957,438.815"/>
        </g>
        <g id="3LfR_0wov0ARY6LeAorXBR" title="4087" comp_guid="product-d5a5bf80-eb2e-4029-b886-5682b2d612db-body">
            <path style="stroke:black; fill:none;" d="M540.011,681.918 L505.604,672.359 L507.91,664.098 L512.961,665.502 L514.114,661.351 L509.063,659.948 L511.796,650.089 L546.199,659.646 L540.011,681.918"/>
        </g>
        <g id="1kD5aX7v13hfa8z9$7lDsJ" title="4073" comp_guid="product-6e345921-1f90-43ae-9908-f49fc7bcdd93-body">
            <path style="stroke:black; fill:none;" d="M512.181,648.722 L518.526,625.882 L552.919,635.437 L546.574,658.277 L512.181,648.722"/>
        </g>
        <g id="0q0M4$r3L8OBQDhYoHjTS4" title="4103" comp_guid="product-3401613f-d435-4860-b68d-ae2c91b5d704-body">
            <path style="stroke:black; fill:none;" d="M566.33,462.78 L572.687,439.896 L604.792,448.815 L598.435,471.7 L566.33,462.78"/>
        </g>
        <g id="2kZGX8vIj4q8zahHdRzn0g" title="4062" comp_guid="product-ae8d0848-e52b-44d0-8f64-ad19dbf7102a-body">
            <path style="stroke:black; fill:none;" d="M470.383,409.543 L498.85,385.059 L516.681,405.795 L488.211,430.277 L470.383,409.543"/>
        </g>
        <g id="32QBc$X6j6DRUqy8MkdDJy" title="4009" comp_guid="product-c268b9bf-846b-4635-b7b4-f085ae9cd4fc-body">
            <path style="stroke:black; fill:none;" d="M370.928,287.512 L363.192,278.515 L379.893,264.151 L389.627,275.472 L385.656,278.887 L388.081,281.708 L395.098,275.676 L403.856,285.861 L380.844,305.649 L367.663,290.32 L370.928,287.512"/>
        </g>
        <g id="1aETqOYBT5Dh7jnbwyrbq5" title="4005" comp_guid="product-6439dd18-88b7-4536-b1ed-c65ebcd65d05-body">
            <path style="stroke:black; fill:none;" d="M398.002,325.602 L421.01,305.811 L443.672,332.166 L420.66,351.954 L398.002,325.602"/>
            <path style="stroke:black; fill:none;" d="M439.104,331.058 L434.168,335.303 L436.594,338.124 L441.53,333.879 L439.104,331.058"/>
        </g>
        <g id="0Ytckl__j4vhdWYHupl29W" title="4015" comp_guid="product-22de6baf-fbeb-44e6-b9e0-891e33bc2260-body">
            <path style="stroke:black; fill:none;" d="M320.531,235.271 L336.361,221.659 L338.245,223.848 L345.189,217.877 L361.721,237.103 L338.947,256.687 L320.531,235.271"/>
        </g>
        <g id="1e4kzEzUH8UQY8o6zVHqAp" title="4007" comp_guid="product-6812ef4e-f5e4-4879-a888-c86f5f4742b3-body">
            <path style="stroke:black; fill:none;" d="M442.231,251.852 L460.366,236.258 L475.89,254.311 L457.755,269.905 L442.231,251.852"/>
        </g>
        <g id="0mDpSVcZj11fF_jsefW2zL" title="4017" comp_guid="product-3037371f-9a3b-4106-93fe-b76a29802f55-body">
            <path style="stroke:black; fill:none;" d="M357.104,191.259 L375.02,175.853 L390.416,193.757 L372.5,209.163 L357.104,191.259"/>
        </g>
        <g id="3QI6UKoILDfeR8_V0NE8ia" title="4102" comp_guid="product-da486794-c925-4da6-86c8-f9f017388b24-body">
            <path style="stroke:black; fill:none;" d="M559.595,487.021 L565.952,464.139 L598.057,473.058 L591.701,495.94 L559.595,487.021"/>
        </g>
        <g id="0WLX1x0p93XgTPSLF05eXW" title="4032" comp_guid="product-2056107b-0332-4386-a759-7153c0168860-body">
            <path style="stroke:black; fill:none;" d="M10.2387,4.6993 L47.5071,4.6993 L47.5071,16.9959 L32.1604,30.1926 L10.2387,4.6993"/>
        </g>
        <g id="2foe3IcYb7LxCl3cb8jBcy" title="4114" comp_guid="product-a9ca80d2-9a29-4757-b32f-0e6948b4b9bc-body">
            <path style="stroke:black; fill:none;" d="M637.911,320.651 L617.453,314.967 L622.583,296.5 L645.258,302.799 L640.403,320.276 L638.186,319.66 L637.911,320.651"/>
        </g>
        <g id="3rNYib9oPBdQxu000m81m2" title="4116" comp_guid="product-f55e2b25-2726-4b9d-aef8-000030201c02-body">
            <path style="stroke:black; fill:none;" d="M622.957,295.136 L629.228,272.563 L651.912,278.865 L645.641,301.438 L622.957,295.136"/>
        </g>
        <!-- <g id="1Sjrd24Xn1pAY8GuxpZe0E" title="4.KRS" comp_guid="product-5cb759c2-121c-41cc-a888-438ef38e800e-body">
            <path style="stroke:black; fill:none;" d="M68.496,72.4484 L10.2387,4.6993 L260.477,4.70004 L281.487,29.1329 L261.444,46.3675 L277.212,64.7047 L257.912,81.3012 L293.722,122.945 L333.51,88.7312 L528.704,315.731 L538.367,323.912 L550.571,327.362 L563.145,325.428 L573.812,318.404 L580.595,307.522 L641.756,87.3555 L691.846,101.271 L696.799,83.4424 L736.562,94.4891 L742.665,72.5198 L784.302,84.0877 L769.452,137.564 L793.035,144.116 L781.504,185.621 L757.922,179.07 L749.012,211.141 L772.594,217.693 L761.063,259.197 L737.481,252.647 L728.571,284.718 L752.153,291.27 L740.623,332.775 L717.041,326.224 L708.131,358.295 L731.713,364.847 L720.183,406.352 L696.6,399.801 L687.69,431.873 L711.273,438.424 L699.742,479.929 L676.16,473.378 L667.25,505.45 L690.832,512.001 L679.302,553.506 L655.719,546.956 L646.809,579.026 L670.392,585.578 L658.861,627.083 L635.279,620.533 L626.369,652.604 L649.951,659.155 L638.421,700.66 L614.838,694.11 L605.928,726.181 L629.511,732.733 L617.98,774.238 L594.397,767.687 L589.943,783.722 L542.778,770.619 L547.781,752.612 L490.334,736.652 L492.931,727.304 L454.727,716.691 L461.279,693.109 L424.49,682.888 L428.752,667.561 L405.166,661.008 L416.697,619.504 L440.279,626.055 L465.392,535.635 L464.337,532.783 L439.995,504.475 L421.437,520.433 L393.352,487.771 L411.909,471.813 L400.592,458.652 L444.984,420.48 L419.282,390.587 L420.394,389.631 L401.88,368.103 L356.376,407.232 L345.524,394.612 L326.967,410.57 L298.881,377.908 L317.438,361.95 L295.736,336.712 L277.178,352.67 L249.092,320.008 L267.649,304.049 L245.947,278.811 L227.389,294.769 L199.303,262.107 L217.86,246.148 L196.158,220.91 L177.6,236.868 L149.514,204.206 L168.072,188.248 L146.37,163.01 L127.812,178.968 L99.7258,146.306 L118.283,130.347 L96.5809,105.109 L78.0243,121.066 L49.9401,88.4059 L68.496,72.4484"/>
        </g> -->
        <g id="0FefWgiJTEPxUiNHmLul$_" title="4067" comp_guid="product-0fa2982a-b137-4e67-b7ac-5d1c15e2fffe-body">
            <path style="stroke:black; fill:none;" d="M451.313,517.637 L495.703,479.465 L498.351,482.544 A66.3107,66.3107 0.745602 0,1 508.049,496.151 L466.32,532.034 L464.696,531.581 L464.356,532.804 L451.313,517.637"/>
        </g>
        <g id="3v4v2SocjDiQpUwQXZqoam" title="4084" comp_guid="product-f913909c-ca6b-4db1-acde-e9a863d32930-body">
            <path style="stroke:black; fill:none;" d="M497.207,702.623 L505.231,673.739 L539.624,683.294 L531.6,712.178 L497.207,702.623"/>
        </g>
        <g id="1VnjvdaoT9y9lfSRors$Nx" title="4092" comp_guid="product-5fc6de67-9327-49f0-9be9-71bcb5dbf5fb-body">
            <path style="stroke:black; fill:none;" d="M524.367,604.856 L529.778,585.38 L534.768,586.766 L536.209,581.578 L531.219,580.192 L539.201,551.463 A9.03659,9.03659 2.87289 0,1 554.751,547.954 L571.736,567.706 L558.76,614.411 L524.367,604.856"/>
        </g>
        <g id="1y4uVsUN580PlPDcExpJdl" title="4071" comp_guid="product-7c1387f6-7971-4801-9bd9-3663bbcd39ef-body">
            <path style="stroke:black; fill:none;" d="M444.929,609.316 L454.768,573.9 L501.943,587.005 L492.104,622.422 L444.929,609.316"/>
        </g>
        <g id="3qv$3h5lLCM9GuKLzyQMgq" title="4066" comp_guid="product-f4e7f0eb-16f5-4c58-9438-515f7c696ab4-body">
            <path style="stroke:black; fill:none;" d="M515.174,461.632 L542.567,438.076 L564.605,463.704 L557.854,488.005 L591.322,497.303 L584.136,523.167 A8.05016,8.05016 -0.32207 0,1 570.672,526.172 L557.791,511.193 L559.89,503.668 L551.727,501.401 L551.152,503.472 L515.174,461.632"/>
        </g>
        <g id="17GEsQlXfAoRBZbAMWzKvP" title="4008" comp_guid="product-4740ed9a-be1a-4ac9-b2e3-94a5a0f54e59-body">
            <path style="stroke:black; fill:none;" d="M381.674,306.614 L404.686,286.826 L420.18,304.846 L397.172,324.637 L381.674,306.614"/>
        </g>
        <g id="2pLLPtbKr4Fe1eKJv8YUtC" title="4142" comp_guid="product-b3555677-954d-443e-8068-513e4889edcc-body">
            <path style="stroke:black; fill:none;" d="M722.237,146.039 L742.663,72.5191 L780.628,83.067 L780.343,84.0946 L784.024,85.1171 L764.19,156.511 L758.61,154.96 L758.305,156.059 L722.237,146.039"/>
        </g>
        <g id="1V2HKxpgvDy8ivR3YBDKq4" title="4019" comp_guid="product-5f09153b-ceae-4df0-8b39-6c388b354d04-body">
            <path style="stroke:black; fill:none;" d="M309.897,222.529 L251.798,154.963 L274.201,135.699 L332.301,203.264 L309.897,222.529"/>
            <path style="stroke:black; fill:none;" d="M290.996,158.857 L286.078,163.085 L288.504,165.906 L293.421,161.678 L290.996,158.857"/>
        </g>
        <g id="2oGOdhZB5Dqez4UTQ1sdTu" title="4003" comp_guid="product-b24189eb-8cb1-4dd2-8f44-79d681da7778-body">
            <path style="stroke:black; fill:none;" d="M418.791,387.83 L252.362,194.286 L270.208,178.94 L446.728,384.221 L474.268,360.539 L447.235,329.102 L444.637,331.336 L439.186,324.997 L457.031,309.651 L463.415,317.075 L463.4,317.087 L514.451,376.424 A36.3808,36.3808 2.29175 0,0 496.828,384.911 L468.367,409.385 L436.636,372.485 L418.791,387.83"/>
        </g>
        <g id="0ZWKPq4XPDgeUf0NJgZypi" title="4004" comp_guid="product-23814674-1216-4daa-87a9-0174ea8fccec-body">
            <path style="stroke:black; fill:none;" d="M334.662,203.442 L313.38,178.677 L331.211,163.355 L331.226,163.341 L456.1,308.567 L438.254,323.913 L395.233,273.881 L392.192,276.496 L360.693,239.873 L363.737,237.255 L345.341,215.861 L342.297,218.478 L331.618,206.06 L334.662,203.442"/>
        </g>
        <g id="3dDAh$1Nb268$7B$bT22AI" title="4028" comp_guid="product-e734aaff-0579-4218-8fc7-2ff95d082292-body">
            <path style="stroke:black; fill:none;" d="M245.424,125.38 L237.765,116.473 L247.857,107.795 L255.516,116.702 L245.424,125.38"/>
        </g>
        <g id="13x2r8TWH57grkNDxvTO6P" title="4122" comp_guid="product-43ec2d48-7604-451e-ad6e-5cdef9758199-body">
            <path style="stroke:black; fill:none;" d="M628.25,270.797 L593.478,261.137 L600.81,234.745 L607.083,236.488 L608.524,231.3 L602.251,229.557 L605.26,218.725 L640.033,228.385 L628.25,270.797"/>
        </g>
        <g id="0zQlMTGHHCLRBlhs8q8L0D" title="4123" comp_guid="product-3d6af59d-4114-4c55-b2ef-af623421500d-body">
            <path style="stroke:black; fill:none;" d="M629.605,271.204 L635.887,248.594 L658.571,254.895 L652.29,277.506 L629.605,271.204"/>
        </g>
        <g id="1nCj7LgDD1ShNYFdar5k55" title="4121" comp_guid="product-7132d1d5-a8d3-4172-b5e2-3e793516e145-body">
            <path style="stroke:black; fill:none;" d="M658.963,253.541 L636.264,247.235 L641.393,228.775 L664.092,235.079 L660.862,246.704 L656.443,245.476 L655.447,249.061 L659.866,250.288 L658.963,253.541"/>
        </g>
        <g id="2ZnWrBJgv1NgT_sVAwiPsL" title="4127" comp_guid="product-a3c60d4b-4eae-415e-a77e-d9f2bab19d95-body">
            <path style="stroke:black; fill:none;" d="M640.416,227.008 L605.643,217.348 L617.426,174.935 L652.198,184.596 L640.416,227.008"/>
        </g>
        <g id="0oSYewwLP6j86fjMNatEud" title="4128" comp_guid="product-32722a3a-e956-46b4-81a9-b565e4dcee27-body">
            <path style="stroke:black; fill:none;" d="M647.288,207.557 L653.558,184.986 L676.256,191.292 L669.986,213.862 L647.288,207.557"/>
        </g>
        <g id="1Uat6IF116rxLsgglpeAiN" title="4126" comp_guid="product-5e937192-3c10-46d7-b576-aaabf3a0ab17-body">
            <path style="stroke:black; fill:none;" d="M641.741,227.381 L646.91,208.915 L669.608,215.221 L664.476,233.697 L641.741,227.381"/>
        </g>
        <g id="1Tr0V_8kz3Q82vkEY$pYSU" title="4132" comp_guid="product-5dd407fe-22ef-4368-80b9-b8e8bfce271e-body">
            <path style="stroke:black; fill:none;" d="M617.808,173.558 L621.25,161.168 L627.523,162.911 L628.965,157.723 L622.692,155.98 L629.591,131.146 L664.363,140.806 L652.581,183.218 L617.808,173.558"/>
        </g>
        <g id="2NYuIZSobFYOPQSbmIBaoM" title="4133" comp_guid="product-978b84a3-7329-4f89-865a-725c122e4c96-body">
            <path style="stroke:black; fill:none;" d="M659.453,163.767 L665.724,141.194 L688.422,147.5 L682.151,170.073 L659.453,163.767"/>
        </g>
        <g id="1rRW6BWSP50Rdu94ksdOHU" title="4140" comp_guid="product-756e018b-81c6-4501-b9f8-244bb69d845e-body">
            <path style="stroke:black; fill:none;" d="M666.101,139.836 L672.383,117.225 L695.081,123.531 L688.8,146.142 L666.101,139.836"/>
        </g>
        <g id="2lTjAU60H1juJRf5$tZzKc" title="4131" comp_guid="product-af76d29e-1804-41b7-84db-a45ff78fd526-body">
            <path style="stroke:black; fill:none;" d="M676.63,189.928 L653.937,183.623 L659.074,165.13 L681.768,171.435 L681.298,173.125 L676.883,171.899 L675.887,175.483 L680.302,176.71 L676.63,189.928"/>
        </g>
        <g id="0NFLFxGBz7oQb$s5TlypRM" title="4138" comp_guid="product-173d53fb-40bf-47c9-a97f-d8576ff336d6-body">
            <path style="stroke:black; fill:none;" d="M672.762,115.862 L677.892,97.3944 L700.586,103.699 L695.455,122.167 L672.762,115.862"/>
        </g>
        <g id="3K$fi6tTb1M8GlqOP7sB_B" title="4018" comp_guid="product-d4fe9b06-ddd9-4158-842f-d18647d8bf8b-body">
            <path style="stroke:black; fill:none;" d="M489.134,431.349 L516.53,407.797 L541.639,436.996 L514.248,460.556 L489.134,431.349"/>
        </g>
        <g id="3WtQbI9I5DSedKx2iZnpMz" title="4070" comp_guid="product-e0dda952-2521-4d72-89d4-ec2b23c735bd-body">
            <path style="stroke:black; fill:none;" d="M489.013,581.94 L493.622,565.35 L506.932,569.047 L502.323,585.638 L489.013,581.94"/>
        </g>
        <g id="156dNhWu16M8JhaGDDZuAL" title="4069" comp_guid="product-451a75eb-8380-4658-84eb-91034d8f8295-body">
            <path style="stroke:black; fill:none;" d="M494.002,563.982 L498.573,547.528 L511.883,551.226 L507.312,567.679 L494.002,563.982"/>
        </g>
        <g id="0r1bnC4J13Og5AxCcxL45W" title="4072" comp_guid="product-35065c4c-1130-4362-a14a-ecc9bb544160-body">
            <path style="stroke:black; fill:none;" d="M518.909,624.505 L523.985,606.233 L558.378,615.788 L553.302,634.06 L518.909,624.505"/>
        </g>
        <g id="3rO_eLqTj95h1NJTrczlzt" title="4095" comp_guid="product-f563ea15-d1db-4916-b057-4ddd66f6ff77-body">
            <path style="stroke:black; fill:none;" d="M594.076,585.969 L603.913,550.558 L651.078,563.661 L641.534,598.015 L635.073,596.22 L634.779,597.277 L594.076,585.969"/>
        </g>
        <g id="3SiNEQW_X3yey0f_ouI_Oc" title="4139" comp_guid="product-dcb1739a-83e8-43f2-8f00-a7ecb84be626-body">
            <path style="stroke:black; fill:none;" d="M629.974,129.769 L641.756,87.3563 L676.529,97.0164 L664.746,139.429 L629.974,129.769"/>
        </g>
        <g id="134MWXEbb6gQnm5pjdW7Pd" title="4020" comp_guid="product-43116821-3a59-46a9-ac70-173b67807667-body">
            <path style="stroke:black; fill:none;" d="M331.189,161.114 L307.287,133.318 L344.403,101.402 L368.305,129.198 L331.189,161.114"/>
        </g>
        <g id="2ubmps6w9B9PXr6Q11aMYY" title="4021" comp_guid="product-b8970cf6-1ba2-4b25-9875-19a0419168a2-body">
            <path style="stroke:black; fill:none;" d="M303.592,114.454 L333.507,88.7303 L343.478,100.325 L313.562,126.05 L303.592,114.454"/>
        </g>
        <g id="2DfnXDUxDFaAtbIqYiX3cg" title="4024" comp_guid="product-8da7184d-7bb3-4f90-ade5-4b48ac8439aa-body">
            <path style="stroke:black; fill:none;" d="M244.144,63.1097 L262.365,47.4414 L277.209,64.7038 L258.989,80.3726 L244.144,63.1097"/>
        </g>
        <g id="2k4ZTSHKTC1QWfN7cB0MTM" title="4027" comp_guid="product-ae12375c-4547-4c05-a829-5c798b016756-body">
            <path style="stroke:black; fill:none;" d="M234.271,134.972 L226.613,126.065 L236.682,117.406 L244.338,126.309 L234.271,134.972"/>
        </g>
        <!-- <g id="0AwNxoWbjEpgxmD_hAXZEZ" title="4.KRS" comp_guid="product-0ae97ef2-825b-4ece-aef0-37eaca8633a3-body">
            <path style="stroke:black; fill:none;" d="M400.592,458.652 L356.376,407.232 L401.88,368.103 L420.391,389.63 L419.277,390.588 L444.982,420.481 L400.592,458.652"/>
        </g>
        <g id="1rM7wXX$v6Zvf9QM9Fatof" title="4.KRS" comp_guid="product-75587ea1-87fe-468f-9a49-69624f937ca9-body">
            <path style="stroke:black; fill:none;" d="M257.909,81.3003 L277.209,64.7038 L261.443,46.3687 L281.486,29.1341 L333.062,89.1133 L293.719,122.944 L257.909,81.3003"/>
        </g>
        <g id="2gv8kKHsD6NwiRuZ35a_za" title="4.KRS" comp_guid="product-aae48b94-4763-465f-ab1b-e230c593ef64-body">
            <path style="stroke:black; fill:none;" d="M641.756,87.3555 L642.28,85.4689 L642.846,85.6261 L665.329,4.6993 L806.364,4.6993 L784.308,84.0887 L742.662,72.5189 L736.559,94.4883 L696.799,83.4424 L691.846,101.271 L641.756,87.3555"/>
        </g>
        <g id="2VIRmG3Gz2Cu$QcBEkSi2k" title="4.KRS" comp_guid="product-9f49bc10-0d0f-4233-8fda-98b3ae72c0ae-body">
            <path style="stroke:black; fill:none;" d="M424.49,682.888 L461.279,693.109 L454.727,716.691 L492.931,727.304 L490.334,736.652 L547.781,752.612 L542.778,770.619 L594.471,784.98 L593.999,786.678 L612.205,791.736 L583.3,895.781 L451.238,859.093 L480.615,753.35 L410.339,733.826 L424.49,682.888"/>
        </g> -->
        <g id="0faz8sVDfFVfsJLxAdAhu9" title="4025" comp_guid="product-2993d236-7cda-4f7e-9d93-57b2a72abe09-body">
            <path style="stroke:black; fill:none;" d="M225.687,124.989 L165.636,55.1541 L186.882,36.8853 L246.931,106.719 L225.687,124.989"/>
            <path style="stroke:black; fill:none;" d="M191.437,43.0392 L186.453,47.3255 L188.878,50.1463 L193.863,45.86 L191.437,43.0392"/>
            <path style="stroke:black; fill:none;" d="M241.226,100.94 L236.241,105.226 L238.667,108.047 L243.652,103.761 L241.226,100.94"/>
        </g>
        <g id="0M2lEfaxrAg8rFrCZQX5Uy" title="4045" comp_guid="product-160af3a9-93bd-4aa8-8d4f-d4c8da8457bc-body">
            <path style="stroke:black; fill:none;" d="M251.271,193.016 L145.789,70.3485 L163.634,55.0033 L234.117,136.97 L257.515,116.85 L187.032,34.8834 L217.622,34.4175 L304.615,135.615 L306.207,134.246 L330.135,162.072 L312.286,177.42 L274.379,133.338 L249.437,154.785 L269.116,177.671 L251.271,193.016"/>
        </g>
    </g>
</svg>
