<?xml version="1.0" encoding="utf-8"?>
<!-- Generator: Adobe Illustrator 18.0.0, SVG Export Plug-In . SVG Version: 6.00 Build 0)  -->
<!DOCTYPE svg PUBLIC "-//W3C//DTD SVG 1.1//EN" "http://www.w3.org/Graphics/SVG/1.1/DTD/svg11.dtd">
<svg version="1.1" id="Layer_1" xmlns="http://www.w3.org/2000/svg" xmlns:xlink="http://www.w3.org/1999/xlink" x="0px" y="0px"
	 viewBox="0 0 841.9 595.3" enable-background="new 0 0 841.9 595.3" xml:space="preserve">
<g>
	<g id="icon-pin">
		<path d="M701.7,363.3c-34.8,0.1-63,28.3-63.1,63.1c0,14,9,36.8,27.4,69.9c13,23.3,25.8,42.8,26.4,43.6l9.4,14.2l9.4-14.2
			c0.5-0.8,13.4-20.3,26.4-43.6c18.4-33,27.4-55.9,27.4-69.9C764.8,391.5,736.5,363.3,701.7,363.3z"/>
	</g>
	<g id="icon-search">
		<path d="M209,337.9c0.2,0.2,0.2,0.5,0,0.7l-0.7,0.7c-0.2,0.2-0.5,0.2-0.7,0l-5-5c-0.1-0.1-0.1-0.1-0.1-0.2c-1,0.7-2.3,1.2-3.6,1.2
			c-3.4,0-6.1-2.8-6.1-6.1c0-3.4,2.8-6.1,6.1-6.1c3.4,0,6.1,2.8,6.1,6.1c0,1.4-0.4,2.6-1.2,3.6c0.1,0,0.1,0.1,0.2,0.1L209,337.9
			L209,337.9z M198.9,325.1c-2.3,0-4.1,1.8-4.1,4.1s1.8,4.1,4.1,4.1s4.1-1.8,4.1-4.1C203,326.9,201.2,325.1,198.9,325.1z"/>
	</g>
	<g id="icon-stack">
		<path d="M166,327.6l-9.8-4.9l-9.8,4.9l9.8,4.9L166,327.6z M156.2,324.3l6.5,3.3l-6.5,3.3l-6.5-3.3
			C149.7,327.6,156.2,324.3,156.2,324.3z M164,330.2l2,1l-9.8,4.9l-9.8-4.9l2-1l7.8,3.9L164,330.2z M164,333.9l2,1l-9.8,4.9
			l-9.8-4.9l2-1l7.8,3.9L164,333.9z"/>
	</g>
	<g id="icon-cross">
		<path d="M107.8,331.2c0.2,0,0.3,0.1,0.5,0.2c0.1,0.1,0.2,0.3,0.2,0.5c0,0.2-0.1,0.3-0.2,0.5l-4,4l4,4c0.1,0.1,0.2,0.3,0.2,0.5
			c0,0.2-0.1,0.3-0.2,0.5c-0.1,0.1-0.3,0.2-0.5,0.2c-0.2,0-0.3-0.1-0.5-0.2l-4-4l-4,4c-0.1,0.1-0.3,0.2-0.5,0.2
			c-0.2,0-0.3-0.1-0.5-0.2c-0.1-0.1-0.2-0.3-0.2-0.5c0-0.2,0.1-0.3,0.2-0.5l4-4l-4-4c-0.1-0.1-0.2-0.3-0.2-0.5
			c0-0.2,0.1-0.3,0.2-0.5c0.1-0.1,0.3-0.2,0.5-0.2c0.2,0,0.3,0.1,0.5,0.2l4,4l4-4C107.5,331.3,107.6,331.2,107.8,331.2z"/>
	</g>
	<g id="icon-droplet">
		<path d="M60.9,342.2c-1.5-4.3-4.8-8.1-8.2-11c-3.4,2.9-6.7,6.7-8.2,11c-0.9,2.6-1,5.5,0.3,8c1.5,2.9,4.6,4.8,7.9,4.8
			s6.4-1.9,7.9-4.8C61.9,347.7,61.8,344.9,60.9,342.2L60.9,342.2z M57.9,348.9c-1,1.9-3.1,3.2-5.3,3.2c-1.3,0-2.5-0.4-3.5-1.2
			c0.3,0,0.6,0.1,0.9,0.1c2.7,0,5.3-1.6,6.6-4c1-2,1-4,0.6-5.7c0.3,0.7,0.6,1.3,0.9,2C58.6,344.7,59,346.9,57.9,348.9z"/>
	</g>
	<g id="icon-shoe">
		<path d="M241.6,288.6c-0.1,0.1-0.2,0.2-0.4,0.3l0,0l1,1.5l-0.8,0.5l-0.9-1.5c-0.1,0.1-0.3,0.2-0.4,0.3l0.9,1.4l-0.8,0.5l-0.9-1.3
			c-0.1,0.1-0.3,0.2-0.4,0.3l0,0l0.9,1.3l-0.8,0.5l-1-1.5c-0.1,0-0.2,0-0.3,0c-0.3,0-0.7,0-1,0l0,0v0.5c0,0.2,0,0.5,0.2,0.7
			c0.2,0.4,0.6,0.7,1.2,0.7h5.2c0.6,0,1,0.3,1.3,0.7c0.1,0.2,0.1,0.3,0.2,0.5c1.9-0.3,4.3-0.2,4.3-0.2h6.7c0-1.3-0.1-3.2-0.5-4.6
			l-0.2,0.1c-0.1,0.1-0.2,0.2-0.5,0.4c-0.4,0.3-0.8,0.6-1.3,0.9c-1.4,0.8-3,1.2-4.8,1.2c-2.8,0-4.6-1.5-5.6-3.4
			c0-0.1-0.1-0.3-0.3-0.7l0,0c-0.2,0.1-0.3,0.2-0.5,0.3l1,1.5l-0.8,0.5L241.6,288.6L241.6,288.6z M235.8,291c-0.6,0-0.9,0-0.9,0
			c-1.6,0-2.9,1.3-2.9,2.9c0,0.3,0,0.6,0.1,0.9l0,0h8.4c1.1,0,2.2-0.2,3.3-0.5c0-0.1,0-0.2-0.1-0.3c-0.1-0.1-0.2-0.2-0.4-0.2h-5.2
			c-1,0-1.7-0.5-2.1-1.2c-0.2-0.4-0.3-0.9-0.3-1.2L235.8,291L235.8,291z M232.5,295.7c0.7,1.1,1.9,1.9,3.3,1.9h18.1
			c1.1,0,1.9-0.9,1.9-1.9c0,0,0-0.4,0-1h-6.7c0,0-2.9,0-4.5,0.3c-1.4,0.3-2.8,0.6-4.1,0.6C240.5,295.7,232.5,295.7,232.5,295.7z
			 M243.7,287.5c0.5-0.2,1-0.3,1.6-0.3c1.4,0,1,1.9,3.8,1.9c2.9,0,2.6-1.9,4.8-1.9c0.5,0,0.9,0.5,1.2,1.2l-0.5,0.3
			c-0.1,0.1-0.3,0.2-0.5,0.4c-0.3,0.3-0.7,0.5-1.2,0.8c-1.3,0.7-2.7,1.1-4.3,1.1c-2.3,0-3.9-1.3-4.7-2.9
			C243.9,288.1,243.8,287.8,243.7,287.5L243.7,287.5L243.7,287.5z"/>
	</g>
	<g id="icon-apple">
		<path d="M201.8,286.4c1-0.5,1.8-1.5,2.3-2.5c0.4-0.9,0.6-1.9,0.6-2.9c0-0.3-0.2-0.5-0.5-0.5c-0.1,0-0.2,0-0.2,0.1c0,0,0,0-0.1,0
			c-0.7,0.3-1.4,0.5-2.1,0.8c-0.7,0.3-1.3,0.7-1.8,1.2c-0.8,0.7-1.5,1.4-2,2.3c-0.3-0.6-0.7-1.2-1.2-1.8c-0.6-0.7-1.4-1.3-2.2-1.8
			c-0.5-0.3-1.1-0.1-1.4,0.4c-0.3,0.5-0.1,1.1,0.4,1.4c0.3,0.1,0.5,0.3,0.8,0.5c0.4,0.3,0.8,0.7,1.2,1.2c0.4,0.5,0.7,1.1,1,1.7
			c0.2,0.6,0.4,1.2,0.5,1.8c0.5,0.2,0.9,0.5,1.2,0.7c0.3-0.2,0.6-0.4,0.9-0.6c-0.1-0.5-0.2-1-0.3-1.4
			C199.9,287,200.9,286.9,201.8,286.4L201.8,286.4z M198.9,285.9C198.9,285.9,198.9,285.9,198.9,285.9c-0.1,0-0.1,0-0.2,0
			c0,0-0.1,0-0.1,0c0,0,0,0,0,0c0-0.1,0.1-0.1,0.1-0.2c0.1-0.3,0.3-0.6,0.5-0.9c0-0.1,0.1-0.1,0.1-0.2c0,0,0-0.1,0-0.1
			c0,0,0.1-0.1,0.1-0.1c0.1-0.1,0.2-0.3,0.4-0.4c0.2-0.2,0.5-0.5,0.7-0.7c0.1-0.1,0.2-0.2,0.4-0.3c0,0,0,0,0.1,0c0,0,0.1,0,0.1-0.1
			c0.1-0.1,0.2-0.1,0.2-0.2c0.3-0.2,0.6-0.4,0.9-0.6c0.1,0,0.2-0.1,0.2-0.1c0,0,0,0,0,0c0,0,0,0,0,0c0,0,0.1,0,0.1,0
			c0.2-0.1,0.3-0.1,0.5-0.2c0.2-0.1,0.3-0.1,0.5-0.2c0,0,0,0.1,0,0.1c0,0,0,0,0,0c0,0,0,0.1,0,0.1c0,0.1,0,0.1,0,0.2
			c0,0.1-0.1,0.3-0.1,0.4c0,0.1-0.1,0.3-0.1,0.4c0,0.1,0,0.1-0.1,0.2c0,0,0,0,0,0c0,0,0,0.1,0,0.1c-0.1,0.3-0.2,0.5-0.4,0.7
			c-0.1,0.1-0.1,0.2-0.2,0.3c0,0-0.1,0.1-0.1,0.1c0,0.1-0.1,0.1-0.1,0.2c-0.2,0.2-0.4,0.4-0.5,0.5c0,0-0.1,0.1-0.1,0.1
			c-0.1,0-0.1,0.1-0.2,0.1c-0.1,0.1-0.2,0.1-0.4,0.2c-0.1,0-0.1,0.1-0.2,0.1c0,0-0.1,0-0.1,0c0,0,0,0,0,0c-0.1,0.1-0.3,0.1-0.4,0.1
			c-0.2,0-0.3,0.1-0.5,0.1c0,0,0,0,0,0c0,0-0.1,0-0.1,0c-0.1,0-0.2,0-0.3,0C199.4,285.9,199.2,285.9,198.9,285.9
			C198.9,285.9,198.9,285.9,198.9,285.9L198.9,285.9z"/>
		<path d="M197.2,289.2c-1.1-0.6-2.5-0.9-3.6-0.9c0,0,0,0,0,0c-3.8,0-5.7,1.7-5.9,6.2c-0.2,4.5,3.5,9.9,9.1,9.9c0,0,0,0,0,0
			c0.5,0,1.1-0.4,1.5-0.8c0.4,0.3,1,0.8,1.5,0.8c0,0,0,0,0,0c5.6,0,9.3-5.4,9.1-9.9c-0.2-4.5-2.1-6.2-5.9-6.2c0,0,0,0,0,0
			c-1.2,0-2.6,0.3-3.7,0.9c0,0,0,0,0,0c-0.4,0.2-0.7,0.5-1,0.9C198,289.7,197.6,289.4,197.2,289.2L197.2,289.2z"/>
	</g>
	<g id="icon-heart">
		<path d="M159.6,281.9c-2.5,0-4.7,2-5.7,4.2c-1-2.1-3.2-4.2-5.7-4.2c-3.5,0-6.3,2.8-6.3,6.3c0,7,7.1,8.9,11.9,15.8
			c4.6-6.9,11.9-9,11.9-15.8C165.8,284.7,163,281.9,159.6,281.9z"/>
	</g>
	<g id="icon-wrench">
		<path d="M114.8,304.8l-10.7-9.2c0.5-0.9,0.8-2,0.8-3.1c0-3.7-3-6.7-6.7-6.7c-0.7,0-1.3,0.1-1.9,0.3l3.9,3.9c0.6,0.6,0.6,1.5,0,2.1
			l-2.4,2.4c-0.6,0.6-1.5,0.6-2.1,0l-3.9-3.9c-0.2,0.6-0.3,1.3-0.3,1.9c0,3.7,3,6.7,6.7,6.7c1.1,0,2.2-0.3,3.1-0.8l9.2,10.7
			c0.5,0.6,1.4,0.7,2,0.1l2.4-2.4C115.4,306.2,115.4,305.3,114.8,304.8L114.8,304.8z"/>
	</g>
	<g id="icon-appleheart">
		<path d="M56.6,292.4L56.6,292.4c0.8,0,3.4-0.4,4.4-1.3c1.1-0.9,1.5-2.1,1.7-2.9c0.2-0.8,0.2-1.8-0.2-2.2c-0.1-0.2-0.4-0.2-0.8-0.2
			c-1,0-3.1,0.4-4.4,1.5c-1.2,1-1.6,2.6-1.7,3.7c0,0.9,0.2,1.1,0.3,1.2C56.1,292.4,56.4,292.4,56.6,292.4L56.6,292.4z"/>
		<path d="M65.3,298.7c0-1.6-0.7-3.1-1.9-4.3c-0.9-0.9-2-1.4-3.3-1.4c-1.1,0-2.2,0.4-3.1,0.7c-0.6,0.2-1.2,0.4-1.5,0.4
			c-0.4,0-1-0.2-1.5-0.4c-0.9-0.3-2-0.7-3.1-0.7c-1.3,0-2.3,0.5-3.3,1.4c-1.2,1.2-1.9,2.7-1.9,4.3c0,1.4,0.3,2.6,0.6,3.5l0,0.1
			c0.3,0.9,0.9,2.6,1.8,4.2c1.3,2,2.7,3.1,4.2,3.1c1.8,0,2.4-0.3,2.9-0.6c0.1-0.1,0.2-0.1,0.2-0.1c0.1,0,0.1,0,0.3,0.1
			c0.5,0.2,1.1,0.5,2.8,0.5c1.5,0,2.9-1,4.2-3.1c1-1.6,1.6-3.3,1.8-4.2l0-0.1C65,301.3,65.4,300.1,65.3,298.7L65.3,298.7z
			 M59.3,301.5c-0.6,0.9-3.3,3.2-3.7,3.2c-0.4,0-3.2-2.3-3.8-3.2c-0.3-0.5-0.5-1-0.5-1.6c0.1-1.2,1-2.1,2.2-2.1c1.2,0,1.8,1,2,1
			c0.2,0,0.9-1,2-1c1.2,0,2.1,1,2.2,2.1C59.8,300.6,59.6,301.1,59.3,301.5z"/>
	</g>
	<g id="icon-avocado">
		<path d="M203.7,241c-2.6,0.8-5.4,2.4-6.9,3.9c-2.9,2.9-3.1,7.4-0.4,10.1c2.7,2.7,7.2,2.5,10.1-0.4c1.5-1.5,3.1-4.3,3.9-6.9
			c0.9-3,0.8-5.3-0.3-6.4C209,240.2,206.6,240.1,203.7,241L203.7,241z M203.9,252.9c-1.5,1.4-3.9,1.3-5.3-0.2s-1.3-3.9,0.2-5.3
			s3.9-1.3,5.3,0.2S205.4,251.5,203.9,252.9z"/>
		<path d="M214,240.3c-0.3-0.7-0.7-1.3-1.1-1.8c-1.1-1.1-2.8-1.7-5-1.7c-1.4,0-2.9,0.2-4.6,0.7c-1.8,0.5-3.6,1.2-5.3,2.2
			c-1.7,0.9-3.2,2-4.2,3c-1,1-1.8,2.2-2.3,3.5c-0.5,1.3-0.8,2.6-0.8,4c0,1.4,0.3,2.7,0.8,4c0.5,1.3,1.3,2.5,2.3,3.5
			c1,1,2.2,1.8,3.5,2.3c1.3,0.5,2.6,0.8,4,0.8h0c1.4,0,2.7-0.3,4-0.8c1.3-0.5,2.5-1.3,3.5-2.3c1-1,2.1-2.5,3-4.2
			c0.9-1.7,1.7-3.5,2.2-5.3c0.6-2.1,0.8-3.9,0.7-5.5C214.4,241.8,214.3,241,214,240.3L214,240.3z M212,247.6c-0.5,1.6-1.1,3.3-2,4.9
			c-0.8,1.5-1.8,2.9-2.7,3.7c-1.6,1.6-3.8,2.5-6.1,2.5h0c-2.3,0-4.4-0.9-6.1-2.5c-1.6-1.6-2.5-3.8-2.5-6.1c0-2.3,0.9-4.4,2.5-6.1
			c0.9-0.9,2.2-1.8,3.7-2.7c1.6-0.9,3.3-1.5,4.9-2c1.5-0.4,2.8-0.6,4-0.6c1.6,0,2.9,0.4,3.6,1.1C212.8,241.2,213,244.1,212,247.6
			L212,247.6z"/>
	</g>
	<g id="icon-star">
		<path d="M243.9,252.2l-7.5,5l3.3-8.3l-7.5-5h8.3l3.3-8.3l3.3,8.3h8.3l-7.5,5l3.3,8.3L243.9,252.2z"/>
	</g>
	<g id="icon-bananas">
		<path d="M150.9,253.5c1,0,2-0.2,2.9-0.4c1-0.3,1.9-0.7,2.6-1.3c1.2-0.8,2.2-1.9,2.9-3.2c0-0.1,0.1-0.2,0.1-0.3
			c0.2-0.5,0.5-1,0.7-1.6c0-0.1,0.1-0.3,0.1-0.4c0.1-0.5,0.3-1.1,0.7-1.6l-0.2-1.9c0-0.4,0-0.7,0.1-1.1c0.2-0.5,0.5-0.9,0.9-1.1
			c0.1-0.1,0.3-0.1,0.4-0.1c0,0,0,0,0,0c0,0,0.2,0,0.5,0c0.1-0.6,0.2-1.4,0.2-1.4c-0.2-0.8-1.9-1.4-2-1.4c-0.3,0.1-0.6,0.4-0.7,0.9
			l-0.4,2.3l0,0c0,0,0,0,0,0l0,0c0,0-0.1,0-0.1,0.1c-0.5,0.2-0.7,0.7-1,1.1c-0.1,0.2-0.2,0.3-0.3,0.5c-0.3,0.5-0.7,1-1.1,1.4
			c-0.1,0.1-0.2,0.2-0.2,0.3c-1.2,1.2-2.5,2-4.1,2.6c-2.2,0.8-4.8,0.8-7.1,0c-0.1-0.1-0.3-0.1-0.4-0.2c-0.2-0.1-0.4-0.1-0.6-0.2
			c-0.4-0.1-0.8-0.3-1.3-0.3c-0.3,0-0.6,0.1-0.8,0.2c-0.2,0.1-0.4,0.3-0.5,0.5c-0.5,0.9-0.1,1.6,0.4,2.3c0.4,0.6,1,1.1,1.5,1.6
			c1.1,0.8,2.3,1.5,3.6,1.9C148.8,253.2,149.8,253.5,150.9,253.5z"/>
		<path d="M164.9,244.9c0,0-0.3-2.4-0.3-2.5c-0.3-0.6-1.4-0.7-1.9-0.8c0,0,0,0,0,0c0,0,0,0,0,0c-0.2,0-0.4,0-0.4,0
			c-0.4,0.2-0.5,0.7-0.5,1.1l0.2,2.3c0,0,0,0,0,0l0,0c0,0-0.1,0.1-0.1,0.1c-0.4,0.4-0.5,0.9-0.7,1.3c0,0.2-0.1,0.4-0.1,0.5
			c-0.2,0.6-0.4,1.1-0.7,1.7c-0.1,0.1-0.1,0.2-0.2,0.3c-0.3,0.6-0.7,1.1-1.1,1.6c0,0,0,0,0,0.1c0,0,0,0-0.1,0.1
			c-0.6,0.7-1.3,1.3-2.1,1.9c-1.8,1.2-4,1.9-6.2,1.9c-0.2,0-0.4,0-0.7,0c-0.2,0-0.3,0-0.5,0c-0.2,0-0.4,0-0.6-0.1
			c-0.1,0-0.3,0-0.4,0c-0.6,0-1.2,0.1-1.7,0.5c-0.2,0.2-0.3,0.4-0.4,0.6c-0.2,1,0.3,1.6,1,2.1c0.6,0.5,1.2,0.8,1.9,1.1
			c1.3,0.5,2.6,0.8,4,0.9c0.2,0,0.5,0,0.7,0c2.7,0,5.3-0.9,7.3-2.6c3.3-2.6,4.9-6.9,4.2-11C165.6,245.7,165.3,245.2,164.9,244.9
			L164.9,244.9z"/>
	</g>
	<g id="icon-books">
		<path d="M91.9,245.4h-4.5c-0.4,0-0.7,0.3-0.7,0.7v16.4c0,0.4,0.3,0.7,0.7,0.7h4.5c0.4,0,0.7-0.3,0.7-0.7v-16.4
			C92.6,245.7,92.3,245.4,91.9,245.4z M91.1,249.8h-3v-1.5h3V249.8z"/>
		<path d="M99.3,245.4h-4.5c-0.4,0-0.7,0.3-0.7,0.7v16.4c0,0.4,0.3,0.7,0.7,0.7h4.5c0.4,0,0.7-0.3,0.7-0.7v-16.4
			C100.1,245.7,99.7,245.4,99.3,245.4z M98.6,249.8h-3v-1.5h3V249.8z"/>
		<path d="M104.5,246.5l-4,2c-0.4,0.2-0.5,0.6-0.3,1l6.7,13.3c0.2,0.4,0.6,0.5,1,0.3l4-2c0.4-0.2,0.5-0.6,0.3-1l-6.7-13.3
			C105.3,246.5,104.8,246.3,104.5,246.5z"/>
	</g>
	<g id="icon-cake">
		<path d="M63.3,254.5c-0.4-1.1-0.9-2.3-1.6-3.2c-0.6-0.7-1.6-1.3-2.5-1.2c0,0-0.1,0-0.2,0c0,0.2,0.1,0.5,0.1,0.7
			c0,0.7-0.1,1.3-0.4,1.9c-0.2,0.6-0.6,1.1-1,1.5s-1,0.8-1.5,1c-0.6,0.3-1.2,0.4-1.9,0.4c-0.7,0-1.3-0.1-1.9-0.4
			c-0.6-0.2-1.1-0.6-1.5-1c-0.4-0.4-0.8-1-1-1.5c-0.1-0.1-0.1-0.3-0.2-0.4c-3.8,0.9-7.4,1.7-7.6,1.7c-0.2,0-0.4,0.1-0.6,0.2
			c-0.1,0.1-0.2,0.2-0.2,0.4v9.6c0,0.4,0.4,0.7,0.9,0.8l19.6,2c1.5,0.2,2.7-0.6,2.7-1.8c0-0.7-0.5-1.4-1.2-1.8
			c0.7-0.3,1.2-0.9,1.2-1.6s-0.5-1.4-1.2-1.8C65.1,259.2,63.9,256.1,63.3,254.5L63.3,254.5z M58.7,265.2L43,263.6V262l15.7,1.6
			c1.5,0.2,2.7,0.6,2.7,1.1S60.1,265.3,58.7,265.2z M58.7,262.1L43,260.4v-1.6l15.7,1.6c1.5,0.2,2.7,0.6,2.7,1.1
			S60.1,262.2,58.7,262.1z M58.7,258.9L43,257.3v-1.6l15.7,1.6c1.5,0.2,2.7,0.6,2.7,1.1C61.3,258.9,60.1,259.1,58.7,258.9z"/>
		<path d="M50.8,250.9c0,0.4,0.1,0.8,0.2,1.1c0.5,1.3,1.7,2.2,3.2,2.2c1.9,0,3.4-1.5,3.4-3.4c0-0.1,0-0.2,0-0.4
			c-0.2-1.7-1.6-3-3.4-3c-0.2,0-0.4,0-0.5,0c-0.1-0.2-0.2-0.5-0.4-0.7c-0.1-0.2-0.3-0.4-0.4-0.7c-0.2-0.3-0.4-0.5-0.6-0.8
			c-0.4-0.5-0.8-0.9-1.3-1.3c-0.4-0.3-0.8-0.7-1.3-0.9c-0.3-0.1-0.6-0.1-0.7,0.2c-0.1,0.2-0.1,0.6,0.2,0.7c0.2,0.1,0.4,0.2,0.6,0.4
			c0.1,0,0.1,0.1,0.2,0.1c0,0,0.1,0.1,0.1,0.1c0.1,0.1,0.2,0.1,0.3,0.2c0.2,0.2,0.4,0.4,0.6,0.6c0.2,0.2,0.4,0.5,0.6,0.7
			c0.1,0.1,0.1,0.1,0.2,0.2c0,0,0,0,0,0c0,0,0,0,0,0c0,0,0,0.1,0.1,0.1c0,0,0,0,0,0c0.1,0.1,0.2,0.2,0.3,0.4
			c0.1,0.1,0.1,0.2,0.2,0.3c0.1,0.2,0.2,0.3,0.3,0.5c0,0,0,0.1,0.1,0.1C51.5,248.5,50.8,249.6,50.8,250.9L50.8,250.9z"/>
	</g>
	<g id="icon-cinema">
		<path d="M233.8,203.2c0-0.4-0.2-0.7-0.4-1l17.4-5.8l-0.9-2.7c-0.1-0.4-0.6-0.6-1-0.5l-19,6.3c-0.4,0.1-0.6,0.6-0.5,1l0.4,1.3
			c-0.4,0.4-0.7,1-0.7,1.7c0,0.9,0.5,1.6,1.2,2v10.7c0,0.4,0.3,0.8,0.8,0.8h20c0.4,0,0.8-0.3,0.8-0.8v-13H233.8L233.8,203.2z
			 M244.9,195.5l2.3-0.8l-0.6,2.2l-2.3,0.8L244.9,195.5z M239.2,197.4l2.3-0.8l-0.6,2.2l-2.3,0.8L239.2,197.4z M231.6,204.7
			c-0.6,0-1.2-0.5-1.2-1.2s0.5-1.2,1.2-1.2c0.6,0,1.2,0.5,1.2,1.2S232.2,204.7,231.6,204.7z M233.5,199.3l2.3-0.8l-0.6,2.2l-2.3,0.8
			C233,201.5,233.5,199.3,233.5,199.3z M235.8,205.8h-2.4l1.2-2h2.4L235.8,205.8z M240.6,203.8h2.4l-1.2,2h-2.4
			C239.4,205.8,240.6,203.8,240.6,203.8z M240,213.3v-5.1l4.1,2.6C244.1,210.7,240,213.3,240,213.3z M247.8,205.8h-2.4l1.2-2h2.4
			L247.8,205.8z"/>
	</g>
	<g id="icon-tea">
		<path d="M198,218h6.5c3.9,0,4,0,4-3.9v-13.2c0-1.6,0-1.5-1.6-1.5h-11.3c-1.6,0-1.6,0-1.6,1.5v1c-0.4-0.1-0.8-0.2-1.2-0.2
			c-1.7,0-3.1,1.4-3.1,3.1v5.8c0,1.7,1.4,3.1,3.1,3.1c0.4,0,0.8-0.1,1.2-0.2v0.6C194,218,194,218,198,218z M204.9,202
			c0-0.4,0.4-0.8,0.8-0.8s0.8,0.4,0.8,0.8v11.3c0,0.4-0.4,0.8-0.8,0.8s-0.8-0.4-0.8-0.8C204.9,213.3,204.9,202,204.9,202z
			 M192.9,211.7c-0.6,0-1.2-0.5-1.2-1.2v-5.8c0-0.6,0.5-1.2,1.2-1.2c0.6,0,1.2,0.5,1.2,1.2v5.8C194,211.2,193.5,211.7,192.9,211.7z"
			/>
		<path d="M196.9,196.4C196.9,196.3,196.9,196.3,196.9,196.4c-0.1-0.1-0.1-0.1-0.2-0.1c0,0-0.1,0-0.1-0.1c0,0-0.1,0-0.1-0.1
			c-0.1-0.1-0.3-0.1-0.4-0.2c-0.3-0.1-0.6-0.2-0.9-0.3c-0.1,0-0.3-0.1-0.4-0.1l-0.1,0l-0.1,0l-0.1,0l0,0l0,0c-0.1,0-0.1,0-0.2,0
			c-0.1,0-0.1,0-0.2,0c0,0-0.1,0-0.1,0c0,0-0.1,0-0.1,0c0,0-0.1,0-0.1,0c0,0-0.1,0-0.1,0c-0.1,0-0.1,0-0.2,0c-0.1,0-0.1,0-0.2,0
			c0,0-0.1,0-0.1,0c0,0-0.1,0-0.1,0c0,0-0.1,0-0.1,0c0,0-0.1,0-0.1,0c-0.5-0.1-0.9-0.2-1.3-0.4c-0.2-0.1-0.4-0.1-0.5-0.2
			c-0.2-0.1-0.3-0.1-0.4-0.2c-0.1-0.1-0.2-0.1-0.3-0.1s-0.1-0.1-0.1-0.1s0,0,0,0.1c0,0.1,0,0.2,0.1,0.3c0,0.1,0.1,0.3,0.2,0.5
			c0.1,0.2,0.2,0.4,0.4,0.5c0.2,0.2,0.3,0.4,0.6,0.5c0.2,0.2,0.4,0.3,0.7,0.5c0.3,0.2,0.5,0.3,0.8,0.4c0.1,0,0.1,0.1,0.2,0.1
			c0.1,0,0.1,0.1,0.2,0.1c0.1,0,0.1,0,0.2,0.1c0.1,0,0.2,0,0.2,0.1l0.1,0l0,0l0.1,0l0.1,0l0.1,0l0.1,0c0.1,0,0.3,0,0.4,0.1
			c0.2,0,0.5,0.1,0.7,0.1c0.1,0,0.2,0,0.3,0.1c0.1,0,0.1,0,0.2,0c0.1,0,0.1,0,0.2,0c0.2,0,0.4,0.1,0.6,0.1c0.2,0.1,0.3,0.1,0.5,0.2
			c0.1,0.1,0.3,0.1,0.4,0.2c0,0,0,0,0.1,0.1c0,0,0,0,0.1,0.1c0,0,0,0,0,0.1c0,0,0,0,0,0c0,0,0,0.1,0,0.1c0,0,0,0,0,0s0,0,0,0
			c0,0,0,0,0-0.1c0,0,0,0,0-0.1c0,0,0-0.1,0-0.1c0-0.1,0-0.1,0-0.2c0-0.2,0-0.4-0.1-0.6c-0.1-0.2-0.2-0.4-0.4-0.6
			C197.4,196.7,197.2,196.5,196.9,196.4L196.9,196.4z"/>
		<path d="M197.8,195c0.1,0.2,0.2,0.4,0.4,0.5c0.2,0.2,0.3,0.4,0.6,0.5c0.2,0.2,0.4,0.3,0.7,0.5c0.3,0.2,0.5,0.3,0.8,0.4
			c0.1,0,0.1,0.1,0.2,0.1c0.1,0,0.1,0.1,0.2,0.1c0.1,0,0.1,0,0.2,0.1c0.1,0,0.2,0,0.2,0.1l0.1,0l0,0l0.1,0l0.1,0l0.1,0l0.1,0
			c0.1,0,0.3,0,0.4,0.1c0.2,0,0.5,0.1,0.7,0.1c0.1,0,0.2,0,0.3,0.1c0.1,0,0.1,0,0.2,0c0.1,0,0.1,0,0.2,0c0.2,0,0.4,0.1,0.6,0.1
			c0.2,0.1,0.3,0.1,0.5,0.2c0.1,0.1,0.3,0.1,0.4,0.2c0,0,0,0,0.1,0.1c0,0,0,0,0.1,0.1c0,0,0,0,0,0.1c0,0,0,0,0,0c0,0,0,0.1,0,0.1
			c0,0,0,0,0,0s0,0,0,0c0,0,0,0,0-0.1c0,0,0,0,0-0.1c0,0,0-0.1,0-0.1c0-0.1,0-0.1,0-0.2c0-0.2,0-0.4-0.1-0.6
			c-0.1-0.2-0.2-0.4-0.4-0.6s-0.4-0.4-0.6-0.6c0,0-0.1,0-0.1-0.1c0,0-0.1,0-0.1-0.1c0,0-0.1,0-0.1-0.1c0,0-0.1,0-0.1-0.1
			c-0.1-0.1-0.3-0.1-0.4-0.2c-0.3-0.1-0.6-0.2-0.9-0.3c-0.1,0-0.3-0.1-0.4-0.1l-0.1,0l-0.1,0l-0.1,0l0,0l0,0c-0.1,0-0.1,0-0.2,0
			c-0.1,0-0.1,0-0.2,0c0,0-0.1,0-0.1,0c0,0-0.1,0-0.1,0c0,0-0.1,0-0.1,0c0,0-0.1,0-0.1,0c-0.1,0-0.1,0-0.2,0c-0.1,0-0.1,0-0.2,0
			c0,0-0.1,0-0.1,0c0,0-0.1,0-0.1,0c0,0-0.1,0-0.1,0c0,0-0.1,0-0.1,0c-0.5-0.1-0.9-0.2-1.3-0.4c-0.2-0.1-0.4-0.1-0.5-0.2
			c-0.2-0.1-0.3-0.1-0.4-0.2c-0.1-0.1-0.2-0.1-0.3-0.1s-0.1-0.1-0.1-0.1s0,0,0,0.1c0,0.1,0,0.2,0.1,0.3
			C197.7,194.7,197.7,194.9,197.8,195L197.8,195z"/>
	</g>
	<g id="icon-cupcake">
		<path d="M146.9,215.7c-0.2,0-0.4,0-0.6,0c-0.5,0-1.1-0.1-1.6-0.3l1.2,5.4c0.1,0.5,0.5,0.8,1,0.8h14.1c0.5,0,0.9-0.3,1-0.8l1.2-5.2
			c-0.4,0.1-0.8,0.2-1.2,0.2c-0.3,0-0.6,0-0.9-0.1l-0.9,3.9h-1.4l0.8-4c-0.3,0.1-0.7,0.2-1.1,0.2l-0.8,3.9h-1.6l0.2-4.2
			c0,0-0.1,0-0.1-0.1c-0.3,0.1-0.6,0.2-0.9,0.3l-0.2,4H153l-0.2-4c-0.2-0.1-0.3-0.1-0.5-0.2c-0.2,0.1-0.3,0.1-0.5,0.2l0.2,4h-1.7
			l-0.8-3.9c-0.4-0.1-0.7-0.2-1.1-0.3c0,0,0,0,0,0l0.9,4.3h-1.4L146.9,215.7L146.9,215.7z"/>
		<path d="M144.6,214.6c0.1,0,0.2,0.1,0.3,0.1c0.5,0.2,1,0.3,1.5,0.3c0.1,0,0.3,0,0.4,0c0.5,0,1-0.2,1.5-0.4c0.1,0,0.1-0.1,0.2-0.1
			c0.3,0.2,0.6,0.3,0.9,0.4c0.4,0.1,0.7,0.2,1.1,0.2c0.5,0,0.9-0.1,1.3-0.2c0.2-0.1,0.4-0.1,0.6-0.2c0.2,0.1,0.3,0.1,0.5,0.2
			c0.4,0.2,0.9,0.3,1.4,0.3c0.4,0,0.8-0.1,1.2-0.2c0.3-0.1,0.6-0.2,0.9-0.4c0.1,0,0.1,0.1,0.2,0.1c0.6,0.3,1.2,0.5,1.9,0.5
			c0.1,0,0.3,0,0.4,0c0.4,0,0.7-0.1,1.1-0.3c0.1-0.1,0.3-0.1,0.4-0.2c0.3,0.2,0.7,0.3,1.1,0.4c0.2,0,0.5,0.1,0.8,0.1
			c0.5,0,0.9-0.1,1.4-0.2c1.2-0.4,2.1-1.3,2.5-2.5c0.2-0.7,0.2-1.3,0.2-2.1c-0.2-1.5-0.6-2.9-1.2-4.2c-1-2-2.5-3.6-4.5-4.6
			c-3-1.5-6.9-1.7-10.1-0.8c-2.2,0.6-4.2,1.9-5.6,3.7c-1,1.3-1.7,2.9-2.1,4.6c-0.1,0.5-0.2,1-0.3,1.5c-0.1,0.9,0,2,0.5,2.8
			C143.3,213.6,143.9,214.2,144.6,214.6L144.6,214.6z M156.6,204.3l2-1.4c0.2-0.2,0.5-0.1,0.7,0.1c0.2,0.2,0.1,0.5-0.1,0.7l-2,1.4
			c-0.1,0.1-0.2,0.1-0.3,0.1c-0.2,0-0.3-0.1-0.4-0.2C156.3,204.7,156.4,204.4,156.6,204.3z M154.9,205.8c0.2,0.2,0.1,0.5-0.1,0.7
			l-2,1.4c-0.1,0.1-0.2,0.1-0.3,0.1c-0.2,0-0.3-0.1-0.4-0.2c-0.2-0.2-0.1-0.5,0.1-0.7l2-1.4C154.4,205.6,154.7,205.6,154.9,205.8z
			 M151.8,204.3l2-1.4c0.2-0.2,0.5-0.1,0.7,0.1c0.2,0.2,0.1,0.5-0.1,0.7l-2,1.4c-0.1,0.1-0.2,0.1-0.3,0.1c-0.2,0-0.3-0.1-0.4-0.2
			C151.6,204.7,151.6,204.4,151.8,204.3z M147.4,207.1l2-1.4c0.2-0.2,0.5-0.1,0.7,0.1c0.2,0.2,0.1,0.5-0.1,0.7l-2,1.4
			c-0.1,0.1-0.2,0.1-0.3,0.1c-0.2,0-0.3-0.1-0.4-0.2C147.1,207.6,147.2,207.3,147.4,207.1z"/>
		<path d="M154.2,200c-0.1,0-0.2,0-0.3,0l0.8,0C154.6,200,154.4,200,154.2,200z"/>
	</g>
	<g id="icon-dress">
		<path d="M107.2,213c-0.6-1.8-1.4-3.4-2.3-4.5h-1.2C104.7,211.9,106.3,212.8,107.2,213L107.2,213z"/>
		<path d="M95.8,206c0.2,0.4,0.4,0.9,0.5,1.3h8.2c0.1-0.4,0.3-0.9,0.5-1.3l0,0c0.4-0.9,0.4-2-0.2-2.8c-0.6-0.9-1-2.3-1-4
			c0-0.1-0.1-0.3-0.3-0.3h-0.6c-0.1,0-0.3,0.1-0.3,0.3c-0.1,2.3-1,4.1-2.2,4.1c-1.2,0-2.1-1.8-2.2-4.1c0-0.1-0.1-0.3-0.3-0.3h-0.6
			c-0.1,0-0.3,0.1-0.3,0.3c0,1.7-0.4,3.1-1,4C95.4,204,95.3,205.1,95.8,206L95.8,206L95.8,206z"/>
		<path d="M97,208.5h-1.2c-0.9,1.1-1.7,2.7-2.3,4.5C94.4,212.8,96,211.9,97,208.5z"/>
		<path d="M107.6,214.3c-0.4,0-1.1-0.2-1.8-0.6c-1.5-0.9-2.7-2.6-3.4-5.2h-4.1c-0.7,2.6-1.9,4.3-3.4,5.2c-0.7,0.4-1.4,0.5-1.8,0.6
			c-0.7,2.4-1.1,5.1-1.2,7.7c0,0.2,0.1,0.4,0.2,0.5s0.3,0.2,0.5,0.2h15.6c0.2,0,0.4-0.1,0.5-0.2s0.2-0.3,0.2-0.5
			C108.7,219.4,108.3,216.7,107.6,214.3L107.6,214.3z"/>
	</g>
	<g id="icon-eggplant">
		<path d="M54.1,222.3c1.4-1.4,3.1-4.2,5.4-7.9c0.8-1.3,2.1-2.5,3.2-3.7c-0.2-0.5-0.4-1.2-0.5-1.7c0-0.2-0.1-0.5-0.1-0.8
			c-0.3,0.2-0.4,0.3-0.5,0.3c-0.5,0.3-1.2,0.6-1.7,0.8c-0.1,0-0.2,0.1-0.4,0.1c-0.3,0-0.6-0.2-0.8-0.4c-0.2-0.3-0.2-0.6-0.1-0.9
			c0.2-0.5,0.5-1.2,0.8-1.7c0,0,0.1-0.2,0.3-0.5c-0.3,0-0.6-0.1-0.8-0.1c-0.5-0.1-1.1-0.3-1.7-0.5c-1.2,1.1-2.4,2.4-3.8,3.2
			c-4.1,2.4-6.8,4-8.1,5.2c-2.9,2.9-3.8,6.9-0.9,9.8S51.2,225.2,54.1,222.3L54.1,222.3z"/>
		<path d="M65.8,201.4c-0.1,0-0.1-0.1-0.2-0.1c-0.1,0-0.2,0.1-0.3,0.2c-0.1,0.3-0.4,0.6-0.7,1.1c-0.5,0.8-1.2,1.1-1.2,1.1
			c-0.4-0.3-0.9-0.6-1.4-0.8c-0.5-0.2-1.1-0.4-1.6-0.4c-0.3,0-0.7,0-1,0.2c-0.7,0.2-1.6,0.8-2.3,1.2c-0.2,0.1-0.2,0.3,0,0.4
			c0.2,0.1,0.4,0.1,0.6,0.2c0.4,0.1,0.9,0.3,1.2,0.3c0.4,0.1,1.2,0.2,1.6,0.3c0.2,0,0.3,0.2,0.2,0.4c-0.3,0.3-0.6,0.8-0.7,1
			c-0.3,0.5-0.6,1.2-0.7,1.7c-0.1,0.2,0.1,0.3,0.2,0.3c0,0,0.1,0,0.1,0c0.4-0.2,1.2-0.5,1.7-0.7c0.2-0.1,0.7-0.5,1-0.7
			c0.1,0,0.1-0.1,0.2-0.1c0.1,0,0.2,0.1,0.2,0.2c0.1,0.5,0.2,1.2,0.3,1.6c0.1,0.3,0.2,0.8,0.4,1.2c0.1,0.2,0.1,0.4,0.2,0.6
			c0,0.1,0.1,0.2,0.2,0.2c0.1,0,0.1,0,0.2-0.1c0.5-0.7,1-1.6,1.2-2.3c0.1-0.3,0.1-0.6,0.2-0.8c0.1-1.1-0.5-2-1-2.9
			c0,0-0.2-0.2-0.2-0.3c0,0,0.3-0.6,1.1-1.2c0.5-0.3,0.7-0.5,1.1-0.7c0.2-0.1,0.3-0.3,0.1-0.5C66.2,201.7,66,201.5,65.8,201.4
			L65.8,201.4z"/>
	</g>
	<g id="icon-elevator">
		<path d="M233.3,154.8c-0.3-0.3-0.4-0.6-0.4-0.9c0-0.4,0.1-0.7,0.4-0.9c0.3-0.3,0.6-0.4,0.9-0.4s0.7,0.1,0.9,0.4
			c0.3,0.3,0.4,0.6,0.4,0.9c0,0.4-0.1,0.7-0.4,0.9s-0.6,0.4-0.9,0.4S233.6,155.1,233.3,154.8z M231.6,161.1c0.1,0.1,0.2,0.1,0.3,0.1
			s0.2,0,0.3-0.1c0.1-0.1,0.1-0.2,0.1-0.3v-3.6c0-0.1,0-0.1,0.1-0.1c0.1,0,0.1,0,0.1,0c0,0,0.1,0,0.1,0c0.1,0,0.1,0.1,0.1,0.1v8.2
			c0,0.2,0.1,0.3,0.2,0.4c0.1,0.1,0.3,0.2,0.4,0.2c0.2,0,0.3-0.1,0.4-0.2s0.2-0.2,0.2-0.4v-5c0-0.1,0-0.2,0.1-0.2c0.1,0,0.1,0,0.2,0
			c0,0,0.1,0,0.2,0c0.1,0,0.1,0.1,0.1,0.2v5c0,0.2,0.1,0.3,0.2,0.4c0.1,0.1,0.3,0.2,0.4,0.2c0.2,0,0.3-0.1,0.4-0.2
			c0.1-0.1,0.2-0.2,0.2-0.4l0-8.2c0-0.1,0-0.1,0.1-0.1s0.1,0,0.1,0c0,0,0.1,0,0.1,0s0.1,0.1,0.1,0.1v3.6c0,0.1,0,0.3,0.1,0.3
			c0.1,0.1,0.2,0.1,0.3,0.1s0.2,0,0.3-0.1c0.1-0.1,0.1-0.2,0.1-0.3V157c0-0.4-0.1-0.7-0.4-1c-0.2-0.3-0.6-0.4-1-0.4h-2.9
			c-0.4,0-0.7,0.1-0.9,0.4c-0.2,0.3-0.3,0.6-0.3,1v3.8C231.5,160.9,231.5,161,231.6,161.1L231.6,161.1z M245.9,150.4
			c0.2,0.2,0.2,0.4,0.2,0.6v16.4c0,0.2-0.1,0.4-0.2,0.6s-0.4,0.2-0.6,0.2h-15.7c-0.2,0-0.4-0.1-0.6-0.2s-0.2-0.4-0.2-0.6V151
			c0-0.2,0.1-0.4,0.2-0.6s0.4-0.2,0.6-0.2h15.7C245.5,150.2,245.7,150.2,245.9,150.4z M244.8,151.5h-14.7v15.3h14.7
			C244.8,166.9,244.8,151.5,244.8,151.5z M240.6,155.2c0.4,0,0.7-0.1,0.9-0.4s0.4-0.6,0.4-0.9c0-0.4-0.1-0.7-0.4-0.9
			c-0.3-0.3-0.6-0.4-0.9-0.4c-0.4,0-0.7,0.1-0.9,0.4c-0.3,0.3-0.4,0.6-0.4,0.9c0,0.4,0.1,0.7,0.4,0.9S240.2,155.2,240.6,155.2z
			 M238,161.1c0.1,0.1,0.2,0.1,0.3,0.1c0.1,0,0.2,0,0.3-0.1c0.1-0.1,0.1-0.2,0.1-0.3v-3.6c0-0.1,0-0.1,0.1-0.1c0.1,0,0.1,0,0.1,0
			s0.1,0,0.1,0c0.1,0,0.1,0.1,0.1,0.1v8.2c0,0.2,0.1,0.3,0.2,0.4s0.3,0.2,0.4,0.2c0.2,0,0.3-0.1,0.4-0.2c0.1-0.1,0.2-0.2,0.2-0.4v-5
			c0-0.1,0-0.2,0.1-0.2c0.1,0,0.1,0,0.2,0c0,0,0.1,0,0.2,0c0.1,0,0.1,0.1,0.1,0.2v5c0,0.2,0.1,0.3,0.2,0.4c0.1,0.1,0.3,0.2,0.4,0.2
			c0.2,0,0.3-0.1,0.4-0.2c0.1-0.1,0.2-0.2,0.2-0.4v-8.2c0-0.1,0-0.1,0.1-0.1c0.1,0,0.1,0,0.1,0c0,0,0.1,0,0.1,0
			c0.1,0,0.1,0.1,0.1,0.1v3.6c0,0.1,0,0.3,0.1,0.3c0.1,0.1,0.2,0.1,0.3,0.1c0.1,0,0.2,0,0.3-0.1c0.1-0.1,0.1-0.2,0.1-0.3V157
			c0-0.4-0.1-0.7-0.4-1s-0.6-0.4-1-0.4h-2.9c-0.4,0-0.7,0.1-0.9,0.4c-0.2,0.3-0.3,0.6-0.3,1v3.8C237.8,160.9,237.9,161,238,161.1z
			 M252.3,165c-0.5,0-1.2,0-1.2,0s0-0.2,0-0.5c0-1,0-2.9,0-3.6c0,0,0-0.2-0.2-0.2c-0.2,0-1.6,0-1.9,0c-0.3,0-0.3,0.2-0.3,0.2
			c0,0.7,0,2.6,0,3.6c0,0.4,0,0.6,0,0.6s-0.9,0-1.3,0c-0.4,0,0,0.3,0,0.3l2.4,2.9c0,0,0.2,0.2,0.4,0c0.3-0.3,2.3-3,2.3-3
			S252.8,165,252.3,165L252.3,165z M247.4,153.8c0.5,0,1.2,0,1.2,0s0,0.2,0,0.5c0,1,0,2.9,0,3.6c0,0,0,0.2,0.2,0.2
			c0.2,0,1.6,0,1.9,0c0.3,0,0.3-0.2,0.3-0.2c0-0.7,0-2.6,0-3.6c0-0.4,0-0.6,0-0.6s0.9,0,1.3,0c0.4,0,0-0.3,0-0.3l-2.4-2.9
			c0,0-0.2-0.2-0.4,0c-0.3,0.3-2.3,3-2.3,3S247,153.8,247.4,153.8L247.4,153.8z"/>
	</g>
	<g id="icon-flipflop">
		<path d="M196.6,153.1c-1-0.8-2.4-0.9-3.6-0.5c-0.4,0.1-0.8,0.3-1.1,0.5c-1.6,0.9-3.5,2.8-4,4.6c-0.5,1.8-0.2,3.7,0.1,5.5
			c0.1-0.3,0.2-0.6,0.3-0.9c0.9-1.9,3-2.9,4.5-4.2v-0.8c0-0.3,0.2-0.5,0.5-0.5c0.3,0,0.5,0.2,0.5,0.5v0.8c0.8,0.7,1.5,1.5,2.2,2.3
			c0.4,0.4,0.7,0.9,1.1,1.3c0.1,0.2,0.3,0.3,0.4,0.5c0.1-1.3,0.3-2.6,0.5-4C198.3,156.4,198.1,154.2,196.6,153.1L196.6,153.1z"/>
		<path d="M190.6,168.7c-0.8-0.2-1.4-0.8-1.9-1.5c0.4,1.7,0.9,3.3,1.4,4.9c0.9,2.9,4.1,2.9,6.2,1.9c1.9-1,1.6-4.4,1.3-7.1
			c-0.2,0.3-0.5,0.6-0.6,1c-0.1,0.2-0.3,0.4-0.6,0.3c-0.2-0.1-0.4-0.4-0.3-0.6c0.4-0.9,1.1-1.5,1.2-2.5c0.1-0.7,0-1.5-0.5-2.1
			c-0.5-0.8-1.2-1.5-1.9-2.2c-0.6-0.6-1.1-1.3-1.7-1.9c-1.3,1.1-3,1.9-3.9,3.5c-0.5,0.9-0.8,2.1-0.4,3.1c0.3,0.9,1,2,2,2.3
			C191.5,168,191.2,168.9,190.6,168.7L190.6,168.7z"/>
		<path d="M211.1,163.2c0.3-1.8,0.5-3.7,0.1-5.5c-0.5-1.9-2.4-3.7-4-4.6c-0.3-0.2-0.7-0.4-1.1-0.5c-1.2-0.4-2.6-0.3-3.6,0.5
			c-1.5,1.2-1.7,3.3-1.4,5.2c0.2,1.4,0.4,2.6,0.5,4c0.1-0.2,0.3-0.3,0.4-0.5c0.4-0.4,0.7-0.9,1.1-1.3c0.7-0.8,1.4-1.6,2.2-2.3v-0.8
			c0-0.3,0.2-0.5,0.5-0.5c0.3,0,0.5,0.2,0.5,0.5v0.8c1.5,1.4,3.6,2.3,4.5,4.2C210.9,162.6,211,162.9,211.1,163.2L211.1,163.2z"/>
		<path d="M202.6,168.2c-0.3,0.1-0.5-0.1-0.6-0.3c-0.1-0.3-0.4-0.6-0.6-1c-0.3,2.7-0.6,6,1.3,7.1c2.1,1.1,5.3,1,6.2-1.9
			c0.5-1.5,1-3.2,1.4-4.9c-0.5,0.7-1.1,1.2-1.9,1.5c-0.6,0.2-0.9-0.7-0.3-0.9c1-0.3,1.7-1.4,2-2.3c0.3-1,0.1-2.2-0.4-3.1
			c-0.9-1.5-2.6-2.4-3.9-3.5c-0.6,0.6-1.2,1.3-1.7,1.9c-0.6,0.7-1.3,1.4-1.9,2.2c-0.4,0.6-0.5,1.3-0.5,2.1c0.1,1,0.8,1.6,1.2,2.5
			C203,167.8,202.8,168.1,202.6,168.2L202.6,168.2z"/>
	</g>
	<g id="icon-grass">
		<path d="M163.5,153.2c-0.1-0.2-0.4-0.2-0.5-0.1c-2.5,1.2-6,3.6-8.8,8.3c1.6,2.4,2.9,5.4,3.6,9.4c0.1-3.9,0.9-12.3,5.6-16.9
			C163.6,153.6,163.6,153.3,163.5,153.2L163.5,153.2z"/>
		<path d="M147.3,156.5c-0.1,0-0.2-0.1-0.2-0.1c-0.1,0-0.2,0-0.3,0.1c-0.1,0.2-0.2,0.4,0,0.6c4.8,6.1,3.5,16.7,3.1,19.1
			c0,0.1,0,0.3,0.1,0.4c0.1,0.1,0.2,0.2,0.3,0.2h6.1c0.1,0,0.2,0,0.3-0.1c0.1-0.1,0.1-0.2,0.1-0.3
			C156.6,164.5,150.8,158.8,147.3,156.5L147.3,156.5z"/>
		<path d="M143.6,167.2c-0.1-0.1-0.2,0-0.3,0c-0.1,0.1-0.1,0.2,0,0.3c2.3,2.9,1.6,7.9,1.5,9.1c0,0.1,0,0.1,0,0.2
			c0,0,0.1,0.1,0.2,0.1h2.9c0.1,0,0.1,0,0.1-0.1c0,0,0.1-0.1,0.1-0.1C148,170.9,145.2,168.3,143.6,167.2L143.6,167.2z"/>
		<path d="M165.1,163.6c-0.1-0.1-0.3-0.1-0.4,0c-2.3,1.5-6.1,5.2-6.2,12.9c0,0.1,0,0.1,0.1,0.2c0.1,0.1,0.1,0.1,0.2,0.1h4
			c0.1,0,0.2,0,0.2-0.1c0.1-0.1,0.1-0.1,0.1-0.2c-0.3-1.6-1.1-8.5,2-12.5C165.2,163.9,165.2,163.7,165.1,163.6L165.1,163.6z"/>
	</g>
	<g id="icon-leafcircle">
		<path d="M103.4,153c-6.6,0-11.9,5.3-11.9,11.9s5.3,11.9,11.9,11.9c6.6,0,11.9-5.3,11.9-11.9S109.9,153,103.4,153z M109.2,167.5
			c-1.4,1.4-3.4,2-4.9,2.1c0.1-0.1,0.1-0.2,0.2-0.3c0.1-0.2,0.2-0.4,0.4-0.6c0.1-0.2,0.2-0.4,0.4-0.7c0-0.1,0.1-0.1,0.1-0.2
			c0-0.1,0.1-0.1,0.1-0.2c0.1-0.1,0.1-0.2,0.2-0.3c0-0.1,0.1-0.1,0.1-0.2c0,0,0.1-0.1,0.1-0.2c0,0,0.1-0.1,0.1-0.1l0,0l0,0l0,0
			c0,0,0,0,0,0l0,0l0.1-0.1c0.1-0.1,0.1-0.2,0.2-0.3c0.1-0.1,0.1-0.2,0.2-0.3c0.1-0.1,0.1-0.2,0.2-0.3c0.1-0.1,0.1-0.2,0.2-0.3
			c0,0,0.1-0.1,0.1-0.1c0,0,0.1-0.1,0.1-0.1c0.1-0.1,0.1-0.2,0.2-0.2c0.1-0.1,0.1-0.1,0.2-0.2c0,0,0.1-0.1,0.1-0.1
			c0,0,0.1-0.1,0.1-0.1c0.1-0.1,0.1-0.1,0.1-0.2c0,0,0-0.1,0.1-0.1c0,0,0,0,0.1-0.1c0.2-0.2,0.3-0.3,0.3-0.3s-0.1,0-0.4,0
			c0,0-0.1,0-0.1,0c0,0-0.1,0-0.1,0c-0.1,0-0.2,0-0.2,0.1c0,0-0.1,0-0.1,0c0,0-0.1,0-0.1,0.1c-0.1,0-0.2,0.1-0.3,0.1
			c-0.1,0-0.2,0.1-0.3,0.2c-0.1,0-0.1,0.1-0.2,0.1c0,0-0.1,0.1-0.1,0.1c0,0-0.1,0.1-0.2,0.1c0,0-0.1,0-0.1,0.1c0,0,0,0-0.1,0.1
			c-0.1,0.1-0.2,0.2-0.3,0.3c-0.1,0.1-0.2,0.2-0.3,0.3c-0.1,0.1-0.1,0.1-0.1,0.1c0,0-0.1,0.1-0.1,0.1l-0.1,0.1l0,0l0,0l0,0
			c0,0.1-0.1,0.1-0.1,0.2c0,0.1-0.1,0.1-0.1,0.2c0,0.1-0.1,0.1-0.1,0.2c-0.1,0.1-0.1,0.3-0.2,0.4c-0.1,0.1-0.1,0.3-0.2,0.4
			c-0.1,0.1-0.1,0.3-0.1,0.4c0,0.1-0.1,0.3-0.1,0.4c-0.1,0.2-0.1,0.5-0.2,0.7c0,0.1,0,0.2-0.1,0.3c0-0.1,0-0.2-0.1-0.3
			c-0.1-0.2-0.1-0.5-0.2-0.7c0-0.1-0.1-0.2-0.1-0.4c0-0.1-0.1-0.3-0.1-0.4c-0.1-0.1-0.1-0.3-0.2-0.4c-0.1-0.1-0.1-0.3-0.2-0.4
			c0-0.1-0.1-0.1-0.1-0.2c0-0.1-0.1-0.1-0.1-0.2s-0.1-0.1-0.1-0.2l0,0l0,0l0,0L102,166c0,0-0.1-0.1-0.1-0.1c0,0-0.1-0.1-0.1-0.1
			c-0.1-0.1-0.2-0.2-0.3-0.3c-0.1-0.1-0.2-0.2-0.3-0.3c0,0,0,0-0.1-0.1c0,0-0.1,0-0.1-0.1c-0.1,0-0.1-0.1-0.2-0.1
			c-0.1,0-0.1-0.1-0.1-0.1c-0.1,0-0.1-0.1-0.2-0.1c-0.1-0.1-0.2-0.1-0.3-0.2c-0.1,0-0.2-0.1-0.3-0.1c0,0-0.1,0-0.1-0.1
			c0,0-0.1,0-0.1,0c-0.1,0-0.2,0-0.2-0.1c0,0-0.1,0-0.1,0c0,0-0.1,0-0.1,0c-0.3,0-0.4,0-0.4,0s0.1,0.1,0.3,0.3c0,0,0,0,0.1,0.1
			c0,0,0,0.1,0.1,0.1c0,0.1,0.1,0.1,0.1,0.2c0,0,0.1,0.1,0.1,0.1c0,0,0.1,0.1,0.1,0.1c0.1,0.1,0.1,0.1,0.2,0.2
			c0.1,0.1,0.1,0.2,0.2,0.2c0,0,0.1,0.1,0.1,0.1c0,0,0.1,0.1,0.1,0.1c0.1,0.1,0.1,0.2,0.2,0.3c0.1,0.1,0.1,0.2,0.2,0.3
			c0.1,0.1,0.1,0.2,0.2,0.3c0.1,0.1,0.1,0.2,0.2,0.3l0.1,0.1l0,0c0,0,0,0,0,0l0,0l0,0l0,0c0,0,0.1,0.1,0.1,0.1s0.1,0.1,0.1,0.2
			c0,0.1,0.1,0.1,0.1,0.2c0.1,0.1,0.1,0.2,0.2,0.3c0,0.1,0.1,0.1,0.1,0.2c0,0.1,0.1,0.1,0.1,0.2c0.1,0.2,0.2,0.4,0.4,0.7
			c0.1,0.2,0.2,0.4,0.4,0.6c0,0.1,0.1,0.2,0.2,0.2c0,0-0.1,0-0.1,0c-1.5-0.2-3.5-0.7-4.8-2.1c-2.5-2.5-2.3-6.7-1.9-7.1
			c0.3-0.3,4.6-0.6,7.1,1.9c0.2,0.2,0.5,0.5,0.7,0.8c0.2-0.3,0.4-0.5,0.7-0.8c2.5-2.5,6.7-2.3,7.1-1.9
			C111.4,160.7,111.7,165,109.2,167.5L109.2,167.5z"/>
	</g>
	<g id="icon-mushroom">
		<path d="M57.5,171.1c-0.9,0.1-1.8,0.2-2.8,0.2c-1.7,0-3-0.2-3.2-0.2c-0.2,0-0.3,0-0.5-0.1c-0.7,3.6-1.6,12.4,5.9,12.1
			C65.4,182.8,56.3,176.6,57.5,171.1L57.5,171.1z"/>
		<path d="M54.5,159.3c-4.9,0-9.1,3.7-9.5,8.4c0,0.5,0.2,1,0.7,1.3c0.1,0,1.8,0.9,5.4,1.3c0.1,0,0.3,0,0.4,0c0,0,1.4,0.2,3.1,0.2
			c0.9,0,3-0.2,3.1-0.2c3.7-0.4,5.5-1.2,5.6-1.3c0.5-0.2,0.8-0.7,0.7-1.3C63.7,163,59.5,159.3,54.5,159.3z M47.9,168
			c-0.6,0-1.1-0.5-1.1-1.1c0-0.6,0.5-1.1,1.1-1.1c0.6,0,1.1,0.5,1.1,1.1C49,167.5,48.5,168,47.9,168z M58.6,161.9
			c0.6,0,1.1,0.5,1.1,1.1s-0.5,1.1-1.1,1.1s-1.1-0.5-1.1-1.1S58,161.9,58.6,161.9z M53.6,161.9c0.6,0,1.1,0.5,1.1,1.1
			s-0.5,1.1-1.1,1.1c-0.6,0-1.1-0.5-1.1-1.1S53,161.9,53.6,161.9z M58.6,168.1c-0.6,0-1.1-0.5-1.1-1.1s0.5-1.1,1.1-1.1
			c0.6,0,1.1,0.5,1.1,1.1S59.2,168.1,58.6,168.1z"/>
	</g>
	<g id="icon-origami">
		<path d="M248.5,110.5c0-0.4-0.1-0.7-0.4-0.9s-0.5-0.4-0.9-0.4c-0.4,0-0.7,0.1-0.9,0.4c-0.2,0.2-0.4,0.5-0.4,0.9
			c0,0.4,0.1,0.7,0.4,0.9c0.2,0.2,0.5,0.4,0.9,0.4c0.4,0,0.7-0.1,0.9-0.4C248.4,111.1,248.5,110.8,248.5,110.5z M251.5,106.6
			c0,2.2-0.3,4.1-1,5.7c-0.7,1.6-1.8,3.2-3.4,4.8c-0.7,0.7-1.6,1.5-2.6,2.3l-0.3,5c0,0.1-0.1,0.3-0.2,0.3l-5.1,3
			c-0.1,0-0.1,0.1-0.2,0.1c-0.1,0-0.2,0-0.3-0.1l-0.9-0.9c-0.1-0.1-0.2-0.3-0.1-0.4l1.1-3.7l-3.7-3.7l-3.7,1.1c0,0-0.1,0-0.1,0
			c-0.1,0-0.2,0-0.3-0.1l-0.9-0.9c-0.2-0.2-0.2-0.3-0.1-0.5l3-5.1c0.1-0.1,0.2-0.2,0.3-0.2l5-0.3c0.9-1,1.6-1.9,2.3-2.6
			c1.7-1.7,3.3-2.8,4.8-3.4s3.4-0.9,5.7-0.9c0.1,0,0.2,0,0.3,0.1C251.4,106.4,251.5,106.5,251.5,106.6L251.5,106.6z"/>
	</g>
	<g id="icon-pear">
		<path d="M188.1,117.1c0,2.5-2.3,6.2-2.6,8.3c-0.1,0.4-0.2,0.9-0.2,1.3c0,3.4,2.9,6.1,6.5,6.1s6.5-2.8,6.5-6.1
			c0-0.5-0.1-0.9-0.2-1.3c-0.3-2.1-2.6-5.8-2.6-8.3c0-1.6-1.1-2.9-2.6-3.4c0,0,0-0.1,0-0.1c0.7-0.1,2-0.3,2.8-1.1
			c0.9-0.9,1.1-2.1,1.1-2.8c0-0.3-0.2-0.5-0.5-0.5c-0.7,0.1-2,0.3-2.8,1.1c-0.5,0.5-0.8,1.2-1,1.8c0-0.1,0-0.1-0.1-0.2
			c-0.2-0.6-0.5-1.1-1-1.5c-0.3-0.2-0.6-0.4-0.9-0.5c-0.2-0.1-0.4-0.1-0.6-0.2c-0.5-0.1-1-0.1-1.5-0.1c-0.6,0-1,0.5-1,1
			c0,0.5,0.5,1,1,1c0.3,0,0.6,0,1,0c0.1,0,0.3,0.1,0.4,0.1c0.1,0,0.1,0.1,0.2,0.1c0.1,0,0.1,0.1,0.2,0.2c0.1,0.1,0.2,0.3,0.2,0.4
			c0.1,0.4,0.2,0.8,0.3,1.2C189.3,114,188.1,115.4,188.1,117.1L188.1,117.1z M194.2,125.6c0.3,0.2,0.3,0.7,0.1,0.9
			c-0.2,0.3-0.7,0.3-0.9,0.1c-0.1-0.1-0.2-0.2-0.2-0.4l-0.4-1.9C192.7,124.3,194.2,125.6,194.2,125.6z M189.4,125.6l1.5-1.3
			l-0.4,1.9c-0.1,0.4-0.4,0.6-0.8,0.5c-0.4-0.1-0.6-0.4-0.5-0.8C189.2,125.8,189.3,125.7,189.4,125.6z"/>
	</g>
	<g id="icon-pepper">
		<path d="M160.4,119.6L160.4,119.6c0-2.6-1.8-4.7-3.9-4.7c-0.5,0-1,0.1-1.5,0.4c0.1-0.5,0.4-1.2,0.6-1.8c1-2.5,1.7-2.9,1.8-2.9
			c0.4-0.1,0.6-0.5,0.4-0.9c-0.1-0.4-0.5-0.6-0.9-0.4c-1,0.3-1.8,1.6-2.7,3.8c-0.3,0.9-0.6,1.8-0.8,2.4c-0.5-0.3-1-0.4-1.6-0.4
			c-2.2,0-3.9,2.1-3.9,4.7v0l0.8,8.6c0,1.3,0.3,2.4,0.9,3.3c0.6,0.9,1.6,1.4,2.6,1.4c0.7,0,1.3-0.2,1.9-0.6c0.5,0.4,1.2,0.6,1.9,0.6
			c1,0,2-0.5,2.6-1.4c0.6-0.8,0.9-2,0.9-3.3L160.4,119.6L160.4,119.6z"/>
		<path d="M147.7,127.9L147.7,127.9l-0.8-8v-0.1c0-1.3,0.4-2.5,1.2-3.5c0.1-0.1,0.2-0.4,0.1-0.6c-0.1-0.1-0.2-0.3-0.6-0.3
			c-2.2,0-3.9,2-3.9,4.4v0l0.8,8c0,1.2,0.3,2.3,0.9,3.1c0.6,0.9,1.5,1.3,2.6,1.3c0.3,0,0.7,0,0.9-0.3c0.1-0.2,0-0.4-0.2-0.6
			C148,130.5,147.7,129.4,147.7,127.9z"/>
		<path d="M160.9,115.4c-0.4,0-0.6,0.2-0.6,0.3c-0.1,0.2,0,0.5,0.1,0.6c0.8,1,1.2,2.2,1.2,3.5v0.1l-0.8,8l0,0c0,1.5-0.3,2.6-1,3.4
			c-0.2,0.2-0.2,0.4-0.2,0.6c0.2,0.3,0.6,0.3,0.9,0.3c1.1,0,2-0.5,2.6-1.3c0.6-0.8,0.9-1.9,0.9-3.1l0.8-8l0,0
			C164.8,117.4,163.1,115.4,160.9,115.4L160.9,115.4z"/>
	</g>
	<g id="icon-pyramid">
		<path d="M100.5,125.9h11.2c0.1,0,0.1,0,0.1-0.1c0,0,0-0.1,0-0.2l-2-3.3c0,0-0.1-0.1-0.1-0.1h-7.2c-0.1,0-0.1,0-0.1,0.1l-2,3.3
			c0,0,0,0.1,0,0.2C100.4,125.9,100.4,125.9,100.5,125.9L100.5,125.9z"/>
		<path d="M97.5,130.9h17.2c0.1,0,0.1,0,0.1-0.1c0,0,0-0.1,0-0.2l-2-3.3c0,0-0.1-0.1-0.1-0.1H99.5c-0.1,0-0.1,0-0.1,0.1l-2,3.3
			c0,0,0,0.1,0,0.2C97.4,130.8,97.4,130.9,97.5,130.9z"/>
		<path d="M103.5,121h5.2c0.1,0,0.1,0,0.1-0.1c0,0,0-0.1,0-0.2l-2.6-4.3c0,0-0.1-0.1-0.1-0.1c-0.1,0-0.1,0-0.1,0.1l-2.6,4.3
			c0,0,0,0.1,0,0.2S103.4,121,103.5,121L103.5,121z"/>
		<path d="M118,135.8l-2.1-3.5c0,0-0.1-0.1-0.1-0.1H96.5c-0.1,0-0.1,0-0.1,0.1l-2.1,3.5c0,0,0,0.1,0,0.2c0,0,0.1,0.1,0.1,0.1h23.5
			c0.1,0,0.1,0,0.1-0.1C118,135.9,118,135.8,118,135.8L118,135.8z"/>
	</g>
	<g id="icon-shirt">
		<path d="M56.8,117.9c1,0,1.9-0.7,2.2-1.6c-0.6,0.2-1.4,0.3-2.2,0.3c-0.9,0-1.6-0.1-2.2-0.3C54.9,117.2,55.7,117.9,56.8,117.9z"/>
		<path d="M68.7,119c0-0.1-0.2-0.3-0.3-0.3l-4.5-2.1c-1-0.3-1.9-0.6-2.9-0.8c0,0-0.1,0-0.1,0c-0.2,0-0.5,0.2-0.5,0.4
			c-0.4,1.6-1.8,2.8-3.5,2.8c-1.7,0-3.1-1.2-3.5-2.8c-0.1-0.2-0.3-0.4-0.5-0.4c0,0-0.1,0-0.1,0c-1,0.2-2,0.4-2.9,0.8l-4.5,2.1
			c-0.1,0.1-0.2,0.2-0.3,0.3c0,0.1,0,0.3,0,0.4l2,3.9c0.1,0.2,0.3,0.3,0.5,0.3c0.1,0,0.1,0,0.2,0l2.2-0.6V136c0,0.3,0.2,0.5,0.5,0.5
			h13c0.3,0,0.5-0.2,0.5-0.5V123l2.2,0.6c0.1,0,0.1,0,0.2,0c0.2,0,0.4-0.1,0.5-0.3l2-3.9C68.7,119.3,68.7,119.2,68.7,119L68.7,119z"
			/>
	</g>
	<g id="icon-strawberry">
		<path d="M229.8,76.3c0,0.1,0.1,0.1,0.2,0.1s0.1,0,0.2,0l3.9-2.6l3.9,2.6c0.1,0,0.1,0.1,0.2,0s0.1-0.1,0.2-0.1l1.3-2.6l4-2.6
			c0.1-0.1,0.1-0.1,0.1-0.2c0-0.1-0.1-0.2-0.2-0.2l-3.8-1.3v-2.5c0-0.1,0-0.2-0.1-0.2s-0.1-0.1-0.2,0l-3.9,1.3l-1.2-1.2
			c-0.1-0.1-0.1-0.1-0.2-0.1s-0.1,0-0.2,0.1l-1.2,1.2l-3.9-1.3c0,0-0.1,0-0.1,0c-0.1,0-0.1,0-0.1,0c-0.1,0-0.1,0.1-0.1,0.2v2.5
			l-3.8,1.3c-0.1,0-0.2,0.1-0.2,0.2c0,0.1,0,0.2,0.1,0.2l4,2.6L229.8,76.3L229.8,76.3z"/>
		<path d="M240.4,74.4l-1.1,2.3c0,0,0,0,0.1,0c0.4,0,0.8,0.4,0.8,0.8v1.3c0,0.4-0.4,0.8-0.8,0.8c-0.4,0-0.8-0.4-0.8-0.8v-1.3
			c0,0,0,0,0-0.1c-0.1,0-0.1,0-0.2,0.1c-0.1,0-0.2,0-0.4,0c-0.3,0-0.5-0.1-0.8-0.2l-3.3-2.2l-3.3,2.2c-0.2,0.2-0.5,0.2-0.8,0.2
			c-0.1,0-0.2,0-0.4,0c-0.1,0-0.1,0-0.2-0.1c0,0,0,0,0,0.1v1.3c0,0.4-0.4,0.8-0.8,0.8c-0.4,0-0.8-0.4-0.8-0.8v-1.3
			c0-0.4,0.4-0.8,0.8-0.8c0,0,0,0,0.1,0l-1.1-2.3l-2.4-1.6c-0.7,0.9-1.1,2-1.1,3.3c0,3.5,1.6,7.1,4.8,10.3c2.3,2.4,4.6,3.8,4.7,3.8
			c0.1,0.1,0.3,0.1,0.4,0.1s0.3,0,0.4-0.1c0.1-0.1,2.4-1.4,4.7-3.8c3.1-3.2,4.8-6.8,4.8-10.3c0-1.2-0.4-2.3-1.1-3.3L240.4,74.4
			L240.4,74.4z M232.1,82.8c0,0.4-0.4,0.8-0.8,0.8s-0.8-0.4-0.8-0.8v-1.3c0-0.4,0.4-0.8,0.8-0.8s0.8,0.4,0.8,0.8V82.8z M234.8,85.5
			c0,0.4-0.4,0.8-0.8,0.8s-0.8-0.4-0.8-0.8v-1.3c0-0.4,0.4-0.8,0.8-0.8s0.8,0.4,0.8,0.8V85.5z M234.8,80.2c0,0.4-0.4,0.8-0.8,0.8
			s-0.8-0.4-0.8-0.8v-1.3c0-0.4,0.4-0.8,0.8-0.8s0.8,0.4,0.8,0.8V80.2z M237.5,82.8c0,0.4-0.4,0.8-0.8,0.8c-0.4,0-0.8-0.4-0.8-0.8
			v-1.3c0-0.4,0.4-0.8,0.8-0.8c0.4,0,0.8,0.4,0.8,0.8V82.8z"/>
	</g>
	<g id="icon-tomato">
		<path d="M196.6,76.4c-0.1-0.1-0.3-0.1-0.4-0.1c-0.1,0-0.2,0-0.2,0l-1.2,0.4c-0.1,0-0.3,0.2-0.2,0.3c0,0.2,0.1,0.7,0.1,0.8
			c0,0.3,0,0.5-0.2,0.7c-0.2,0.2-0.4,0.3-0.7,0.3c-0.2,0-0.3,0-0.5-0.1L192,78c0,0-0.1,0-0.2,0c-0.1,0-0.1,0-0.2,0.1
			c-0.3,0.2-1.3,0.7-1.3,0.7c-0.2,0.1-0.3,0.1-0.5,0.1c-0.3,0-0.5-0.1-0.7-0.3c-0.2-0.2-0.2-0.5-0.2-0.7c0,0,0.1-0.5,0.1-0.7
			c0-0.2-0.1-0.3-0.2-0.4l0,0l-1.2-0.4c-0.1,0-0.1,0-0.2,0c-0.2,0-0.4,0.1-0.5,0.2c-1.5,1.4-2.4,3.3-2.4,5.3c0,3.9,3.3,7.1,7.3,7.1
			s7.3-3.2,7.3-7.1C199.1,79.7,198.2,77.7,196.6,76.4L196.6,76.4z"/>
		<path d="M188.3,75.7l1.6,0.5c0,0,0,0,0,0l-0.2,1.3c0,0.1,0,0.2,0.1,0.3c0.1,0.1,0.3,0.1,0.4,0l1.4-0.8c0,0,0,0,0.1,0s0.1,0,0.1,0
			l1.4,0.8c0.1,0,0.1,0.1,0.2,0.1c0.1,0,0.2,0,0.2-0.1c0.1-0.1,0.1-0.2,0.1-0.3l-0.2-1.3c0,0,0,0,0,0l1.6-0.5
			c0.2-0.1,0.2-0.2,0.2-0.3c0-0.1,0-0.2-0.2-0.3l-1.6-0.5c0,0,0,0,0,0l0.2-1.3c0-0.1,0-0.2-0.1-0.3c-0.1-0.1-0.3-0.1-0.4,0l-1,0.5
			c0.3-0.9,0.9-1.8,1.8-2.2c0.2-0.1,0.3-0.4,0.2-0.6c-0.1-0.2-0.4-0.3-0.6-0.2c-1.4,0.6-2.1,1.9-2.4,3.1l-1.1-0.6
			c-0.2-0.1-0.3-0.1-0.4,0c-0.1,0.1-0.1,0.2-0.1,0.3l0.2,1.3c0,0,0,0,0,0l-1.6,0.5c-0.2,0.1-0.2,0.2-0.2,0.3
			C188.1,75.5,188.1,75.6,188.3,75.7L188.3,75.7z"/>
		<path d="M199.8,72.1l1.2,0.4l-0.1,0.9c0,0.1,0,0.2,0.1,0.2c0.1,0.1,0.1,0.1,0.2,0.1c0.1,0,0.1,0,0.2,0l1.1-0.6c0,0,0,0,0,0
			s0,0,0,0l0,0l1.1,0.6c0.1,0,0.1,0,0.2,0c0.1,0,0.2,0,0.2-0.1c0.1-0.1,0.1-0.2,0.1-0.2l-0.1-0.9l1.2-0.4c0.2-0.1,0.2-0.2,0.2-0.3
			c0,0,0-0.2-0.2-0.3l-1.2-0.4l0.1-0.9c0-0.1,0-0.2-0.1-0.2c-0.1-0.1-0.1-0.1-0.2-0.1c-0.1,0-0.1,0-0.2,0l-0.8,0.4
			c-0.3-0.9-0.8-1.9-1.8-2.3c-0.2-0.1-0.4,0-0.5,0.2c-0.1,0.2,0,0.4,0.2,0.5c0.7,0.3,1.1,1,1.4,1.7l-0.8-0.4c-0.1,0-0.1,0-0.2,0
			c-0.1,0-0.2,0-0.2,0.1c-0.1,0.1-0.1,0.2-0.1,0.2l0.1,0.9l-1.2,0.4c-0.2,0.1-0.2,0.2-0.2,0.3C199.5,71.9,199.5,72,199.8,72.1z"/>
		<path d="M206.3,72.6c-0.1-0.1-0.4-0.1-0.6-0.1l-1,0.3c-0.1,0-0.2,0.2-0.2,0.3c0,0.2,0.1,0.6,0.1,0.6c0,0.2,0,0.4-0.2,0.5
			c-0.1,0.1-0.3,0.2-0.5,0.2c-0.1,0-0.2,0-0.4-0.1l-1-0.6c0,0-0.1,0-0.2,0c-0.1,0-0.1,0-0.2,0c-0.3,0.1-1,0.6-1,0.6
			c-0.1,0.1-0.2,0.1-0.4,0.1c-0.2,0-0.4-0.1-0.5-0.2c-0.1-0.1-0.2-0.3-0.2-0.5c0,0,0.1-0.4,0.1-0.6c0-0.2-0.1-0.3-0.2-0.4l0,0
			l-1-0.3c-0.1,0-0.1,0-0.2,0c-0.2,0-0.3,0.1-0.4,0.1c-0.6,0.6-1.2,1.3-1.5,2.1c-0.2,0.5,0.2,0.8,0.3,0.9c1.7,1.5,2.7,3.7,2.8,6.1
			c0,0.4,0.2,0.6,0.4,0.7c0.6,0.2,1.2,0.3,1.8,0.3c3.2,0,5.9-2.6,5.9-5.8C208.3,75.3,207.6,73.7,206.3,72.6L206.3,72.6z"/>
	</g>
	<g id="icon-tree">
		<path d="M154.2,66.5c-4.4,0-7.9,3.6-7.9,7.9c0,4.1,3.1,7.5,7.2,7.9v8h1.6v-8c4-0.4,7.2-3.8,7.2-7.9
			C162.1,70.1,158.6,66.5,154.2,66.5z M151.4,76.9c-0.4,0-0.8-0.4-0.8-0.8c0-0.4,0.4-0.8,0.8-0.8s0.8,0.4,0.8,0.8
			C152.1,76.5,151.8,76.9,151.4,76.9z M154.2,72c-0.4,0-0.8-0.4-0.8-0.8c0-0.4,0.4-0.8,0.8-0.8c0.4,0,0.8,0.4,0.8,0.8
			C155,71.6,154.6,72,154.2,72z M157,76.9c-0.4,0-0.8-0.4-0.8-0.8c0-0.4,0.4-0.8,0.8-0.8s0.8,0.4,0.8,0.8
			C157.8,76.5,157.5,76.9,157,76.9z"/>
	</g>
	<g id="icon-tree2">
		<path d="M66.6,73.6c0-1.8-1.4-3.3-3.1-3.5c-0.5-1.3-1.8-2.3-3.3-2.3c-0.7,0-1.3,0.2-1.8,0.5c-0.6-1.1-1.7-1.8-3.1-1.8
			c-1.7,0-3.2,1.3-3.4,2.9c-0.1,0-0.3,0-0.4,0c-1.9,0-3.5,1.6-3.5,3.5c0,0.1,0,0.2,0,0.3c-1,0.6-1.6,1.7-1.6,3
			c0,1.1,0.5,2.1,1.3,2.7c0,0.1,0,0.1,0,0.2c0,1.9,1.6,3.5,3.5,3.5c0.6,0,1.1-0.1,1.6-0.4c0.7,0.5,1.6,1.1,2.1,1
			c0,0,0.2,2.7,0.1,3.3c-0.1,1.3-0.5,2.7-0.7,3.9h4.2c0,0-0.6-2.6-0.6-3.4c0-0.9,0.3-2.4,0.3-2.4l1.5-1.5c0.6,0.4,1.2,0.6,2,0.6
			c1.8,0,3.3-1.4,3.5-3.1c1.3-0.5,2.3-1.8,2.3-3.3c0-0.9-0.3-1.7-0.9-2.3C66.5,74.4,66.6,74,66.6,73.6L66.6,73.6z M53.5,81.6
			c0.3-0.3,0.5-0.6,0.7-0.9l0.7,1.4C54.9,82.1,54.5,82.3,53.5,81.6z M56.1,82.5c-0.4,0.1-1-1-1.4-1.9c0.5,0.2,1,0.4,1.6,0.4
			c0.1,0,0.3,0,0.4,0C56.6,81.6,56.4,82.4,56.1,82.5z M57.6,83.2c-0.8,0.2-0.3-1.5-0.1-2.5c0.2-0.1,0.3-0.1,0.5-0.2
			c0.1,0.7,0.4,1.4,0.9,1.9C58.5,82.7,58,83.1,57.6,83.2z"/>
	</g>
	<g id="icon-angle-up">
		<path d="M112.7,81.2c0,0.1,0,0.2-0.1,0.3l-0.7,0.7c-0.1,0.1-0.2,0.1-0.3,0.1s-0.2,0-0.3-0.1l-5.2-5.2l-5.2,5.2
			c-0.1,0.1-0.2,0.1-0.3,0.1s-0.2,0-0.3-0.1l-0.7-0.7c-0.1-0.1-0.1-0.2-0.1-0.3s0-0.2,0.1-0.3l6.2-6.2c0.1-0.1,0.2-0.1,0.3-0.1
			s0.2,0,0.3,0.1l6.2,6.2C112.7,81,112.7,81.1,112.7,81.2L112.7,81.2z"/>
	</g>
	<g id="icon-angle-down">
		<path d="M240.6,35c0,0.1,0,0.2-0.1,0.3l-6.2,6.2c-0.1,0.1-0.2,0.1-0.3,0.1c-0.1,0-0.2,0-0.3-0.1l-6.2-6.2
			c-0.1-0.1-0.1-0.2-0.1-0.3c0-0.1,0-0.2,0.1-0.3l0.7-0.7c0.1-0.1,0.2-0.1,0.3-0.1c0.1,0,0.2,0,0.3,0.1l5.2,5.2l5.2-5.2
			c0.1-0.1,0.2-0.1,0.3-0.1s0.2,0,0.3,0.1l0.7,0.7C240.6,34.8,240.6,34.9,240.6,35L240.6,35z"/>
	</g>
	<g id="icon-rocket">
		<path d="M204.3,28.5c0-0.4-0.1-0.7-0.4-0.9c-0.2-0.2-0.5-0.4-0.9-0.4s-0.7,0.1-0.9,0.4c-0.2,0.2-0.4,0.5-0.4,0.9
			c0,0.4,0.1,0.7,0.4,0.9s0.5,0.4,0.9,0.4s0.7-0.1,0.9-0.4S204.3,28.8,204.3,28.5z M207.3,24.6c0,2.2-0.3,4.1-1,5.7
			c-0.7,1.6-1.8,3.2-3.4,4.8c-0.7,0.7-1.6,1.5-2.6,2.3l-0.3,5c0,0.1-0.1,0.3-0.2,0.3l-5.1,3c-0.1,0-0.1,0.1-0.2,0.1
			c-0.1,0-0.2,0-0.3-0.1l-0.9-0.9c-0.1-0.1-0.2-0.3-0.1-0.4l1.1-3.7l-3.7-3.7l-3.7,1.1c0,0-0.1,0-0.1,0c-0.1,0-0.2,0-0.3-0.1
			l-0.9-0.9c-0.2-0.2-0.2-0.3-0.1-0.5l3-5.1c0.1-0.1,0.2-0.2,0.3-0.2l5-0.3c0.9-1,1.6-1.9,2.3-2.6c1.7-1.7,3.3-2.8,4.8-3.4
			s3.4-0.9,5.7-0.9c0.1,0,0.2,0,0.3,0.1C207.2,24.4,207.3,24.5,207.3,24.6L207.3,24.6z"/>
	</g>
	<g id="icon-bug">
		<path d="M164.8,36.5c0,0.2-0.1,0.4-0.3,0.6c-0.2,0.2-0.4,0.3-0.6,0.3h-3c0,1.5-0.3,2.8-0.9,3.9l2.8,2.8c0.2,0.2,0.3,0.4,0.3,0.6
			c0,0.2-0.1,0.4-0.3,0.6c-0.2,0.2-0.4,0.3-0.6,0.3c-0.2,0-0.4-0.1-0.6-0.3l-2.6-2.6c0,0-0.1,0.1-0.2,0.2c-0.1,0.1-0.3,0.2-0.6,0.4
			c-0.3,0.2-0.6,0.3-0.9,0.5c-0.3,0.1-0.7,0.3-1.1,0.4c-0.4,0.1-0.9,0.2-1.3,0.2V32.3h-1.7v11.9c-0.5,0-0.9-0.1-1.3-0.2
			c-0.4-0.1-0.8-0.3-1.2-0.4c-0.3-0.2-0.6-0.3-0.9-0.5s-0.5-0.3-0.6-0.4l-0.2-0.2l-2.4,2.8c-0.2,0.2-0.4,0.3-0.6,0.3
			c-0.2,0-0.4-0.1-0.6-0.2c-0.2-0.2-0.3-0.4-0.3-0.6c0-0.2,0.1-0.4,0.2-0.6l2.7-3c-0.5-1-0.8-2.2-0.8-3.6h-3c-0.2,0-0.4-0.1-0.6-0.3
			c-0.2-0.2-0.3-0.4-0.3-0.6c0-0.2,0.1-0.4,0.3-0.6c0.2-0.2,0.4-0.3,0.6-0.3h3v-3.9l-2.3-2.3c-0.2-0.2-0.3-0.4-0.3-0.6
			s0.1-0.4,0.3-0.6c0.2-0.2,0.4-0.3,0.6-0.3s0.4,0.1,0.6,0.3l2.3,2.3h11.2l2.3-2.3c0.2-0.2,0.4-0.3,0.6-0.3c0.2,0,0.4,0.1,0.6,0.3
			c0.2,0.2,0.3,0.4,0.3,0.6s-0.1,0.4-0.3,0.6l-2.3,2.3v3.9h3c0.2,0,0.4,0.1,0.6,0.3C164.7,36.1,164.8,36.3,164.8,36.5L164.8,36.5z
			 M158.4,28.9h-8.5c0-1.2,0.4-2.2,1.2-3c0.8-0.8,1.8-1.2,3-1.2c1.2,0,2.2,0.4,3,1.2C158,26.7,158.4,27.7,158.4,28.9L158.4,28.9z"/>
	</g>
	<g id="icon-paint-brush">
		<path d="M115.7,23.7c0.6,0,1.2,0.2,1.6,0.6c0.5,0.4,0.7,0.9,0.7,1.5c0,0.6-0.2,1.2-0.6,2c-2.9,5.6-5,8.9-6.2,10
			c-0.9,0.8-1.8,1.2-2.9,1.2c-1.1,0-2.1-0.4-2.9-1.2c-0.8-0.8-1.2-1.8-1.2-2.9c0-1.1,0.4-2.1,1.2-2.8l8.5-7.7
			C114.5,24,115,23.7,115.7,23.7L115.7,23.7z M103.6,37.5c0.3,0.7,0.8,1.2,1.4,1.7c0.6,0.5,1.3,0.8,2,1l0,0.9c0,1.9-0.5,3.4-1.7,4.6
			c-1.2,1.2-2.7,1.8-4.6,1.8c-1.1,0-2.1-0.2-2.9-0.6c-0.8-0.4-1.5-1-2-1.7s-0.9-1.5-1.1-2.4c-0.3-0.9-0.4-1.9-0.4-2.9
			c0.1,0,0.2,0.2,0.5,0.4c0.3,0.2,0.6,0.4,0.8,0.6c0.2,0.2,0.5,0.3,0.8,0.5c0.3,0.2,0.5,0.2,0.6,0.2c0.4,0,0.6-0.2,0.7-0.5
			c0.2-0.6,0.5-1.1,0.8-1.5s0.6-0.7,0.9-1c0.3-0.3,0.7-0.5,1.2-0.6c0.5-0.2,0.9-0.3,1.4-0.3S102.9,37.5,103.6,37.5L103.6,37.5z"/>
	</g>
	<g id="icon-modx">
		<path d="M63.8,35.3l-8.2-5.1l1.2-2h11.4L63.8,35.3z M50.3,38.8l-2.4-1.5V25.8l15.7,9.9L50.3,38.8z M63.8,37l2,1.3v11.4l-7.1-4.5
			L63.8,37z M63.3,36.7l-6.6,10.7H45.3l4.7-7.6L63.3,36.7z"/>
	</g>
	<g>
		<path fill="#B4F5F5" d="M61,378.5c-0.6,0-1.3,0.2-1.8,0.5c-0.2,0.1-0.4,0.1-0.7,0c-0.2-0.1-0.3-0.3-0.4-0.5
			c-0.1-1.2-0.6-2.2-1.5-3c-0.9-0.8-2-1.2-3.2-1.2c-2.4,0-4.5,1.9-4.7,4.3c0,0.2-0.2,0.4-0.4,0.6c-0.2,0.1-0.5,0.1-0.7,0
			c-0.6-0.3-1.2-0.5-1.9-0.5c-2.1,0-3.7,1.7-3.7,3.7c0,1.7,1.1,3.2,2.7,3.6c0.2,0.1,0.3,0.2,0.4,0.3c0.1,0.2,0.1,0.4,0,0.5
			c-0.1,0.4-0.2,0.8-0.2,1.2c0,2.3,1.8,4.1,4.1,4.1c1.5,0,2.9-0.8,3.6-2.2c0.1-0.2,0.3-0.4,0.6-0.4c0.3,0,0.5,0.1,0.6,0.4
			c0.7,1.3,2.1,2.2,3.6,2.2c2.3,0,4.1-1.8,4.1-4.1c0-0.4-0.1-0.8-0.2-1.3c-0.1-0.2,0-0.4,0-0.5c0.1-0.2,0.2-0.3,0.4-0.3
			c1.6-0.5,2.7-1.9,2.7-3.6C64.7,380.2,63.1,378.5,61,378.5z M51.4,387.8h-4v-0.5l2.5-3.9h-2.5v-1h4v0.6l-2.4,3.9h2.4V387.8z
			 M51.4,385.1v-0.6l2.5-3.9h-2.5v-0.9h4v0.5l-2.4,3.9h2.5v1H51.4z M59.5,387.8h-4v-0.5l2.4-3.9h-2.5v-1h4.1v0.6l-2.5,3.9h2.5V387.8
			z"/>
		<path d="M66.1,382.3c0-2.8-2.3-5.1-5.1-5.1c-0.5,0-1.1,0.1-1.6,0.3c-0.3-1.2-0.9-2.2-1.8-3c-1.1-1-2.6-1.6-4.1-1.6
			c-2.8,0-5.2,2-5.9,4.7c-0.5-0.2-1.1-0.3-1.7-0.3c-2.8,0-5.1,2.3-5.1,5.1c0,2.1,1.2,3.9,3.1,4.7c-0.1,0.3-0.1,0.7-0.1,1
			c0,3,2.4,5.5,5.5,5.5c1.6,0,3.2-0.7,4.2-2c1,1.2,2.6,2,4.2,2c3,0,5.5-2.4,5.5-5.5c0-0.3,0-0.7-0.1-1
			C64.9,386.1,66.1,384.3,66.1,382.3z M62,385.9c-0.2,0.1-0.3,0.2-0.4,0.3c-0.1,0.2-0.1,0.4,0,0.5c0.1,0.4,0.2,0.8,0.2,1.3
			c0,2.3-1.8,4.1-4.1,4.1c-1.5,0-2.9-0.8-3.6-2.2c-0.1-0.2-0.3-0.4-0.6-0.4c-0.3,0-0.5,0.1-0.6,0.4c-0.7,1.3-2.1,2.2-3.6,2.2
			c-2.3,0-4.1-1.8-4.1-4.1c0-0.4,0.1-0.8,0.2-1.2c0.1-0.2,0-0.4,0-0.5c-0.1-0.2-0.2-0.3-0.4-0.3c-1.6-0.5-2.7-1.9-2.7-3.6
			c0-2.1,1.7-3.7,3.7-3.7c0.7,0,1.3,0.2,1.9,0.5c0.2,0.1,0.5,0.1,0.7,0c0.2-0.1,0.3-0.3,0.4-0.6c0.2-2.4,2.2-4.3,4.7-4.3
			c1.2,0,2.3,0.4,3.2,1.2c0.9,0.8,1.4,1.9,1.5,3c0,0.2,0.2,0.4,0.4,0.5c0.2,0.1,0.4,0.1,0.7,0c0.5-0.3,1.2-0.5,1.8-0.5
			c2.1,0,3.7,1.7,3.7,3.7C64.7,383.9,63.6,385.4,62,385.9z"/>
		<polygon points="51.4,382.9 51.4,382.4 47.4,382.4 47.4,383.4 49.8,383.4 47.4,387.3 47.4,387.8 51.4,387.8 51.4,386.9 49,386.9 
					"/>
		<polygon points="59.5,382.9 59.5,382.4 55.4,382.4 55.4,383.4 57.9,383.4 55.5,387.3 55.5,387.8 59.5,387.8 59.5,386.9 57,386.9 
					"/>
		<polygon points="55.5,384.1 53,384.1 55.4,380.1 55.4,379.6 51.4,379.6 51.4,380.6 53.9,380.6 51.4,384.5 51.4,385.1 55.5,385.1 
					"/>
		<path fill="#B4F5F5" d="M42.9,393.3c-0.4,0-0.7,0.3-0.7,0.7c0,0.4,0.3,0.7,0.7,0.7c0.4,0,0.7-0.3,0.7-0.7
			C43.6,393.6,43.2,393.3,42.9,393.3z"/>
		<path d="M42.9,391.9c-1.1,0-2.1,0.9-2.1,2.1c0,1.1,0.9,2.1,2.1,2.1c1.1,0,2.1-0.9,2.1-2.1C44.9,392.8,44,391.9,42.9,391.9z
			 M42.9,394.6c-0.4,0-0.7-0.3-0.7-0.7c0-0.4,0.3-0.7,0.7-0.7c0.4,0,0.7,0.3,0.7,0.7C43.6,394.3,43.2,394.6,42.9,394.6z"/>
	</g>
	<g id="icon-lab">
		<polygon fill="#06384A" points="106.6,369.5 105.5,370.6 104.2,369.8 105.8,368.8 		"/>
		<g>
			<polygon fill="#084B63" points="104.8,367.7 105.8,368.8 104.5,370.1 103.7,368.8 			"/>
			<polygon fill="#084B63" points="105.5,370.6 102.6,373.5 100.8,372.6 104.8,369.8 			"/>
		</g>
		<polygon fill="#146A8A" points="103.7,368.8 104.8,369.8 101.5,373.1 100.8,371.7 		"/>
		<g>
			<rect x="98.5" y="377.4" fill="#084B63" width="2.1" height="2.6"/>
			
				<rect x="94.7" y="375.3" transform="matrix(0.9167 -0.3997 0.3997 0.9167 -142.4075 69.7124)" fill="#084B63" width="2.6" height="2.1"/>
			<polygon fill="#084B63" points="103.3,387.9 103.3,391 99.6,391 101.2,387.9 			"/>
		</g>
		<rect x="98.3" y="387.9" fill="#146A8A" width="2.9" height="3.1"/>
		<path fill="#419EBE" d="M106.9,376.2l-4.1-1.4l-0.2,0.6l3.7,3.1l1.2,3.6l0.9-0.1v-3.6C108.4,377.4,107.7,376.5,106.9,376.2z"/>
		<path fill="#62B3CD" d="M107.5,378.7v3.3l-1.8,0.3v-2.7c0-0.4-0.3-1-0.7-1.2l-2.9-1.7l0.4-1.3l3.7,1.5
			C107,377.2,107.5,378,107.5,378.7z"/>
		<polygon fill="#82C8DB" points="108.4,382.7 108.4,390 106.3,390.5 106.3,382.2 		"/>
		<rect x="102.2" y="382.3" fill="#A3DDE9" width="4.6" height="8.2"/>
		<g>
			<path fill="#06384A" d="M92.2,390c-0.9,0-1.6,0.7-1.6,1.6h17.8V390H92.2z"/>
			<path fill="#06384A" d="M96.5,381.9c-0.2,0-0.4,0.2-0.4,0.4c0,0.2,0.2,0.4,0.4,0.4h11.9v-0.8L96.5,381.9L96.5,381.9z"/>
			<path fill="#06384A" d="M107.4,384.1v4.4c1.2,0,2.2-1,2.2-2.2C109.5,385.1,108.6,384.1,107.4,384.1z"/>
		</g>
		<path fill="#084B63" d="M107.4,384.1c0.6,0,1.1,1,1.1,2.2c0,1.2-0.5,2.2-1.1,2.2c0,0,0,0,0,0c-1.2,0-2.2-1-2.2-2.2
			S106.1,384.1,107.4,384.1C107.4,384.1,107.4,384.1,107.4,384.1z"/>
		<path fill="#82C8DB" d="M102.6,373.5l-1.8-1.8c-0.4-0.2-0.8-0.2-1.2-0.2v6.6c1.8,0,3.3-1.5,3.3-3.3
			C102.8,374.3,102.7,373.9,102.6,373.5z"/>
		<path fill="#A3DDE9" d="M99.5,371.5c-1.8,0-3.3,1.5-3.3,3.3c0,1.8,1.5,3.3,3.3,3.3c0.9,0,1.7-1.5,1.7-3.3
			C101.2,372.9,100.5,371.5,99.5,371.5z"/>
	</g>
</g>
</svg>
