<?xml version="1.0" encoding="iso-8859-1"?>
<!DOCTYPE svg PUBLIC "-//W3C//DTD SVG 1.1//EN" "http://www.w3.org/Graphics/SVG/1.1/DTD/svg11.dtd">
<svg xmlns="http://www.w3.org/2000/svg" xmlns:xlink="http://www.w3.org/1999/xlink" version="1.1" viewBox="0 0 260.736 260.736" enable-background="new 0 0 260.736 260.736" width="512px" height="512px">
  <g>
    <path d="m130.431,152.368c12.131,0 22-9.869 22-22s-9.869-22-22-22-22,9.869-22,22 9.869,22 22,22zm0-32c5.514,0 10,4.486 10,10s-4.486,10-10,10-10-4.486-10-10 4.486-10 10-10z" fill="#00BFF3"/>
    <path d="m254.736,124.451h-12.795c-2.989-56.964-48.865-102.756-105.865-105.608v-12.475c0-3.313-2.687-6-6-6s-6,2.687-6,6v12.518c-56.642,3.194-102.133,48.793-105.15,105.482h-12.926c-3.313,0-6,2.687-6,6s2.687,6 6,6h12.926c3.016,56.688 48.508,102.288 105.15,105.482v12.518c0,3.313 2.687,6 6,6s6-2.687 6-6v-12.476c56.944-2.849 102.785-48.554 105.854-105.441h12.806c3.313,0 6-2.687 6-6s-2.687-6-6-6zm-124.66,87.25c-3.313,0-6,2.687-6,6v12.125c-45.09-2.852-82.132-35.815-91.188-78.959 26.133,25.061 60.861,39.167 97.538,39.167 36.637,0 71.409-14.112 97.548-39.17-9.103,43.372-46.487,76.458-91.898,79.007v-12.17c0-3.314-2.686-6-6-6zm0-162.667c3.313,7.10543e-15 6-2.687 6-6v-12.17c44.378,2.49 81.087,34.146 91.23,76.063-25.931-24.536-60.211-38.396-96.324-38.538-0.101,0-0.2-0.008-0.301-0.008-0.03,0-0.06,0.002-0.09,0.002-0.055,0-0.11-0.002-0.166-0.002-36.365,0-70.812,13.872-96.868,38.535 10.093-41.688 46.463-73.222 90.518-76.008v12.125c0.001,3.315 2.688,6.001 6.001,6.001zm-87.409,75.334h-9.279c14.379-16.402 32.394-28.675 52.357-36.033-9.77,10.773-15.73,25.06-15.73,40.714 0,15.892 6.15,30.369 16.185,41.196-19.19-6.991-36.599-18.512-50.731-33.877h7.198c3.313,0 6-2.687 6-6s-2.687-6-6-6zm87.924-43.984c0.131,0 0.26,0.005 0.391,0.005 26.696,0.164 48.365,21.925 48.365,48.659 0,26.835-21.832,48.667-48.667,48.667s-48.667-21.832-48.667-48.667c0.001-26.804 21.785-48.615 48.578-48.664zm60.757,48.665c0-15.513-5.86-29.678-15.473-40.417 19.686,7.403 37.457,19.601 51.655,35.819h-9.461c-3.313,0-6,2.687-6,6s2.687,6 6,6h7.228c-13.921,15.102-31.019,26.501-49.861,33.507 9.876-10.796 15.912-25.16 15.912-40.909z" fill="#00BFF3"/>
  </g>
</svg>
