<svg xmlns="http://www.w3.org/2000/svg" xmlns:xlink="http://www.w3.org/1999/xlink" class="map map--1" viewBox="0 0 800 800" width="100%" height="100%" preserveAspectRatio="xMidYMid meet">
<g id="product-dda8cfba-064d-4250-b967-531c86e65f92">
	<g id="_x33_0cGu0USPANgWH9GKRLYy_x24_">
		<path fill="#FAFAFA" stroke="#000000" d="M360.5,510.2V403.1h178.5v107.1H360.5"/>
	</g>
	<g id="_x31_3aXq7RBrB_x5F_BxyECC_x24_6Ssb">
		<path fill="#FAFAFA" stroke="#000000" d="M83.1,8.7H832v234.5H626v64.3H353.3v-42.8H83.1V8.7"/>
	</g>
	<g id="_x33_aEaH3Qu13YeTSfsOPg9Em">
		<path fill="#FAFAFA" stroke="#000000" d="M823,243.2v59.6H707.4v-59.6H823"/>
	</g>
	<g id="_x30_S_x24_hMVe_x24_nEZuszx1LsPw3h">
		<path fill="#FAFAFA" stroke="#000000" d="M279.4,394.5v-25h73.9v25H279.4"/>
	</g>
	<g id="_x31_N1J676pbCE8WfXLzFtrbH">
		<path fill="#FAFAFA" stroke="#000000" d="M353.3,531.6h-73.9V401.7h73.9V531.6"/>
	</g>
	<g id="_x33_ZKbj82cD259AlYd_x5F_R4PsS">
		<path fill="#FAFAFA" stroke="#000000" d="M92.1,401.7h22.1v-7.1H92.1V264.6h261.3v100.3h-78.5v83.2H92.1V401.7"/>
	</g>
	<g id="_x31_kOVKskLLDpeRToE83GwNC">
		<path fill="#FAFAFA" stroke="#000000" d="M702.8,243.2v59.6H626v-59.6H702.8"/>
	</g>
	<g id="_x30_bdoiwXtD58AN8Hrms2A1P">
		<path fill="#FAFAFA" stroke="#000000" d="M406.8,307.4v0.7H405v-0.7H406.8"/>
		<path fill="#FAFAFA" stroke="#000000" d="M368.1,308.1v-0.7h1.8v0.7H368.1"/>
		<path fill="#FAFAFA" stroke="#000000" d="M405.4,300.3v3h-0.9v-3H405.4"/>
		<path fill="#FAFAFA" stroke="#000000" d="M369.4,303.3v-3h0.9v3H369.4"/>
		<path fill="#FAFAFA" stroke="#000000" d="M405,299.6h1.8v0.7H405V299.6"/>
		<path fill="#FAFAFA" stroke="#000000" d="M368.1,299.6h1.8v0.7h-1.8V299.6"/>
		<path fill="#FAFAFA" stroke="#000000" d="M403.7,306v-2.7h1.8v4.1h-1.4V306H403.7"/>
		<path fill="#FAFAFA" stroke="#000000" d="M370.7,306v1.4h-1.4v-4.1h1.8v2.7H370.7"/>
		<path fill="#FAFAFA" stroke="#000000" d="M404.1,307.4h-33.3V306h33.3V307.4"/>
	</g>
	<g id="_x33_1mcO6Ocr4iPB6dFeQXIxI">
		<path fill="#FAFAFA" stroke="#000000" d="M451.6,308.1h-1.8v-0.7h1.8V308.1"/>
		<path fill="#FAFAFA" stroke="#000000" d="M488.5,308.1h-1.8v-0.7h1.8V308.1"/>
		<path fill="#FAFAFA" stroke="#000000" d="M452,303.3h-0.9v-3h0.9V303.3"/>
		<path fill="#FAFAFA" stroke="#000000" d="M487.2,303.3h-0.9v-3h0.9V303.3"/>
		<path fill="#FAFAFA" stroke="#000000" d="M449.8,300.3v-0.7h1.8v0.7H449.8"/>
		<path fill="#FAFAFA" stroke="#000000" d="M488.5,299.6v0.7h-1.8v-0.7H488.5"/>
		<path fill="#FAFAFA" stroke="#000000" d="M452.9,303.3v2.7h-0.4v1.4h-1.4v-4.1H452.9"/>
		<path fill="#FAFAFA" stroke="#000000" d="M485.8,306h-0.4v-2.7h1.8v4.1h-1.4V306"/>
		<path fill="#FAFAFA" stroke="#000000" d="M485.8,306v1.4h-33.3V306H485.8"/>
	</g>
	<g id="_x31_d5nbUOF13T9Wv2QUYlpON">
		<path fill="#FAFAFA" stroke="#000000" d="M576.5,302.8v3.2h-0.4v1.4h-1.4v-4.6H576.5"/>
		<path fill="#FAFAFA" stroke="#000000" d="M605.9,306h-0.4v-3.2h1.8v4.6h-1.4V306"/>
		<path fill="#FAFAFA" stroke="#000000" d="M605.9,306v1.4h-29.8V306H605.9"/>
	</g>
	<g id="_x31_a_x5F_fF3pSHEMO1Wo9DlvV_x24_L">
		<path fill="#FAFAFA" stroke="#000000" d="M83.1,787.5V264.6h270.2v42.8h7.1v202.7h258.4V368.8H832v418.7H83.1"/>
	</g>
	<g id="_x32_9Sgtk6kPEEf_x24_lEkwPSvJW">
		<path fill="#FAFAFA" stroke="#000000" d="M274.8,531.6H92.1v-78.9h182.7V531.6"/>
	</g>
	<g id="_x33_bgZu2wRHCgw6oHQisAkd9">
		<path fill="#FAFAFA" stroke="#000000" d="M296.8,365.4h-0.9v-0.5h0.9V365.4"/>
		<path fill="#FAFAFA" stroke="#000000" d="M339.1,365.4h-0.9v-0.5h0.9V365.4"/>
		<path fill="#FAFAFA" stroke="#000000" d="M294.5,364.9v-0.7h1.8v0.7H294.5"/>
		<path fill="#FAFAFA" stroke="#000000" d="M340.4,364.2v0.7h-1.8v-0.7H340.4"/>
		<path fill="#FAFAFA" stroke="#000000" d="M296.3,370.2h-1.8v-0.7h1.8V370.2"/>
		<path fill="#FAFAFA" stroke="#000000" d="M340.4,370.2h-1.8v-0.7h1.8V370.2"/>
		<path fill="#FAFAFA" stroke="#000000" d="M297.7,366.9v2.7h-1.8v-4.1h1.4v1.4H297.7"/>
		<path fill="#FAFAFA" stroke="#000000" d="M337.7,366.9v-1.4h1.4v4.1h-1.8v-2.7H337.7"/>
		<path fill="#FAFAFA" stroke="#000000" d="M317.5,365.4h20.2v1.4h-20.2V365.4"/>
		<path fill="#FAFAFA" stroke="#000000" d="M297.2,366.9v-1.4h20.2v1.4H297.2"/>
	</g>
	<g id="_x33_zIZ_x24_MBarAEPtH8ClGbtTu">
		<path fill="#FAFAFA" stroke="#000000" d="M360.5,510.2V307.4H823v61.4H618.9v141.3H360.5"/>
	</g>
	<g id="_x32_iwOlMQzHEDfhNtymrgBqM">
		<path fill="#FAFAFA" stroke="#000000" d="M405,509.5h1.8v0.7H405V509.5"/>
		<path fill="#FAFAFA" stroke="#000000" d="M368.1,509.5h1.8v0.7h-1.8V509.5"/>
		<path fill="#FAFAFA" stroke="#000000" d="M404.6,514.3h0.9v3h-0.9V514.3"/>
		<path fill="#FAFAFA" stroke="#000000" d="M369.4,514.3h0.9v3h-0.9V514.3"/>
		<path fill="#FAFAFA" stroke="#000000" d="M406.8,517.3v0.7H405v-0.7H406.8"/>
		<path fill="#FAFAFA" stroke="#000000" d="M368.1,518v-0.7h1.8v0.7H368.1"/>
		<path fill="#FAFAFA" stroke="#000000" d="M403.7,514.3v-2.7h0.4v-1.4h1.4v4.1H403.7"/>
		<path fill="#FAFAFA" stroke="#000000" d="M370.8,511.6h0.4v2.7h-1.8v-4.1h1.4V511.6"/>
		<path fill="#FAFAFA" stroke="#000000" d="M370.8,511.6v-1.4h33.3v1.4H370.8"/>
	</g>
	<g id="_x31_3HZIHeJ52IRHDVGsqR9Uc">
		<path fill="#FAFAFA" stroke="#000000" d="M708.1,370.2v3.2h-1.8v-4.6h1.4v1.4H708.1"/>
		<path fill="#FAFAFA" stroke="#000000" d="M741,370.2v-1.4h1.4v4.6h-1.8v-3.2H741"/>
		<path fill="#FAFAFA" stroke="#000000" d="M737.5,368.8h3.6v1.4h-3.6V368.8"/>
		<path fill="#FAFAFA" stroke="#000000" d="M707.7,370.2v-1.4h3.6v1.4H707.7"/>
		<path fill="#FAFAFA" stroke="#000000" d="M711.3,369.3h26.2v0.4h-26.2V369.3"/>
	</g>
	<g id="_x31_XohEXXFjFUQP_x24_J3jNfAam">
		<path fill="#FAFAFA" stroke="#000000" d="M355.8,432.4h3.2v0.4h1.4v1.4h-4.6V432.4"/>
		<path fill="#FAFAFA" stroke="#000000" d="M359,403v0.4h-3.2v-1.8h4.6v1.4H359"/>
		<path fill="#FAFAFA" stroke="#000000" d="M359,403h1.4v29.8H359V403"/>
	</g>
	<g id="_x30_uN5fl6bv5Ch_x5F_e7s9wW0PG">
		<path fill="#FAFAFA" stroke="#000000" d="M356.4,364v0.9h-3V364H356.4"/>
		<path fill="#FAFAFA" stroke="#000000" d="M356.4,307.4v0.9h-3v-0.9H356.4"/>
		<path fill="#FAFAFA" stroke="#000000" d="M353.3,366.2h-0.7v-1.8h0.7V366.2"/>
		<path fill="#FAFAFA" stroke="#000000" d="M352.7,306.1h0.7v1.8h-0.7V306.1"/>
		<path fill="#FAFAFA" stroke="#000000" d="M361.1,364.4v1.8h-0.7v-1.8H361.1"/>
		<path fill="#FAFAFA" stroke="#000000" d="M361.1,306.1v1.8h-0.7v-1.8H361.1"/>
		<path fill="#FAFAFA" stroke="#000000" d="M357.8,363.1h2.7v1.8h-4.1v-1.4h1.4V363.1"/>
		<path fill="#FAFAFA" stroke="#000000" d="M357.8,308.8h-1.4v-1.4h4.1v1.8h-2.7V308.8"/>
		<path fill="#FAFAFA" stroke="#000000" d="M356.4,312.4v-3.6h1.4v3.6H356.4"/>
		<path fill="#FAFAFA" stroke="#000000" d="M357.8,342.7h-1.4v-3.6h1.4V342.7"/>
		<path fill="#FAFAFA" stroke="#000000" d="M356.9,339.1v-26.8h0.4v26.8H356.9"/>
		<path fill="#FAFAFA" stroke="#000000" d="M357.8,363.5h-1.4V360h1.4V363.5"/>
		<path fill="#FAFAFA" stroke="#000000" d="M356.4,342.7h1.4v3.6h-1.4V342.7"/>
		<path fill="#FAFAFA" stroke="#000000" d="M357.3,360h-0.4v-13.7h0.4V360"/>
	</g>
	<g id="_x33_w7lrjB7j6gQe4ww_x24_BYEpg">
		<path fill="#FAFAFA" stroke="#000000" d="M832,307.4H626v-64.3H832V307.4"/>
	</g>
	<g id="_x32_B_x5F_lmztmb2vA_x5F_Rh_x24_vte8h0">
		<path fill="#FAFAFA" stroke="#000000" d="M823,531.6H626V373.5h197V531.6"/>
	</g>
	<g id="_x31_UgmqCUUj3V9_x5F_AoEIhb44k">
		<path fill="#FAFAFA" stroke="#000000" d="M649.8,302.8v3.2h-0.4v1.4H648v-4.6H649.8"/>
		<path fill="#FAFAFA" stroke="#000000" d="M679.1,306h-0.4v-3.2h1.8v4.6h-1.4V306"/>
		<path fill="#FAFAFA" stroke="#000000" d="M679.1,306v1.4h-29.8V306H679.1"/>
	</g>
	<g id="_x31_BYB6_x5F_0lv4XRtj1rF_x24_aK6Q">
		<path fill="#FAFAFA" stroke="#000000" d="M770.9,302.8v3.2h-0.4v1.4h-1.4v-4.6H770.9"/>
		<path fill="#FAFAFA" stroke="#000000" d="M800.3,306h-0.4v-3.2h1.8v4.6h-1.4V306"/>
		<path fill="#FAFAFA" stroke="#000000" d="M800.3,306v1.4h-29.8V306H800.3"/>
	</g>
	<g id="_x30_vMCyoeZnAfhTrWy3XohLY">
		<path fill="#FAFAFA" stroke="#000000" d="M538.9,510.2V403.1H360.5v-95.7H832v61.4H618.9v141.3H538.9"/>
	</g>
	<g id="_x32_vhSBjcR91NQZKdkyxPDJA">
		<path fill="#FAFAFA" stroke="#000000" d="M835.5,85.2h-7.1v-1.4h7.1V85.2"/>
		<path fill="#FAFAFA" stroke="#000000" d="M828.4,42.8v1.4h7.1v-1.4H828.4"/>
		<path fill="#FAFAFA" stroke="#000000" d="M835.9,85.2h-0.4v-1.8h0.4V85.2"/>
		<path fill="#FAFAFA" stroke="#000000" d="M835.5,42.8v1.8h0.4v-1.8H835.5"/>
		<path fill="#FAFAFA" stroke="#000000" d="M834.5,44.2h1.1v1.1h-1.1V44.2"/>
		<path fill="#FAFAFA" stroke="#000000" d="M834.5,83.8v-1.1h1.1v1.1H834.5"/>
		<path fill="#FAFAFA" stroke="#000000" d="M835.2,82.7h-0.1V45.3h0.1V82.7"/>
		<path fill="#FAFAFA" stroke="#000000" d="M828,44.2h1.1v1.1H828V44.2"/>
		<path fill="#FAFAFA" stroke="#000000" d="M828,83.8v-1.1h1.1v1.1H828"/>
		<path fill="#FAFAFA" stroke="#000000" d="M828,43.8h0.4v0.4H828V43.8"/>
		<path fill="#FAFAFA" stroke="#000000" d="M828,84.2v-0.4h0.4v0.4H828"/>
		<path fill="#FAFAFA" stroke="#000000" d="M828.5,82.7h-0.1V45.3h0.1V82.7"/>
		<path fill="#FAFAFA" stroke="#000000" d="M828.9,82.7h-0.1V45.3h0.1V82.7"/>
	</g>
	<g id="_x30_HPgdmcJP3_x24_9QIgpFjnkxQ">
		<path fill="#FAFAFA" stroke="#000000" d="M835.5,149.7h-7.1v1.4h7.1V149.7"/>
		<path fill="#FAFAFA" stroke="#000000" d="M835.5,190.7v1.4h-7.1v-1.4H835.5"/>
		<path fill="#FAFAFA" stroke="#000000" d="M835.5,149.7h0.4v1.8h-0.4V149.7"/>
		<path fill="#FAFAFA" stroke="#000000" d="M835.9,190.4v1.8h-0.4v-1.8H835.9"/>
		<path fill="#FAFAFA" stroke="#000000" d="M835.5,151.1v1.1h-1.1v-1.1H835.5"/>
		<path fill="#FAFAFA" stroke="#000000" d="M835.5,189.6v1.1h-1.1v-1.1H835.5"/>
		<path fill="#FAFAFA" stroke="#000000" d="M835.1,152.2h0.1v37.5h-0.1V152.2"/>
		<path fill="#FAFAFA" stroke="#000000" d="M829.1,151.1v1.1H828v-1.1H829.1"/>
		<path fill="#FAFAFA" stroke="#000000" d="M829.1,189.6v1.1H828v-1.1H829.1"/>
		<path fill="#FAFAFA" stroke="#000000" d="M828.4,150.7v0.4H828v-0.4H828.4"/>
		<path fill="#FAFAFA" stroke="#000000" d="M828.4,190.7v0.4H828v-0.4H828.4"/>
		<path fill="#FAFAFA" stroke="#000000" d="M828.4,152.2h0.1v37.5h-0.1V152.2"/>
		<path fill="#FAFAFA" stroke="#000000" d="M828.8,152.2h0.1v37.5h-0.1V152.2"/>
	</g>
	<g id="_x33_o4bLthI58QOnBF2woqwwl">
		<path fill="#FAFAFA" stroke="#000000" d="M828.4,582.8h7.1v1.4h-7.1V582.8"/>
		<path fill="#FAFAFA" stroke="#000000" d="M835.5,602.4v1.4h-7.1v-1.4H835.5"/>
		<path fill="#FAFAFA" stroke="#000000" d="M835.5,582.8h0.4v1.8h-0.4V582.8"/>
		<path fill="#FAFAFA" stroke="#000000" d="M835.9,602.1v1.8h-0.4v-1.8H835.9"/>
		<path fill="#FAFAFA" stroke="#000000" d="M835.5,584.2v1.1h-1.1v-1.1H835.5"/>
		<path fill="#FAFAFA" stroke="#000000" d="M835.5,601.4v1.1h-1.1v-1.1H835.5"/>
		<path fill="#FAFAFA" stroke="#000000" d="M835.1,585.3h0.1v16.1h-0.1V585.3"/>
		<path fill="#FAFAFA" stroke="#000000" d="M829.1,584.2v1.1H828v-1.1H829.1"/>
		<path fill="#FAFAFA" stroke="#000000" d="M829.1,601.4v1.1H828v-1.1H829.1"/>
		<path fill="#FAFAFA" stroke="#000000" d="M828.4,583.9v0.4H828v-0.4H828.4"/>
		<path fill="#FAFAFA" stroke="#000000" d="M828.4,602.4v0.4H828v-0.4H828.4"/>
		<path fill="#FAFAFA" stroke="#000000" d="M828.4,585.3h0.1v16.1h-0.1V585.3"/>
		<path fill="#FAFAFA" stroke="#000000" d="M828.8,585.3h0.1v16.1h-0.1V585.3"/>
	</g>
	<g id="_x32_vujIhgsvExhK3PTqZuFxd">
		<path fill="#FAFAFA" stroke="#000000" d="M835.9,482.7v0.5h-7.5v-0.5H835.9"/>
		<path fill="#FAFAFA" stroke="#000000" d="M835.9,508.9v0.5h-7.5v-0.5H835.9"/>
		<path fill="#FAFAFA" stroke="#000000" d="M835.5,483.2h-7.1v1.4h7.1V483.2"/>
		<path fill="#FAFAFA" stroke="#000000" d="M835.5,507.5v1.4h-7.1v-1.4H835.5"/>
		<path fill="#FAFAFA" stroke="#000000" d="M835.5,483.2h0.4v1.8h-0.4V483.2"/>
		<path fill="#FAFAFA" stroke="#000000" d="M835.9,507.1v1.8h-0.4v-1.8H835.9"/>
		<path fill="#FAFAFA" stroke="#000000" d="M835.5,484.6v1.1h-1.1v-1.1H835.5"/>
		<path fill="#FAFAFA" stroke="#000000" d="M835.5,506.4v1.1h-1.1v-1.1H835.5"/>
		<path fill="#FAFAFA" stroke="#000000" d="M835.1,485.7h0.1v20.7h-0.1V485.7"/>
		<path fill="#FAFAFA" stroke="#000000" d="M829.1,484.6v1.1H828v-1.1H829.1"/>
		<path fill="#FAFAFA" stroke="#000000" d="M829.1,506.4v1.1H828v-1.1H829.1"/>
		<path fill="#FAFAFA" stroke="#000000" d="M828.4,484.3v0.4H828v-0.4H828.4"/>
		<path fill="#FAFAFA" stroke="#000000" d="M828.4,507.5v0.4H828v-0.4H828.4"/>
		<path fill="#FAFAFA" stroke="#000000" d="M828.4,485.7h0.1v20.7h-0.1V485.7"/>
		<path fill="#FAFAFA" stroke="#000000" d="M828.8,485.7h0.1v20.7h-0.1V485.7"/>
	</g>
	<g id="_x33_BpmE_x24_fIj8Qv4CFu8mJ21m">
		<path fill="#FAFAFA" stroke="#000000" d="M834.8,425.6h-5.7v-1.8h7.1v1.4h-1.4V425.6"/>
		<path fill="#FAFAFA" stroke="#000000" d="M834.8,465.3h1.4v1.4h-7.1v-1.8h5.7V465.3"/>
		<path fill="#FAFAFA" stroke="#000000" d="M836.3,461.7v3.6h-1.4v-3.6H836.3"/>
		<path fill="#FAFAFA" stroke="#000000" d="M834.8,425.1h1.4v3.6h-1.4V425.1"/>
		<path fill="#FAFAFA" stroke="#000000" d="M835.8,428.7v33h-0.4v-33H835.8"/>
	</g>
	<g id="_x33_o75Sap_x5F_r5RvqFNNFzAgcF">
		<path fill="#FAFAFA" stroke="#000000" d="M834.8,309.2h-5.7v-1.8h7.1v1.4h-1.4V309.2"/>
		<path fill="#FAFAFA" stroke="#000000" d="M834.8,366.7h1.4v1.4h-7.1v-1.8h5.7V366.7"/>
		<path fill="#FAFAFA" stroke="#000000" d="M836.3,363.2v3.6h-1.4v-3.6H836.3"/>
		<path fill="#FAFAFA" stroke="#000000" d="M834.8,323.9h1.4v3.6h-1.4V323.9"/>
		<path fill="#FAFAFA" stroke="#000000" d="M835.8,327.5v35.7h-0.4v-35.7H835.8"/>
		<path fill="#FAFAFA" stroke="#000000" d="M834.8,308.8h1.4v3.6h-1.4V308.8"/>
		<path fill="#FAFAFA" stroke="#000000" d="M836.3,323.9h-1.4v-3.6h1.4V323.9"/>
		<path fill="#FAFAFA" stroke="#000000" d="M835.3,312.4h0.4v8h-0.4V312.4"/>
	</g>
	<g id="_x33_pD97Pg3947Bogj6cVk7zP">
		<path fill="#FAFAFA" stroke="#000000" d="M829.1,730.4h5.7v0.4h1.4v1.4h-7.1V730.4"/>
		<path fill="#FAFAFA" stroke="#000000" d="M834.8,690.7v0.4h-5.7v-1.8h7.1v1.4H834.8"/>
		<path fill="#FAFAFA" stroke="#000000" d="M834.8,690.7h1.4v3.6h-1.4V690.7"/>
		<path fill="#FAFAFA" stroke="#000000" d="M836.3,730.8h-1.4v-3.6h1.4V730.8"/>
		<path fill="#FAFAFA" stroke="#000000" d="M835.3,694.3h0.4v33h-0.4V694.3"/>
	</g>
	<g id="_x33_K_x24_tusKnDE38_x5F_1sI_x5F_LXo5P">
		<path fill="#FAFAFA" stroke="#000000" d="M505.7,4.7h0.5v7.5h-0.5V4.7"/>
		<path fill="#FAFAFA" stroke="#000000" d="M532,4.7h0.5v7.5H532V4.7"/>
		<path fill="#FAFAFA" stroke="#000000" d="M506.3,12.2V5.1h1.4v7.1H506.3"/>
		<path fill="#FAFAFA" stroke="#000000" d="M530.5,5.1h1.4v7.1h-1.4V5.1"/>
		<path fill="#FAFAFA" stroke="#000000" d="M506.3,5.1V4.7h1.8v0.4H506.3"/>
		<path fill="#FAFAFA" stroke="#000000" d="M530.2,4.7h1.8v0.4h-1.8V4.7"/>
		<path fill="#FAFAFA" stroke="#000000" d="M507.7,5.1h1.1v1.1h-1.1V5.1"/>
		<path fill="#FAFAFA" stroke="#000000" d="M529.5,5.1h1.1v1.1h-1.1V5.1"/>
		<path fill="#FAFAFA" stroke="#000000" d="M508.8,5.6V5.5h20.7v0.1H508.8"/>
		<path fill="#FAFAFA" stroke="#000000" d="M507.7,11.5h1.1v1.1h-1.1V11.5"/>
		<path fill="#FAFAFA" stroke="#000000" d="M529.5,11.5h1.1v1.1h-1.1V11.5"/>
		<path fill="#FAFAFA" stroke="#000000" d="M507.3,12.2h0.4v0.4h-0.4V12.2"/>
		<path fill="#FAFAFA" stroke="#000000" d="M530.5,12.2h0.4v0.4h-0.4V12.2"/>
		<path fill="#FAFAFA" stroke="#000000" d="M508.8,12.2v-0.1h20.7v0.1H508.8"/>
		<path fill="#FAFAFA" stroke="#000000" d="M508.8,11.9v-0.1h20.7v0.1H508.8"/>
	</g>
	<g id="_x30_TWgnnSgzCuumiG9h4S1GW">
		<path fill="#FAFAFA" stroke="#000000" d="M374.2,5.1v7.1h-1.4V5.1H374.2"/>
		<path fill="#FAFAFA" stroke="#000000" d="M333.2,12.2h-1.4V5.1h1.4V12.2"/>
		<path fill="#FAFAFA" stroke="#000000" d="M374.2,4.7v0.4h-1.8V4.7H374.2"/>
		<path fill="#FAFAFA" stroke="#000000" d="M333.5,5.1h-1.8V4.7h1.8V5.1"/>
		<path fill="#FAFAFA" stroke="#000000" d="M333.2,6.2V5.1h1.1v1.1H333.2"/>
		<path fill="#FAFAFA" stroke="#000000" d="M372.8,6.2h-1.1V5.1h1.1V6.2"/>
		<path fill="#FAFAFA" stroke="#000000" d="M371.7,5.5v0.1h-37.5V5.5H371.7"/>
		<path fill="#FAFAFA" stroke="#000000" d="M333.2,12.6v-1.1h1.1v1.1H333.2"/>
		<path fill="#FAFAFA" stroke="#000000" d="M372.8,12.6h-1.1v-1.1h1.1V12.6"/>
		<path fill="#FAFAFA" stroke="#000000" d="M332.8,12.6v-0.4h0.4v0.4H332.8"/>
		<path fill="#FAFAFA" stroke="#000000" d="M373.1,12.6h-0.4v-0.4h0.4V12.6"/>
		<path fill="#FAFAFA" stroke="#000000" d="M371.7,12.1v0.1h-37.5v-0.1H371.7"/>
		<path fill="#FAFAFA" stroke="#000000" d="M371.7,11.8v0.1h-37.5v-0.1H371.7"/>
	</g>
	<g id="_x32_IwTq0iLr8pPbJo5bL1KlO">
		<path fill="#FAFAFA" stroke="#000000" d="M626.6,5.1v7.1h-1.4V5.1H626.6"/>
		<path fill="#FAFAFA" stroke="#000000" d="M585.5,12.2h-1.4V5.1h1.4V12.2"/>
		<path fill="#FAFAFA" stroke="#000000" d="M626.6,4.7v0.4h-1.8V4.7H626.6"/>
		<path fill="#FAFAFA" stroke="#000000" d="M585.9,5.1h-1.8V4.7h1.8V5.1"/>
		<path fill="#FAFAFA" stroke="#000000" d="M585.5,6.2V5.1h1.1v1.1H585.5"/>
		<path fill="#FAFAFA" stroke="#000000" d="M625.1,6.2h-1.1V5.1h1.1V6.2"/>
		<path fill="#FAFAFA" stroke="#000000" d="M624.1,5.5v0.1h-37.5V5.5H624.1"/>
		<path fill="#FAFAFA" stroke="#000000" d="M585.5,12.6v-1.1h1.1v1.1H585.5"/>
		<path fill="#FAFAFA" stroke="#000000" d="M625.1,12.6h-1.1v-1.1h1.1V12.6"/>
		<path fill="#FAFAFA" stroke="#000000" d="M585.2,12.6v-0.4h0.4v0.4H585.2"/>
		<path fill="#FAFAFA" stroke="#000000" d="M625.5,12.6h-0.4v-0.4h0.4V12.6"/>
		<path fill="#FAFAFA" stroke="#000000" d="M624.1,12.1v0.1h-37.5v-0.1H624.1"/>
		<path fill="#FAFAFA" stroke="#000000" d="M624.1,11.8v0.1h-37.5v-0.1H624.1"/>
	</g>
	<g id="_x31_2RCfGDN96VQDHgg5ky0La">
		<path fill="#FAFAFA" stroke="#000000" d="M506.1,4.7v7.5h-1.8V4.7H506.1"/>
	</g>
	<g id="_x32_ESUA_x5F_OIDFHw64SlDlgivu">
		<path fill="#FAFAFA" stroke="#000000" d="M268.7,12.2V4.7h1.8v7.5H268.7"/>
	</g>
	<g id="_x30_N1njRXB57ixw_x24_PfJBwxNv">
		<path fill="#FAFAFA" stroke="#000000" d="M771.7,4.7v7.5h-1.8V4.7H771.7"/>
	</g>
	<g id="_x31_XEQd2YnP9ZAba_x24_NUfAdLn">
		<path fill="#FAFAFA" stroke="#000000" d="M242,4.7h0.5v7.5H242V4.7"/>
		<path fill="#FAFAFA" stroke="#000000" d="M268.2,4.7h0.5v7.5h-0.5V4.7"/>
		<path fill="#FAFAFA" stroke="#000000" d="M268.2,5.1v7.1h-1.4V5.1H268.2"/>
		<path fill="#FAFAFA" stroke="#000000" d="M243.9,12.2h-1.4V5.1h1.4V12.2"/>
		<path fill="#FAFAFA" stroke="#000000" d="M268.2,4.7v0.4h-1.8V4.7H268.2"/>
		<path fill="#FAFAFA" stroke="#000000" d="M244.3,5.1h-1.8V4.7h1.8V5.1"/>
		<path fill="#FAFAFA" stroke="#000000" d="M243.9,6.2V5.1h1.1v1.1H243.9"/>
		<path fill="#FAFAFA" stroke="#000000" d="M266.8,6.2h-1.1V5.1h1.1V6.2"/>
		<path fill="#FAFAFA" stroke="#000000" d="M265.7,5.5v0.1H245V5.5H265.7"/>
		<path fill="#FAFAFA" stroke="#000000" d="M243.9,12.6v-1.1h1.1v1.1H243.9"/>
		<path fill="#FAFAFA" stroke="#000000" d="M266.8,12.6h-1.1v-1.1h1.1V12.6"/>
		<path fill="#FAFAFA" stroke="#000000" d="M243.6,12.6v-0.4h0.4v0.4H243.6"/>
		<path fill="#FAFAFA" stroke="#000000" d="M267.1,12.6h-0.4v-0.4h0.4V12.6"/>
		<path fill="#FAFAFA" stroke="#000000" d="M265.7,12.1v0.1H245v-0.1H265.7"/>
		<path fill="#FAFAFA" stroke="#000000" d="M265.7,11.8v0.1H245v-0.1H265.7"/>
	</g>
	<g id="_x31_dyb_x24_p_x24_RrDtPvOj35rG7DF">
		<path fill="#FAFAFA" stroke="#000000" d="M771.7,4.7h0.5v7.5h-0.5V4.7"/>
		<path fill="#FAFAFA" stroke="#000000" d="M797.9,4.7h0.5v7.5h-0.5V4.7"/>
		<path fill="#FAFAFA" stroke="#000000" d="M772.2,12.2V5.1h1.4v7.1H772.2"/>
		<path fill="#FAFAFA" stroke="#000000" d="M796.5,5.1h1.4v7.1h-1.4V5.1"/>
		<path fill="#FAFAFA" stroke="#000000" d="M772.2,5.1V4.7h1.8v0.4H772.2"/>
		<path fill="#FAFAFA" stroke="#000000" d="M796.1,4.7h1.8v0.4h-1.8V4.7"/>
		<path fill="#FAFAFA" stroke="#000000" d="M773.6,5.1h1.1v1.1h-1.1V5.1"/>
		<path fill="#FAFAFA" stroke="#000000" d="M795.4,5.1h1.1v1.1h-1.1V5.1"/>
		<path fill="#FAFAFA" stroke="#000000" d="M774.7,5.6V5.5h20.7v0.1H774.7"/>
		<path fill="#FAFAFA" stroke="#000000" d="M773.6,11.5h1.1v1.1h-1.1V11.5"/>
		<path fill="#FAFAFA" stroke="#000000" d="M795.4,11.5h1.1v1.1h-1.1V11.5"/>
		<path fill="#FAFAFA" stroke="#000000" d="M773.3,12.2h0.4v0.4h-0.4V12.2"/>
		<path fill="#FAFAFA" stroke="#000000" d="M796.5,12.2h0.4v0.4h-0.4V12.2"/>
		<path fill="#FAFAFA" stroke="#000000" d="M774.7,12.2v-0.1h20.7v0.1H774.7"/>
		<path fill="#FAFAFA" stroke="#000000" d="M774.7,11.9v-0.1h20.7v0.1H774.7"/>
	</g>
	<g id="_x31_5QtswCi50h9oW_x5F_UJbnhvP">
		<path fill="#FAFAFA" stroke="#000000" d="M270.5,4.7h0.5v7.5h-0.5V4.7"/>
		<path fill="#FAFAFA" stroke="#000000" d="M306.4,4.7h0.5v7.5h-0.5V4.7"/>
		<path fill="#FAFAFA" stroke="#000000" d="M306.4,5.1v7.1H305V5.1H306.4"/>
		<path fill="#FAFAFA" stroke="#000000" d="M272.5,12.2h-1.4V5.1h1.4V12.2"/>
		<path fill="#FAFAFA" stroke="#000000" d="M306.4,4.7v0.4h-1.8V4.7H306.4"/>
		<path fill="#FAFAFA" stroke="#000000" d="M272.8,5.1h-1.8V4.7h1.8V5.1"/>
		<path fill="#FAFAFA" stroke="#000000" d="M272.5,6.2V5.1h1.1v1.1H272.5"/>
		<path fill="#FAFAFA" stroke="#000000" d="M305,6.2h-1.1V5.1h1.1V6.2"/>
		<path fill="#FAFAFA" stroke="#000000" d="M303.9,5.5v0.1h-30.3V5.5H303.9"/>
		<path fill="#FAFAFA" stroke="#000000" d="M272.5,12.6v-1.1h1.1v1.1H272.5"/>
		<path fill="#FAFAFA" stroke="#000000" d="M305,12.6h-1.1v-1.1h1.1V12.6"/>
		<path fill="#FAFAFA" stroke="#000000" d="M272.1,12.6v-0.4h0.4v0.4H272.1"/>
		<path fill="#FAFAFA" stroke="#000000" d="M305.3,12.6H305v-0.4h0.4V12.6"/>
		<path fill="#FAFAFA" stroke="#000000" d="M303.9,12.1v0.1h-30.3v-0.1H303.9"/>
		<path fill="#FAFAFA" stroke="#000000" d="M303.9,11.8v0.1h-30.3v-0.1H303.9"/>
	</g>
	<g id="_x31_16wHJq1fFofdg2S2lUArZ">
		<path fill="#FAFAFA" stroke="#000000" d="M467.9,4.7h0.5v7.5h-0.5V4.7"/>
		<path fill="#FAFAFA" stroke="#000000" d="M503.8,4.7h0.5v7.5h-0.5V4.7"/>
		<path fill="#FAFAFA" stroke="#000000" d="M468.4,12.2V5.1h1.4v7.1H468.4"/>
		<path fill="#FAFAFA" stroke="#000000" d="M502.3,5.1h1.4v7.1h-1.4V5.1"/>
		<path fill="#FAFAFA" stroke="#000000" d="M468.4,5.1V4.7h1.8v0.4H468.4"/>
		<path fill="#FAFAFA" stroke="#000000" d="M502,4.7h1.8v0.4H502V4.7"/>
		<path fill="#FAFAFA" stroke="#000000" d="M469.9,5.1h1.1v1.1h-1.1V5.1"/>
		<path fill="#FAFAFA" stroke="#000000" d="M501.3,5.1h1.1v1.1h-1.1V5.1"/>
		<path fill="#FAFAFA" stroke="#000000" d="M470.9,5.6V5.5h30.3v0.1H470.9"/>
		<path fill="#FAFAFA" stroke="#000000" d="M469.9,11.5h1.1v1.1h-1.1V11.5"/>
		<path fill="#FAFAFA" stroke="#000000" d="M501.3,11.5h1.1v1.1h-1.1V11.5"/>
		<path fill="#FAFAFA" stroke="#000000" d="M469.5,12.2h0.4v0.4h-0.4V12.2"/>
		<path fill="#FAFAFA" stroke="#000000" d="M502.3,12.2h0.4v0.4h-0.4V12.2"/>
		<path fill="#FAFAFA" stroke="#000000" d="M470.9,12.2v-0.1h30.3v0.1H470.9"/>
		<path fill="#FAFAFA" stroke="#000000" d="M470.9,11.9v-0.1h30.3v0.1H470.9"/>
	</g>
	<g id="_x30_x4LikARr1Lw_x5F_NsV56yGPQ">
		<path fill="#FAFAFA" stroke="#000000" d="M733.5,4.7h0.5v7.5h-0.5V4.7"/>
		<path fill="#FAFAFA" stroke="#000000" d="M769.3,4.7h0.5v7.5h-0.5V4.7"/>
		<path fill="#FAFAFA" stroke="#000000" d="M734,12.2V5.1h1.4v7.1H734"/>
		<path fill="#FAFAFA" stroke="#000000" d="M767.9,5.1h1.4v7.1h-1.4V5.1"/>
		<path fill="#FAFAFA" stroke="#000000" d="M734,5.1V4.7h1.8v0.4H734"/>
		<path fill="#FAFAFA" stroke="#000000" d="M767.5,4.7h1.8v0.4h-1.8V4.7"/>
		<path fill="#FAFAFA" stroke="#000000" d="M735.4,5.1h1.1v1.1h-1.1V5.1"/>
		<path fill="#FAFAFA" stroke="#000000" d="M766.8,5.1h1.1v1.1h-1.1V5.1"/>
		<path fill="#FAFAFA" stroke="#000000" d="M736.5,5.6V5.5h30.3v0.1H736.5"/>
		<path fill="#FAFAFA" stroke="#000000" d="M735.4,11.5h1.1v1.1h-1.1V11.5"/>
		<path fill="#FAFAFA" stroke="#000000" d="M766.8,11.5h1.1v1.1h-1.1V11.5"/>
		<path fill="#FAFAFA" stroke="#000000" d="M735.1,12.2h0.4v0.4h-0.4V12.2"/>
		<path fill="#FAFAFA" stroke="#000000" d="M767.9,12.2h0.4v0.4h-0.4V12.2"/>
		<path fill="#FAFAFA" stroke="#000000" d="M736.5,12.2v-0.1h30.3v0.1H736.5"/>
		<path fill="#FAFAFA" stroke="#000000" d="M736.5,11.9v-0.1h30.3v0.1H736.5"/>
	</g>
	<g id="_x32_kBvfyAH91lg8GCw543w6_x5F_">
		<path fill="#FAFAFA" stroke="#000000" d="M138.3,5.1v7.1h-1.4V5.1H138.3"/>
		<path fill="#FAFAFA" stroke="#000000" d="M118.6,12.2h-1.4V5.1h1.4V12.2"/>
		<path fill="#FAFAFA" stroke="#000000" d="M138.3,4.7v0.4h-1.8V4.7H138.3"/>
		<path fill="#FAFAFA" stroke="#000000" d="M119,5.1h-1.8V4.7h1.8V5.1"/>
		<path fill="#FAFAFA" stroke="#000000" d="M118.6,6.2V5.1h1.1v1.1H118.6"/>
		<path fill="#FAFAFA" stroke="#000000" d="M136.9,6.2h-1.1V5.1h1.1V6.2"/>
		<path fill="#FAFAFA" stroke="#000000" d="M135.8,5.5v0.1h-16.1V5.5H135.8"/>
		<path fill="#FAFAFA" stroke="#000000" d="M118.6,12.6v-1.1h1.1v1.1H118.6"/>
		<path fill="#FAFAFA" stroke="#000000" d="M136.9,12.6h-1.1v-1.1h1.1V12.6"/>
		<path fill="#FAFAFA" stroke="#000000" d="M118.3,12.6v-0.4h0.4v0.4H118.3"/>
		<path fill="#FAFAFA" stroke="#000000" d="M137.2,12.6h-0.4v-0.4h0.4V12.6"/>
		<path fill="#FAFAFA" stroke="#000000" d="M135.8,12.1v0.1h-16.1v-0.1H135.8"/>
		<path fill="#FAFAFA" stroke="#000000" d="M135.8,11.8v0.1h-16.1v-0.1H135.8"/>
	</g>
	<g id="_x32_aV7mI1iT6w9BNUN18nBc2">
		<path fill="#FAFAFA" stroke="#000000" d="M85.3,438.1h-6v-2.5h6V438.1"/>
		<path fill="#FAFAFA" stroke="#000000" d="M79.2,409.2v-2.5h6v2.5H79.2"/>
		<path fill="#FAFAFA" stroke="#000000" d="M79.2,438.1L79.2,438.1l0-2.5h0V438.1"/>
		<path fill="#FAFAFA" stroke="#000000" d="M79.2,409.2v-2.5h0L79.2,409.2L79.2,409.2"/>
		<path fill="#FAFAFA" stroke="#000000" d="M79.7,435.6h-0.1v-26.4h0.1V435.6"/>
		<path fill="#FAFAFA" stroke="#000000" d="M84.9,435.6h-0.1v-26.4h0.1V435.6"/>
	</g>
	<g id="_x32_xUEs1R6v3ev_x5F_cfW8fEctX">
		<path fill="#FAFAFA" stroke="#000000" d="M85.3,352.4h-6.1v-1.8h6.1V352.4"/>
	</g>
	<g id="_x31_6k6urg_x5F_967uTUlE4RI3Ij">
		<path fill="#FAFAFA" stroke="#000000" d="M85.3,384.2h-6v-2.5h6V384.2"/>
		<path fill="#FAFAFA" stroke="#000000" d="M79.2,355.3v-2.5h6v2.5H79.2"/>
		<path fill="#FAFAFA" stroke="#000000" d="M79.2,384.2L79.2,384.2l0-2.5h0V384.2"/>
		<path fill="#FAFAFA" stroke="#000000" d="M79.2,355.3v-2.5h0L79.2,355.3L79.2,355.3"/>
		<path fill="#FAFAFA" stroke="#000000" d="M79.7,381.7h-0.1v-26.4h0.1V381.7"/>
		<path fill="#FAFAFA" stroke="#000000" d="M84.9,381.7h-0.1v-26.4h0.1V381.7"/>
	</g>
	<g id="_x31_5VajfwtnCgf3WyrQskQlf">
		<path fill="#FAFAFA" stroke="#000000" d="M86.7,732.4h-7.1v-1.4h7.1V732.4"/>
		<path fill="#FAFAFA" stroke="#000000" d="M79.6,712.7v-1.4h7.1v1.4H79.6"/>
		<path fill="#FAFAFA" stroke="#000000" d="M79.6,732.4h-0.4v-1.8h0.4V732.4"/>
		<path fill="#FAFAFA" stroke="#000000" d="M79.2,713.1v-1.8h0.4v1.8H79.2"/>
		<path fill="#FAFAFA" stroke="#000000" d="M79.6,730.9v-1.1h1.1v1.1H79.6"/>
		<path fill="#FAFAFA" stroke="#000000" d="M79.6,713.8v-1.1h1.1v1.1H79.6"/>
		<path fill="#FAFAFA" stroke="#000000" d="M80,729.9h-0.1v-16.1H80V729.9"/>
		<path fill="#FAFAFA" stroke="#000000" d="M86,730.9v-1.1h1.1v1.1H86"/>
		<path fill="#FAFAFA" stroke="#000000" d="M86,713.8v-1.1h1.1v1.1H86"/>
		<path fill="#FAFAFA" stroke="#000000" d="M86.7,731.3v-0.4h0.4v0.4H86.7"/>
		<path fill="#FAFAFA" stroke="#000000" d="M86.7,712.7v-0.4h0.4v0.4H86.7"/>
		<path fill="#FAFAFA" stroke="#000000" d="M86.7,729.9h-0.1v-16.1h0.1V729.9"/>
		<path fill="#FAFAFA" stroke="#000000" d="M86.3,729.9h-0.1v-16.1h0.1V729.9"/>
	</g>
	<g id="_x30_tAAGhEJT2JwTaOiINCsuv">
		<path fill="#FAFAFA" stroke="#000000" d="M80.6,348.8h4.6v1.8h-6.1v-1.4h1.4V348.8"/>
		<path fill="#FAFAFA" stroke="#000000" d="M80.6,308.8h-1.4v-1.4h6.1v1.8h-4.6V308.8"/>
		<path fill="#FAFAFA" stroke="#000000" d="M79.2,312.4v-3.6h1.4v3.6H79.2"/>
		<path fill="#FAFAFA" stroke="#000000" d="M80.6,349.3h-1.4v-3.6h1.4V349.3"/>
		<path fill="#FAFAFA" stroke="#000000" d="M79.7,345.7v-33.3h0.4v33.3H79.7"/>
	</g>
	<g id="_x33_8_x24__x24_5w825F_x24_B_x5F_XpjkS0woz">
		<path fill="#FAFAFA" stroke="#000000" d="M85.3,476.6h-4.6v-0.4h-1.4v-1.4h6.1V476.6"/>
		<path fill="#FAFAFA" stroke="#000000" d="M80.6,506v-0.4h4.6v1.8h-6.1V506H80.6"/>
		<path fill="#FAFAFA" stroke="#000000" d="M80.6,506h-1.4v-29.8h1.4V506"/>
	</g>
	<g id="_x30_Kv_x24__x24_qlLTE3wE5hqhCkzx_x5F_">
		<path fill="#FAFAFA" stroke="#000000" d="M86.7,235.1h-7.1v-1.4h7.1V235.1"/>
		<path fill="#FAFAFA" stroke="#000000" d="M79.6,194.1v-1.4h7.1v1.4H79.6"/>
		<path fill="#FAFAFA" stroke="#000000" d="M79.6,235.1h-0.4v-1.8h0.4V235.1"/>
		<path fill="#FAFAFA" stroke="#000000" d="M79.2,194.5v-1.8h0.4v1.8H79.2"/>
		<path fill="#FAFAFA" stroke="#000000" d="M79.6,233.7v-1.1h1.1v1.1H79.6"/>
		<path fill="#FAFAFA" stroke="#000000" d="M79.6,195.2v-1.1h1.1v1.1H79.6"/>
		<path fill="#FAFAFA" stroke="#000000" d="M80,232.6h-0.1v-37.5H80V232.6"/>
		<path fill="#FAFAFA" stroke="#000000" d="M86,233.7v-1.1h1.1v1.1H86"/>
		<path fill="#FAFAFA" stroke="#000000" d="M86,195.2v-1.1h1.1v1.1H86"/>
		<path fill="#FAFAFA" stroke="#000000" d="M86.7,234.1v-0.4h0.4v0.4H86.7"/>
		<path fill="#FAFAFA" stroke="#000000" d="M86.7,194.1v-0.4h0.4v0.4H86.7"/>
		<path fill="#FAFAFA" stroke="#000000" d="M86.7,232.6h-0.1v-37.5h0.1V232.6"/>
		<path fill="#FAFAFA" stroke="#000000" d="M86.3,232.6h-0.1v-37.5h0.1V232.6"/>
	</g>
	<g id="_x30_LOIXbU_x24_XBlwChA38dWW_x24_V">
		<path fill="#FAFAFA" stroke="#000000" d="M86.7,71h-7.1v-1.4h7.1V71"/>
		<path fill="#FAFAFA" stroke="#000000" d="M79.6,44.2v-1.4h7.1v1.4H79.6"/>
		<path fill="#FAFAFA" stroke="#000000" d="M79.6,71h-0.4v-1.8h0.4V71"/>
		<path fill="#FAFAFA" stroke="#000000" d="M79.2,44.5v-1.8h0.4v1.8H79.2"/>
		<path fill="#FAFAFA" stroke="#000000" d="M79.6,69.5v-1.1h1.1v1.1H79.6"/>
		<path fill="#FAFAFA" stroke="#000000" d="M79.6,45.3v-1.1h1.1v1.1H79.6"/>
		<path fill="#FAFAFA" stroke="#000000" d="M80,68.5h-0.1V45.3H80V68.5"/>
		<path fill="#FAFAFA" stroke="#000000" d="M86,69.5v-1.1h1.1v1.1H86"/>
		<path fill="#FAFAFA" stroke="#000000" d="M86,45.3v-1.1h1.1v1.1H86"/>
		<path fill="#FAFAFA" stroke="#000000" d="M86.7,69.9v-0.4h0.4v0.4H86.7"/>
		<path fill="#FAFAFA" stroke="#000000" d="M86.7,44.2v-0.4h0.4v0.4H86.7"/>
		<path fill="#FAFAFA" stroke="#000000" d="M86.7,68.5h-0.1V45.3h0.1V68.5"/>
		<path fill="#FAFAFA" stroke="#000000" d="M86.3,68.5h-0.1V45.3h0.1V68.5"/>
	</g>
	<g id="_x30_J97EKdDj2aQDHCJVPrxtv">
		<path fill="#FAFAFA" stroke="#000000" d="M86.7,42.4h-7.1V41h7.1V42.4"/>
		<path fill="#FAFAFA" stroke="#000000" d="M79.6,29.9v-1.4h7.1v1.4H79.6"/>
		<path fill="#FAFAFA" stroke="#000000" d="M79.6,42.4h-0.4v-1.8h0.4V42.4"/>
		<path fill="#FAFAFA" stroke="#000000" d="M79.2,30.3v-1.8h0.4v1.8H79.2"/>
		<path fill="#FAFAFA" stroke="#000000" d="M79.6,41v-1.1h1.1V41H79.6"/>
		<path fill="#FAFAFA" stroke="#000000" d="M79.6,31v-1.1h1.1V31H79.6"/>
		<path fill="#FAFAFA" stroke="#000000" d="M80,39.9h-0.1V31H80V39.9"/>
		<path fill="#FAFAFA" stroke="#000000" d="M86,41v-1.1h1.1V41H86"/>
		<path fill="#FAFAFA" stroke="#000000" d="M86,31v-1.1h1.1V31H86"/>
		<path fill="#FAFAFA" stroke="#000000" d="M86.7,41.3V41h0.4v0.4H86.7"/>
		<path fill="#FAFAFA" stroke="#000000" d="M86.7,29.9v-0.4h0.4v0.4H86.7"/>
		<path fill="#FAFAFA" stroke="#000000" d="M86.7,39.9h-0.1V31h0.1V39.9"/>
		<path fill="#FAFAFA" stroke="#000000" d="M86.3,39.9h-0.1V31h0.1V39.9"/>
	</g>
	<g id="_x33_Fe8gOrlz85gRntFKBRgR_x5F_">
		<path fill="#FAFAFA" stroke="#000000" d="M396,783.9v7.1h-1.4v-7.1H396"/>
		<path fill="#FAFAFA" stroke="#000000" d="M354.9,791.1h-1.4v-7.1h1.4V791.1"/>
		<path fill="#FAFAFA" stroke="#000000" d="M396,791.1v0.4h-1.8v-0.4H396"/>
		<path fill="#FAFAFA" stroke="#000000" d="M355.3,791.4h-1.8v-0.4h1.8V791.4"/>
		<path fill="#FAFAFA" stroke="#000000" d="M394.6,791.1h-1.1V790h1.1V791.1"/>
		<path fill="#FAFAFA" stroke="#000000" d="M356,791.1h-1.1V790h1.1V791.1"/>
		<path fill="#FAFAFA" stroke="#000000" d="M393.5,790.6v0.1H356v-0.1H393.5"/>
		<path fill="#FAFAFA" stroke="#000000" d="M394.6,784.6h-1.1v-1.1h1.1V784.6"/>
		<path fill="#FAFAFA" stroke="#000000" d="M356,784.6h-1.1v-1.1h1.1V784.6"/>
		<path fill="#FAFAFA" stroke="#000000" d="M394.9,783.9h-0.4v-0.4h0.4V783.9"/>
		<path fill="#FAFAFA" stroke="#000000" d="M354.9,783.9h-0.4v-0.4h0.4V783.9"/>
		<path fill="#FAFAFA" stroke="#000000" d="M393.5,783.9v0.1H356v-0.1H393.5"/>
		<path fill="#FAFAFA" stroke="#000000" d="M393.5,784.3v0.1H356v-0.1H393.5"/>
	</g>
	<g id="_x31_FtftFx2zBTAIK_x5F_mJcUL4d">
		<path fill="#FAFAFA" stroke="#000000" d="M802.2,783.9v7.1h-1.4v-7.1H802.2"/>
		<path fill="#FAFAFA" stroke="#000000" d="M782.5,791.1h-1.4v-7.1h1.4V791.1"/>
		<path fill="#FAFAFA" stroke="#000000" d="M802.2,791.1v0.4h-1.8v-0.4H802.2"/>
		<path fill="#FAFAFA" stroke="#000000" d="M782.9,791.4h-1.8v-0.4h1.8V791.4"/>
		<path fill="#FAFAFA" stroke="#000000" d="M800.7,791.1h-1.1V790h1.1V791.1"/>
		<path fill="#FAFAFA" stroke="#000000" d="M783.6,791.1h-1.1V790h1.1V791.1"/>
		<path fill="#FAFAFA" stroke="#000000" d="M799.7,790.6v0.1h-16.1v-0.1H799.7"/>
		<path fill="#FAFAFA" stroke="#000000" d="M800.7,784.6h-1.1v-1.1h1.1V784.6"/>
		<path fill="#FAFAFA" stroke="#000000" d="M783.6,784.6h-1.1v-1.1h1.1V784.6"/>
		<path fill="#FAFAFA" stroke="#000000" d="M801.1,783.9h-0.4v-0.4h0.4V783.9"/>
		<path fill="#FAFAFA" stroke="#000000" d="M782.5,783.9h-0.4v-0.4h0.4V783.9"/>
		<path fill="#FAFAFA" stroke="#000000" d="M799.7,783.9v0.1h-16.1v-0.1H799.7"/>
		<path fill="#FAFAFA" stroke="#000000" d="M799.7,784.3v0.1h-16.1v-0.1H799.7"/>
	</g>
	<g id="_x30_YOYpnnPv1UQD_x5F_jC0RgPb3">
		<path fill="#FAFAFA" stroke="#000000" d="M2.1,559.2v-4.4v-9.5H76v9.5v4.4H2.1"/>
	</g>
	<g id="_x30__x24_epntx7T8bwNLZE1Zrus5">
		<path fill="#FAFAFA" stroke="#000000" d="M76.3,794.3V1.9h762.4v792.4H76.3"/>
	</g>
	<g id="_x31_fjbc2aUTAngJvHwtqxn1N">
		<path fill="#FAFAFA" stroke="#000000" d="M202,204h0.7v1.8H202V204"/>
		<path fill="#FAFAFA" stroke="#000000" d="M202.7,235.6H202v-1.8h0.7V235.6"/>
		<path fill="#FAFAFA" stroke="#000000" d="M194.9,205.3h3v0.9h-3V205.3"/>
		<path fill="#FAFAFA" stroke="#000000" d="M197.9,234.3h-3v-0.9h3V234.3"/>
		<path fill="#FAFAFA" stroke="#000000" d="M194.2,205.8V204h0.7v1.8H194.2"/>
		<path fill="#FAFAFA" stroke="#000000" d="M194.2,235.6v-1.8h0.7v1.8H194.2"/>
		<path fill="#FAFAFA" stroke="#000000" d="M202,207.1h-2.7v-0.4h-1.4v-1.4h4.1V207.1"/>
		<path fill="#FAFAFA" stroke="#000000" d="M199.3,232.9v-0.4h2.7v1.8h-4.1v-1.4H199.3"/>
		<path fill="#FAFAFA" stroke="#000000" d="M199.3,232.9h-1.4v-26.2h1.4V232.9"/>
	</g>
	<g id="_x31_tFCtQjGn8zxPCOmuJRA90">
		<path fill="#FAFAFA" stroke="#000000" d="M92.1,257.5v-100h102.8v100H92.1"/>
	</g>
	<g id="_x33_1kKhXwWXE8vEo9jRMQeLS">
		<path fill="#FAFAFA" stroke="#000000" d="M691,236v-85.8h85.7v-21.9H823V236H691"/>
	</g>
	<g id="_x32_SPGK5sCLAZAmEjDU33ZHD">
		<path fill="#FAFAFA" stroke="#000000" d="M626.7,128.2h-65V17.6H823v110.1H754v22H626.7V128.2"/>
	</g>
	<g id="_x30_R5LUAzYv4JB4RLzyspedZ">
		<path fill="#FAFAFA" stroke="#000000" d="M561.8,300.3v-172h65V236h-7.9v64.2H561.8"/>
	</g>
	<g id="_x32_UuScTHTL7Y9uRdCecBk3p">
		<path fill="#FAFAFA" stroke="#000000" d="M628.9,165.8l3.6,1l1.6-5.9l24.1,6.5l4.2-15.6h26.5v81.4h-60V165.8"/>
	</g>
	<g id="_x32_clemu0ZTBuf0_x24_X_x24_l_x24_QDDj">
		<path fill="#FAFAFA" stroke="#000000" d="M424.7,213.9V17.6h129.9v196.3H424.7"/>
	</g>
	<g id="_x33_Xd8G6q7H9QP9DSLcZ_x5F_z86">
		<path fill="#FAFAFA" stroke="#000000" d="M424.7,300.3v-86.4h64.9v86.4H424.7"/>
	</g>
	<g id="_x33_d8Gr6PwDCiOdficFKfXQf">
		<path fill="#FAFAFA" stroke="#000000" d="M491.8,230l3.6,1l1.6-5.9l24.1,6.5l4.2-15.6h26.5v81.4h-60V230"/>
	</g>
	<g id="_x32_Ndql7A3n2ug4QWQUyj23W">
		<path fill="#FAFAFA" stroke="#000000" d="M309.5,65.2V17.6h108.1l0,110.6h-86.4v-63H309.5"/>
	</g>
	<g id="_x31_wXPzIlc91w9NlqH06ALLR">
		<path fill="#FAFAFA" stroke="#000000" d="M202,257.5V106.8h1V17.6h106.5v47.7h21.7v192.2H202"/>
	</g>
	<g id="_x30_16CkkBFPD88TeywJ70Xhe">
		<path fill="#FAFAFA" stroke="#000000" d="M417.6,300.3h-57.1v-42.8h-29.3v-65h86.4V300.3"/>
	</g>
	<g id="_x31_tNIjAJDfALhRoF7XP8SBI">
		<path fill="#FAFAFA" stroke="#000000" d="M347.3,190.3l1-3.6l-5.9-1.6l6.5-24.1l-15.6-4.2v-26.5h81.4v60H347.3"/>
	</g>
	<g id="_x33_J0tjJu596yAdEQIaCkKbL">
		<path fill="#FAFAFA" stroke="#000000" d="M92.1,17.6H203l0,89.2h-1v43.5H92.1V17.6"/>
	</g>
	<g id="_x33_Nf7p_x24_tzPAHeSxAbD6_x24_yhD">
		<path fill="#FAFAFA" stroke="#000000" d="M92.1,538.7h268.4v-21.4h57.1v261.3H92.1V538.7"/>
	</g>
	<g id="_x33_CkClKuHH9K8I8tZ9ncaG2">
		<path fill="#FAFAFA" stroke="#000000" d="M424.7,517.3h129.9v261.3H424.7V517.3"/>
	</g>
	<g id="_x30_JwMgGr2b0iALVrv8WVpGw">
		<path fill="#FAFAFA" stroke="#000000" d="M561.8,778.6V517.3h57.1v21.4H823v239.9H561.8"/>
	</g>
	<g id="_x33_jIQ_x24_mTwb3NQT7O6MitfJM">
		<path fill="#FAFAFA" stroke="#000000" d="M92.1,17.6h325.5v282.7h-57.1v-42.8H92.1v-100h102.8v100h7.1V150.4H92.1V17.6"/>
		<path fill="#FAFAFA" stroke="#000000" d="M348.9,161l-17.7-4.8v36.3l15.6,0l1.5-5.8l-5.9-1.6L348.9,161"/>
	</g>
	<g id="_x32_doCvNzqr3Ih6p3lsbzEan">
		<path fill="#FAFAFA" stroke="#000000" d="M554.6,17.6v282.7H424.7V17.6H554.6"/>
		<path fill="#FAFAFA" stroke="#000000" d="M497,225.1l24.1,6.5l4.7-17.7h-36.2l0,15.5l5.8,1.5L497,225.1"/>
	</g>
	<g id="_x33_8OJC1Fgj68fruKs1hEsf2">
		<path fill="#FAFAFA" stroke="#000000" d="M618.9,300.3h-57.1V17.6H823V236H618.9V300.3"/>
		<path fill="#FAFAFA" stroke="#000000" d="M634.1,160.9l24.1,6.5l4.7-17.7h-36.2v15.5l5.8,1.5L634.1,160.9"/>
	</g>
	<!-- <g id="_x33_FR_x5F_cQFYTC0wN9SUNXmbcq">
		<path fill="#FAFAFA" stroke="#000000" d="M76.3,1.9h762.4v792.4H76.3V1.9"/>
		<path fill="#FAFAFA" stroke="#000000" d="M832,787.5V8.7H83.1v778.8H832"/>
	</g> -->
</g>
</svg>
